<svg width="1352" height="1361" xmlns="http://www.w3.org/2000/svg" xmlns:xlink="http://www.w3.org/1999/xlink" xml:space="preserve" overflow="hidden"><g transform="translate(-1851 -142)"><g><rect x="1889.5" y="243.5" width="1242" height="1247" stroke="#2F528F" stroke-width="4.58333" stroke-linecap="butt" stroke-linejoin="miter" stroke-miterlimit="8" stroke-opacity="1" fill="#FFFFFF" fill-opacity="1"/><rect x="1915" y="1366" width="1196" height="111" fill="#B4C7E7" fill-opacity="1"/><text fill="#000000" fill-opacity="1" font-family="DIN Pro Regular,DIN Pro Regular_MSFontService,sans-serif" font-style="normal" font-variant="normal" font-weight="400" font-stretch="normal" font-size="64" text-anchor="start" direction="ltr" writing-mode="lr-tb" unicode-bidi="normal" text-decoration="none" transform="matrix(1 0 0 1 1948.17 1446)">main</text><text fill="#000000" fill-opacity="1" font-family="DIN Pro Regular,DIN Pro Regular_MSFontService,sans-serif" font-style="normal" font-variant="normal" font-weight="400" font-stretch="normal" font-size="64" text-anchor="start" direction="ltr" writing-mode="lr-tb" unicode-bidi="normal" text-decoration="none" transform="matrix(1 0 0 1 2090.26 1446)">()</text><rect x="1913" y="1364" width="1199" height="111" fill="#70AD47" fill-opacity="1"/><text fill="#000000" fill-opacity="1" font-family="DIN Pro Regular,DIN Pro Regular_MSFontService,sans-serif" font-style="normal" font-variant="normal" font-weight="400" font-stretch="normal" font-size="64" text-anchor="start" direction="ltr" writing-mode="lr-tb" unicode-bidi="normal" text-decoration="none" transform="matrix(1 0 0 1 2741.3 1444)">Abgefangen</text><rect x="1915" y="1234" width="1196" height="111" fill="#B4C7E7" fill-opacity="1"/><text fill="#000000" fill-opacity="1" font-family="DIN Pro Regular,DIN Pro Regular_MSFontService,sans-serif" font-style="normal" font-variant="normal" font-weight="400" font-stretch="normal" font-size="64" text-anchor="start" direction="ltr" writing-mode="lr-tb" unicode-bidi="normal" text-decoration="none" transform="matrix(1 0 0 1 1948.17 1313)">factorial</text><text fill="#000000" fill-opacity="1" font-family="DIN Pro Regular,DIN Pro Regular_MSFontService,sans-serif" font-style="normal" font-variant="normal" font-weight="400" font-stretch="normal" font-size="64" text-anchor="start" direction="ltr" writing-mode="lr-tb" unicode-bidi="normal" text-decoration="none" transform="matrix(1 0 0 1 2184.21 1313)">(1)</text><rect x="1915" y="1102" width="1196" height="111" fill="#B4C7E7" fill-opacity="1"/><text fill="#000000" fill-opacity="1" font-family="DIN Pro Regular,DIN Pro Regular_MSFontService,sans-serif" font-style="normal" font-variant="normal" font-weight="400" font-stretch="normal" font-size="64" text-anchor="start" direction="ltr" writing-mode="lr-tb" unicode-bidi="normal" text-decoration="none" transform="matrix(1 0 0 1 1948.17 1181)">factorial</text><text fill="#000000" fill-opacity="1" font-family="DIN Pro Regular,DIN Pro Regular_MSFontService,sans-serif" font-style="normal" font-variant="normal" font-weight="400" font-stretch="normal" font-size="64" text-anchor="start" direction="ltr" writing-mode="lr-tb" unicode-bidi="normal" text-decoration="none" transform="matrix(1 0 0 1 2184.21 1181)">(2)</text><rect x="1915" y="970" width="1196" height="111" fill="#B4C7E7" fill-opacity="1"/><text fill="#000000" fill-opacity="1" font-family="DIN Pro Regular,DIN Pro Regular_MSFontService,sans-serif" font-style="normal" font-variant="normal" font-weight="400" font-stretch="normal" font-size="64" text-anchor="start" direction="ltr" writing-mode="lr-tb" unicode-bidi="normal" text-decoration="none" transform="matrix(1 0 0 1 1948.17 1049)">factorial</text><text fill="#000000" fill-opacity="1" font-family="DIN Pro Regular,DIN Pro Regular_MSFontService,sans-serif" font-style="normal" font-variant="normal" font-weight="400" font-stretch="normal" font-size="64" text-anchor="start" direction="ltr" writing-mode="lr-tb" unicode-bidi="normal" text-decoration="none" transform="matrix(1 0 0 1 2184.21 1049)">(3)</text><rect x="1915" y="840" width="1196" height="111" fill="#B4C7E7" fill-opacity="1"/><text fill="#000000" fill-opacity="1" font-family="DIN Pro Regular,DIN Pro Regular_MSFontService,sans-serif" font-style="normal" font-variant="normal" font-weight="400" font-stretch="normal" font-size="64" text-anchor="start" direction="ltr" writing-mode="lr-tb" unicode-bidi="normal" text-decoration="none" transform="matrix(1 0 0 1 1948.17 920)">factorial</text><text fill="#000000" fill-opacity="1" font-family="DIN Pro Regular,DIN Pro Regular_MSFontService,sans-serif" font-style="normal" font-variant="normal" font-weight="400" font-stretch="normal" font-size="64" text-anchor="start" direction="ltr" writing-mode="lr-tb" unicode-bidi="normal" text-decoration="none" transform="matrix(1 0 0 1 2184.21 920)">(4)</text><rect x="1915" y="711" width="1196" height="111" fill="#B4C7E7" fill-opacity="1"/><text fill="#000000" fill-opacity="1" font-family="DIN Pro Regular,DIN Pro Regular_MSFontService,sans-serif" font-style="normal" font-variant="normal" font-weight="400" font-stretch="normal" font-size="64" text-anchor="start" direction="ltr" writing-mode="lr-tb" unicode-bidi="normal" text-decoration="none" transform="matrix(1 0 0 1 1948.17 790)">factorial</text><text fill="#000000" fill-opacity="1" font-family="DIN Pro Regular,DIN Pro Regular_MSFontService,sans-serif" font-style="normal" font-variant="normal" font-weight="400" font-stretch="normal" font-size="64" text-anchor="start" direction="ltr" writing-mode="lr-tb" unicode-bidi="normal" text-decoration="none" transform="matrix(1 0 0 1 2184.21 790)">(5)</text><text fill="#000000" fill-opacity="1" font-family="DIN Pro Regular,DIN Pro Regular_MSFontService,sans-serif" font-style="normal" font-variant="normal" font-weight="400" font-stretch="normal" font-size="64" text-anchor="start" direction="ltr" writing-mode="lr-tb" unicode-bidi="normal" text-decoration="none" transform="matrix(1 0 0 1 1890.9 226)">Stack</text><text fill="#000000" fill-opacity="1" font-family="DIN Pro Regular,DIN Pro Regular_MSFontService,sans-serif" font-style="normal" font-variant="normal" font-weight="400" font-stretch="normal" font-size="64" text-anchor="start" direction="ltr" writing-mode="lr-tb" unicode-bidi="normal" text-decoration="none" transform="matrix(1 0 0 1 2049.59 226)">-</text><text fill="#000000" fill-opacity="1" font-family="DIN Pro Regular,DIN Pro Regular_MSFontService,sans-serif" font-style="normal" font-variant="normal" font-weight="400" font-stretch="normal" font-size="64" text-anchor="start" direction="ltr" writing-mode="lr-tb" unicode-bidi="normal" text-decoration="none" transform="matrix(1 0 0 1 2077.09 226)">Größe</text><rect x="1915" y="577" width="1196" height="111" fill="#ED7D31" fill-opacity="1"/><text fill="#000000" fill-opacity="1" font-family="DIN Pro Regular,DIN Pro Regular_MSFontService,sans-serif" font-style="normal" font-variant="normal" font-weight="400" font-stretch="normal" font-size="64" text-anchor="start" direction="ltr" writing-mode="lr-tb" unicode-bidi="normal" text-decoration="none" transform="matrix(1 0 0 1 1948.17 657)">Exception</text><path d="M3053 659 3148.06 659C3177.3 659 3201 682.701 3201 711.938L3201 711.938C3201 741.174 3177.3 764.875 3148.06 764.875L3120.25 764.875 3120.25 780 3090 749.75 3120.25 719.5 3120.25 734.625 3148.06 734.625C3160.59 734.625 3170.75 724.468 3170.75 711.938L3170.75 711.938C3170.75 699.408 3160.59 689.25 3148.06 689.25L3053 689.25Z" fill="#C00000" fill-rule="evenodd" fill-opacity="1"/><path d="M3053 790 3148.06 790C3177.3 790 3201 813.701 3201 842.938L3201 842.938C3201 872.174 3177.3 895.875 3148.06 895.875L3120.25 895.875 3120.25 911 3090 880.75 3120.25 850.5 3120.25 865.625 3148.06 865.625C3160.59 865.625 3170.75 855.468 3170.75 842.938L3170.75 842.938C3170.75 830.408 3160.59 820.25 3148.06 820.25L3053 820.25Z" fill="#C00000" fill-rule="evenodd" fill-opacity="1"/><path d="M3053 921 3148.06 921C3177.3 921 3201 944.701 3201 973.938L3201 973.938C3201 1003.17 3177.3 1026.88 3148.06 1026.88L3120.25 1026.88 3120.25 1042 3090 1011.75 3120.25 981.5 3120.25 996.625 3148.06 996.625C3160.59 996.625 3170.75 986.468 3170.75 973.938L3170.75 973.938C3170.75 961.408 3160.59 951.25 3148.06 951.25L3053 951.25Z" fill="#C00000" fill-rule="evenodd" fill-opacity="1"/><path d="M3053 1052 3148.06 1052C3177.3 1052 3201 1075.7 3201 1104.94L3201 1104.94C3201 1134.17 3177.3 1157.88 3148.06 1157.88L3120.25 1157.88 3120.25 1173 3090 1142.75 3120.25 1112.5 3120.25 1127.62 3148.06 1127.62C3160.59 1127.62 3170.75 1117.47 3170.75 1104.94L3170.75 1104.94C3170.75 1092.41 3160.59 1082.25 3148.06 1082.25L3053 1082.25Z" fill="#C00000" fill-rule="evenodd" fill-opacity="1"/><path d="M3053 1183 3148.06 1183C3177.3 1183 3201 1206.7 3201 1235.94L3201 1235.94C3201 1265.17 3177.3 1288.88 3148.06 1288.88L3120.25 1288.88 3120.25 1304 3090 1273.75 3120.25 1243.5 3120.25 1258.62 3148.06 1258.62C3160.59 1258.62 3170.75 1248.47 3170.75 1235.94L3170.75 1235.94C3170.75 1223.41 3160.59 1213.25 3148.06 1213.25L3053 1213.25Z" fill="#C00000" fill-rule="evenodd" fill-opacity="1"/><path d="M3053 1314 3148.06 1314C3177.3 1314 3201 1337.7 3201 1366.94L3201 1366.94C3201 1396.17 3177.3 1419.88 3148.06 1419.88L3120.25 1419.88 3120.25 1435 3090 1404.75 3120.25 1374.5 3120.25 1389.63 3148.06 1389.63C3160.59 1389.63 3170.75 1379.47 3170.75 1366.94L3170.75 1366.94C3170.75 1354.41 3160.59 1344.25 3148.06 1344.25L3053 1344.25Z" fill="#C00000" fill-rule="evenodd" fill-opacity="1"/></g></g></svg>