<svg width="2246" height="683" xmlns="http://www.w3.org/2000/svg" xmlns:xlink="http://www.w3.org/1999/xlink" xml:space="preserve" overflow="hidden"><g transform="translate(-449 -586)"><g><rect x="1208.5" y="590.5" width="728" height="226" stroke="#2F528F" stroke-width="4.58333" stroke-linecap="butt" stroke-linejoin="miter" stroke-miterlimit="8" stroke-opacity="1" fill="#4472C4" fill-opacity="1"/><text fill="#FFFFFF" fill-opacity="1" font-family="DIN Pro Regular,DIN Pro Regular_MSFontService,sans-serif" font-style="normal" font-variant="normal" font-weight="400" font-stretch="normal" font-size="92" text-anchor="start" direction="ltr" writing-mode="lr-tb" unicode-bidi="normal" text-decoration="none" transform="matrix(1 0 0 1 1435.11 737)">Klasse</text><rect x="455.5" y="1024.5" width="779" height="241" stroke="#2F528F" stroke-width="4.58333" stroke-linecap="butt" stroke-linejoin="miter" stroke-miterlimit="8" stroke-opacity="1" fill="#4472C4" fill-opacity="1"/><text fill="#FFFFFF" fill-opacity="1" font-family="DIN Pro Regular,DIN Pro Regular_MSFontService,sans-serif" font-style="normal" font-variant="normal" font-weight="400" font-stretch="normal" font-size="92" text-anchor="start" direction="ltr" writing-mode="lr-tb" unicode-bidi="normal" text-decoration="none" transform="matrix(1 0 0 1 661.638 1178)">Instanz 1</text><rect x="1910.5" y="1024.5" width="779" height="241" stroke="#2F528F" stroke-width="4.58333" stroke-linecap="butt" stroke-linejoin="miter" stroke-miterlimit="8" stroke-opacity="1" fill="#4472C4" fill-opacity="1"/><text fill="#FFFFFF" fill-opacity="1" font-family="DIN Pro Regular,DIN Pro Regular_MSFontService,sans-serif" font-style="normal" font-variant="normal" font-weight="400" font-stretch="normal" font-size="92" text-anchor="start" direction="ltr" writing-mode="lr-tb" unicode-bidi="normal" text-decoration="none" transform="matrix(1 0 0 1 2115.2 1178)">Instanz n</text><path d="M1468 1144C1468 1129.64 1479.64 1118 1494 1118 1508.36 1118 1520 1129.64 1520 1144 1520 1158.36 1508.36 1170 1494 1170 1479.64 1170 1468 1158.36 1468 1144Z" fill="#4472C4" fill-rule="evenodd" fill-opacity="1"/><path d="M1542 1144C1542 1129.64 1553.64 1118 1568 1118 1582.36 1118 1594 1129.64 1594 1144 1594 1158.36 1582.36 1170 1568 1170 1553.64 1170 1542 1158.36 1542 1144Z" fill="#4472C4" fill-rule="evenodd" fill-opacity="1"/><path d="M1624 1144C1624 1129.64 1635.64 1118 1650 1118 1664.36 1118 1676 1129.64 1676 1144 1676 1158.36 1664.36 1170 1650 1170 1635.64 1170 1624 1158.36 1624 1144Z" fill="#4472C4" fill-rule="evenodd" fill-opacity="1"/><path d="M844 1023.95 844 919.977 1571.64 919.977 1571.64 816" stroke="#4472C4" stroke-width="2.29167" stroke-linecap="butt" stroke-linejoin="miter" stroke-miterlimit="8" stroke-opacity="1" fill="none" fill-rule="evenodd"/><path d="M0 0 103.978 0 103.978 727.64 207.954 727.64" stroke="#4472C4" stroke-width="2.29167" stroke-linecap="butt" stroke-linejoin="miter" stroke-miterlimit="8" stroke-opacity="1" fill="none" fill-rule="evenodd" transform="matrix(-1.83697e-16 -1 -1 1.83697e-16 2299.64 1023.95)"/></g></g></svg>