<svg width="2787" height="678" xmlns="http://www.w3.org/2000/svg" xmlns:xlink="http://www.w3.org/1999/xlink" xml:space="preserve" overflow="hidden"><g transform="translate(-242 -261)"><g><rect x="1130" y="262" width="728" height="225" fill="#4472C4" fill-opacity="1"/><text fill="#FFFFFF" fill-opacity="1" font-family="DIN Pro Regular,DIN Pro Regular_MSFontService,sans-serif" font-style="normal" font-variant="normal" font-weight="400" font-stretch="normal" font-size="92" text-anchor="start" direction="ltr" writing-mode="lr-tb" unicode-bidi="normal" text-decoration="none" transform="matrix(1 0 0 1 1331.66 408)">Polygon</text><rect x="247" y="695" width="779" height="241" fill="#4472C4" fill-opacity="1"/><text fill="#FFFFFF" fill-opacity="1" font-family="DIN Pro Regular,DIN Pro Regular_MSFontService,sans-serif" font-style="normal" font-variant="normal" font-weight="400" font-stretch="normal" font-size="92" text-anchor="start" direction="ltr" writing-mode="lr-tb" unicode-bidi="normal" text-decoration="none" transform="matrix(1 0 0 1 537.1 850)">Linie</text><rect x="1104" y="695" width="780" height="241" fill="#4472C4" fill-opacity="1"/><text fill="#FFFFFF" fill-opacity="1" font-family="DIN Pro Regular,DIN Pro Regular_MSFontService,sans-serif" font-style="normal" font-variant="normal" font-weight="400" font-stretch="normal" font-size="92" text-anchor="start" direction="ltr" writing-mode="lr-tb" unicode-bidi="normal" text-decoration="none" transform="matrix(1 0 0 1 1336.81 850)">Dreieck</text><path d="M2821 815C2821 800.641 2832.64 789 2847 789 2861.36 789 2873 800.641 2873 815 2873 829.359 2861.36 841 2847 841 2832.64 841 2821 829.359 2821 815Z" fill="#4472C4" fill-rule="evenodd" fill-opacity="1"/><path d="M2895 815C2895 800.641 2906.64 789 2921 789 2935.36 789 2947 800.641 2947 815 2947 829.359 2935.36 841 2921 841 2906.64 841 2895 829.359 2895 815Z" fill="#4472C4" fill-rule="evenodd" fill-opacity="1"/><path d="M2977 816C2977 801.641 2988.64 790 3003 790 3017.36 790 3029 801.641 3029 816 3029 830.359 3017.36 842 3003 842 2988.64 842 2977 830.359 2977 816Z" fill="#4472C4" fill-rule="evenodd" fill-opacity="1"/><rect x="1969" y="694" width="780" height="242" fill="#4472C4" fill-opacity="1"/><text fill="#FFFFFF" fill-opacity="1" font-family="DIN Pro Regular,DIN Pro Regular_MSFontService,sans-serif" font-style="normal" font-variant="normal" font-weight="400" font-stretch="normal" font-size="92" text-anchor="start" direction="ltr" writing-mode="lr-tb" unicode-bidi="normal" text-decoration="none" transform="matrix(1 0 0 1 2207.68 849)">Viereck</text><path d="M1494.58 538 1494.58 616.187 637 616.187 637 694.374" stroke="#ED7D31" stroke-width="2.29167" stroke-linecap="butt" stroke-linejoin="miter" stroke-miterlimit="8" stroke-opacity="1" fill="none" fill-rule="evenodd"/><path d="M1468 538 1494 486 1520 538Z" fill="#ED7D31" fill-rule="evenodd" fill-opacity="1"/><path d="M1494 538 1494 694.374" stroke="#ED7D31" stroke-width="2.29167" stroke-linecap="butt" stroke-linejoin="miter" stroke-miterlimit="8" stroke-opacity="1" fill="none" fill-rule="evenodd"/><path d="M0 0 77.904 0 77.904 864.852 155.807 864.852" stroke="#ED7D31" stroke-width="2.29167" stroke-linecap="butt" stroke-linejoin="miter" stroke-miterlimit="8" stroke-opacity="1" fill="none" fill-rule="evenodd" transform="matrix(1.83697e-16 1 1 -1.83697e-16 1494 538)"/></g></g></svg>