<svg width="1636" height="734" xmlns="http://www.w3.org/2000/svg" xmlns:xlink="http://www.w3.org/1999/xlink" xml:space="preserve" overflow="hidden"><g transform="translate(-137 -1026)"><g><rect x="565.5" y="1073.5" width="390" height="208" stroke="#2F528F" stroke-width="4.58333" stroke-linecap="butt" stroke-linejoin="miter" stroke-miterlimit="8" stroke-opacity="1" fill="#BDD7EE" fill-opacity="1"/><text fill="#000000" fill-opacity="1" font-family="DIN Pro Regular,DIN Pro Regular_MSFontService,sans-serif" font-style="normal" font-variant="normal" font-weight="400" font-stretch="normal" font-size="50" text-anchor="start" direction="ltr" writing-mode="lr-tb" unicode-bidi="normal" text-decoration="none" transform="matrix(1 0 0 1 597.304 1135)">Wähle Index in </text><text fill="#000000" fill-opacity="1" font-family="DIN Pro Regular,DIN Pro Regular_MSFontService,sans-serif" font-style="normal" font-variant="normal" font-weight="400" font-stretch="normal" font-size="50" text-anchor="start" direction="ltr" writing-mode="lr-tb" unicode-bidi="normal" text-decoration="none" transform="matrix(1 0 0 1 613.07 1196)">der Mitte des </text><text fill="#000000" fill-opacity="1" font-family="DIN Pro Regular,DIN Pro Regular_MSFontService,sans-serif" font-style="normal" font-variant="normal" font-weight="400" font-stretch="normal" font-size="50" text-anchor="start" direction="ltr" writing-mode="lr-tb" unicode-bidi="normal" text-decoration="none" transform="matrix(1 0 0 1 660.622 1256)">Bereichs</text><path d="M1053.5 1177.5 1248.5 1033.5 1443.5 1177.5 1248.5 1321.5Z" stroke="#2F528F" stroke-width="4.58333" stroke-linecap="butt" stroke-linejoin="miter" stroke-miterlimit="8" stroke-opacity="1" fill="#BDD7EE" fill-rule="evenodd" fill-opacity="1"/><text fill="#000000" fill-opacity="1" font-family="DIN Pro Regular,DIN Pro Regular_MSFontService,sans-serif" font-style="normal" font-variant="normal" font-weight="400" font-stretch="normal" font-size="50" text-anchor="start" direction="ltr" writing-mode="lr-tb" unicode-bidi="normal" text-decoration="none" transform="matrix(1 0 0 1 1178.11 1196)">Gleich</text><path d="M196.59 1101.5 420.41 1101.5C449.73 1101.5 473.5 1135.3 473.5 1177 473.5 1218.7 449.73 1252.5 420.41 1252.5L196.59 1252.5C167.269 1252.5 143.5 1218.7 143.5 1177 143.5 1135.3 167.269 1101.5 196.59 1101.5Z" stroke="#2F528F" stroke-width="4.58333" stroke-linecap="butt" stroke-linejoin="miter" stroke-miterlimit="8" stroke-opacity="1" fill="#BDD7EE" fill-rule="evenodd" fill-opacity="1"/><text fill="#000000" fill-opacity="1" font-family="DIN Pro Regular,DIN Pro Regular_MSFontService,sans-serif" font-style="normal" font-variant="normal" font-weight="400" font-stretch="normal" font-size="50" text-anchor="start" direction="ltr" writing-mode="lr-tb" unicode-bidi="normal" text-decoration="none" transform="matrix(1 0 0 1 252.544 1196)">Start</text><path d="M473 1175.85 542.563 1175.85 542.563 1178.15 473 1178.15ZM537.98 1163.25 565.48 1177 537.98 1190.75Z" fill="#4472C4" fill-rule="nonzero" fill-opacity="1"/><path d="M955 1175.85 1029.98 1175.85 1029.98 1178.15 955 1178.15ZM1025.4 1163.25 1052.9 1177 1025.4 1190.75Z" fill="#4472C4" fill-rule="nonzero" fill-opacity="1"/><path d="M1.14583-0.00191658 1.41029 158.104-0.881375 158.108-1.14583 0.00191658ZM14.0068 153.5 0.302789 181.023-13.4932 153.546Z" fill="#4472C4" fill-rule="nonzero" fill-opacity="1" transform="matrix(1 0 0 -1 760 1462.02)"/><path d="M4.21084e-06-1.14583 75.2876-1.14556 75.2876 1.14611-4.21084e-06 1.14583ZM70.7043-13.7497 98.2042 0.000360892 70.7042 13.7503Z" fill="#4472C4" fill-rule="nonzero" fill-opacity="1" transform="matrix(-1 0 0 1 1053.2 1566)"/><path d="M1249.15 1321 1249.15 1399.27 1246.85 1399.27 1246.85 1321ZM1261.75 1394.69 1248 1422.19 1234.25 1394.69Z" fill="#4472C4" fill-rule="nonzero" fill-opacity="1"/><text fill="#000000" fill-opacity="1" font-family="DIN Pro Regular,DIN Pro Regular_MSFontService,sans-serif" font-style="normal" font-variant="normal" font-weight="400" font-stretch="normal" font-size="41" text-anchor="start" direction="ltr" writing-mode="lr-tb" unicode-bidi="normal" text-decoration="none" transform="matrix(1 0 0 1 1281.35 1375)">Nein</text><text fill="#000000" fill-opacity="1" font-family="DIN Pro Regular,DIN Pro Regular_MSFontService,sans-serif" font-style="normal" font-variant="normal" font-weight="400" font-stretch="normal" font-size="41" text-anchor="start" direction="ltr" writing-mode="lr-tb" unicode-bidi="normal" text-decoration="none" transform="matrix(1 0 0 1 1461.9 1150)">Ja</text><path d="M5.07379e-06-1.14583 58.5851-1.14557 58.5851 1.14609-5.07379e-06 1.14583ZM54.0018-13.7498 81.5018 0.000360892 54.0017 13.7502Z" fill="#4472C4" fill-rule="nonzero" fill-opacity="1" transform="matrix(1 0 0 -1 1443 1177)"/><path d="M1563.92 1101.5 1730.08 1101.5C1751.85 1101.5 1769.5 1135.3 1769.5 1177 1769.5 1218.7 1751.85 1252.5 1730.08 1252.5L1563.92 1252.5C1542.15 1252.5 1524.5 1218.7 1524.5 1177 1524.5 1135.3 1542.15 1101.5 1563.92 1101.5Z" stroke="#2F528F" stroke-width="4.58333" stroke-linecap="butt" stroke-linejoin="miter" stroke-miterlimit="8" stroke-opacity="1" fill="#BDD7EE" fill-rule="evenodd" fill-opacity="1"/><text fill="#000000" fill-opacity="1" font-family="DIN Pro Regular,DIN Pro Regular_MSFontService,sans-serif" font-style="normal" font-variant="normal" font-weight="400" font-stretch="normal" font-size="50" text-anchor="start" direction="ltr" writing-mode="lr-tb" unicode-bidi="normal" text-decoration="none" transform="matrix(1 0 0 1 1590.41 1196)">Ende</text><path d="M1053.5 1566.5 1248.5 1422.5 1443.5 1566.5 1248.5 1710.5Z" stroke="#2F528F" stroke-width="4.58333" stroke-linecap="butt" stroke-linejoin="miter" stroke-miterlimit="8" stroke-opacity="1" fill="#BDD7EE" fill-rule="evenodd" fill-opacity="1"/><text fill="#000000" fill-opacity="1" font-family="DIN Pro Regular,DIN Pro Regular_MSFontService,sans-serif" font-style="normal" font-variant="normal" font-weight="400" font-stretch="normal" font-size="50" text-anchor="start" direction="ltr" writing-mode="lr-tb" unicode-bidi="normal" text-decoration="none" transform="matrix(1 0 0 1 1169.52 1584)">Größer</text><rect x="565.5" y="1462.5" width="390" height="208" stroke="#2F528F" stroke-width="4.58333" stroke-linecap="butt" stroke-linejoin="miter" stroke-miterlimit="8" stroke-opacity="1" fill="#BDD7EE" fill-opacity="1"/><text fill="#000000" fill-opacity="1" font-family="DIN Pro Regular,DIN Pro Regular_MSFontService,sans-serif" font-style="normal" font-variant="normal" font-weight="400" font-stretch="normal" font-size="50" text-anchor="start" direction="ltr" writing-mode="lr-tb" unicode-bidi="normal" text-decoration="none" transform="matrix(1 0 0 1 596.726 1554)">Neuer Bereich</text><text fill="#000000" fill-opacity="1" font-family="DIN Pro Regular,DIN Pro Regular_MSFontService,sans-serif" font-style="normal" font-variant="normal" font-weight="400" font-stretch="normal" font-size="50" text-anchor="start" direction="ltr" writing-mode="lr-tb" unicode-bidi="normal" text-decoration="none" transform="matrix(1 0 0 1 576.949 1615)">rechts von Index</text><rect x="143.5" y="1460.5" width="390" height="208" stroke="#2F528F" stroke-width="4.58333" stroke-linecap="butt" stroke-linejoin="miter" stroke-miterlimit="8" stroke-opacity="1" fill="#BDD7EE" fill-opacity="1"/><text fill="#000000" fill-opacity="1" font-family="DIN Pro Regular,DIN Pro Regular_MSFontService,sans-serif" font-style="normal" font-variant="normal" font-weight="400" font-stretch="normal" font-size="50" text-anchor="start" direction="ltr" writing-mode="lr-tb" unicode-bidi="normal" text-decoration="none" transform="matrix(1 0 0 1 174.368 1552)">Neuer Bereich</text><text fill="#000000" fill-opacity="1" font-family="DIN Pro Regular,DIN Pro Regular_MSFontService,sans-serif" font-style="normal" font-variant="normal" font-weight="400" font-stretch="normal" font-size="50" text-anchor="start" direction="ltr" writing-mode="lr-tb" unicode-bidi="normal" text-decoration="none" transform="matrix(1 0 0 1 172.076 1613)">links von Index</text><path d="M0 1.14583-32.0144 1.14583-30.8685 0-30.8685 910.358-32.0144 909.212 18.8924 909.212 18.8924 911.503-33.1602 911.503-33.1602-1.14583 0-1.14583ZM14.309 896.608 41.809 910.358 14.309 924.108Z" fill="#4472C4" fill-rule="nonzero" fill-opacity="1" transform="matrix(-6.12323e-17 -1 -1 6.12323e-17 1248.36 1709.81)"/><text fill="#000000" fill-opacity="1" font-family="DIN Pro Regular,DIN Pro Regular_MSFontService,sans-serif" font-style="normal" font-variant="normal" font-weight="400" font-stretch="normal" font-size="41" text-anchor="start" direction="ltr" writing-mode="lr-tb" unicode-bidi="normal" text-decoration="none" transform="matrix(1 0 0 1 1257.68 1723)">Nein</text><text fill="#000000" fill-opacity="1" font-family="DIN Pro Regular,DIN Pro Regular_MSFontService,sans-serif" font-style="normal" font-variant="normal" font-weight="400" font-stretch="normal" font-size="41" text-anchor="start" direction="ltr" writing-mode="lr-tb" unicode-bidi="normal" text-decoration="none" transform="matrix(1 0 0 1 993.148 1537)">Ja</text><path d="M336.854 1460.13 336.854 1369.42 760.649 1369.42 759.503 1370.57 759.503 1303.92 761.795 1303.92 761.795 1371.71 338 1371.71 339.146 1370.57 339.146 1460.13ZM746.899 1308.5 760.649 1281 774.399 1308.5Z" fill="#4472C4" fill-rule="nonzero" fill-opacity="1"/></g></g></svg>