<svg width="2627" height="1233" xmlns="http://www.w3.org/2000/svg" xmlns:xlink="http://www.w3.org/1999/xlink" xml:space="preserve" overflow="hidden"><g transform="translate(-297 -261)"><g><path d="M1198.93 1139.52 1210.02 1089.02 1195.23 1049.61 1169.36 1054.54 1179.21 1023.75 1169.36 978.181 1168.12 942.464 1159.5 917.832 1182.91 869.8 1184.14 842.705 1202.62 820.536 1246.98 572.985 1254.37 550.816 1280.25 538.5 1261.77 554.511 1256.84 585.301 1272.86 619.786 1365.26 705.997 1409.62 726.935 1440.42 730.629 1457.67 751.567 1552.55 795.904 1681.92 890.737 1760.77 953.548 1839.63 1024.98 1943.13 1098.88 2020.75 1140.75 2083.59 1154.3 2131.64 1172.77 2141.5 1224.5 2042.93 1194.94 1929.58 1106.27 1817.45 1023.75 1683.15 907.98 1657.28 963.401 1626.47 968.328 1591.97 954.78 1468.76 1000.35 1465.07 1033.6 1410.85 996.654 1357.87 997.886 1297.5 967.096 1253.14 1004.04 1311.05 1077.94 1264.23 1087.79 1198.93 1139.52Z" stroke="#4472C4" stroke-width="4.58333" stroke-linecap="butt" stroke-linejoin="miter" stroke-miterlimit="8" stroke-opacity="1" fill="none" fill-rule="evenodd"/><path d="M1.95982-1.1878 354.642 580.723 350.722 583.099-1.95982 1.1878ZM362.066 570.865 364.56 601.51 338.548 585.119Z" fill="#ED7D31" fill-rule="nonzero" fill-opacity="1" transform="matrix(-1 0 0 1 2014.06 330.5)"/><path d="M1667.29 848.69 1684.73 913.803" stroke="#ED7D31" stroke-width="6.875" stroke-linecap="butt" stroke-linejoin="miter" stroke-miterlimit="8" stroke-opacity="1" fill="none" fill-rule="evenodd"/><path d="M0 0 50.4405 44.8907" stroke="#ED7D31" stroke-width="6.875" stroke-linecap="butt" stroke-linejoin="miter" stroke-miterlimit="8" stroke-opacity="1" fill="none" fill-rule="evenodd" transform="matrix(0.866025 0.5 0.5 -0.866025 1642.95 888.075)"/><text fill="#000000" fill-opacity="1" font-family="DIN Pro Regular,DIN Pro Regular_MSFontService,sans-serif" font-style="normal" font-variant="normal" font-weight="400" font-stretch="normal" font-size="55" text-anchor="start" direction="ltr" writing-mode="lr-tb" unicode-bidi="normal" text-decoration="none" transform="matrix(1 0 0 1 2043.76 349)">Strahl 1 hat 1 Schnittpunkt </text><text fill="#000000" fill-opacity="1" font-family="Wingdings,Wingdings_MSFontService,sans-serif" font-style="normal" font-variant="normal" font-weight="400" font-stretch="normal" font-size="55" text-anchor="start" direction="ltr" writing-mode="lr-tb" unicode-bidi="normal" text-decoration="none" transform="matrix(1 0 0 1 2043.76 415)"></text><text fill="#000000" fill-opacity="1" font-family="DIN Pro Regular,DIN Pro Regular_MSFontService,sans-serif" font-style="normal" font-variant="normal" font-weight="400" font-stretch="normal" font-size="55" text-anchor="start" direction="ltr" writing-mode="lr-tb" unicode-bidi="normal" text-decoration="none" transform="matrix(1 0 0 1 2111.36 415)">ungerade = innenliegend</text><path d="M0.450728-2.2469 968.559 191.955 967.658 196.449-0.450728 2.2469ZM966.318 179.819 990.576 198.709 960.909 206.782Z" fill="#ED7D31" fill-rule="nonzero" fill-opacity="1" transform="matrix(1 0 0 -1 637.5 1140.21)"/><path d="M1354.65 964.211 1337.2 1029.32" stroke="#ED7D31" stroke-width="6.875" stroke-linecap="butt" stroke-linejoin="miter" stroke-miterlimit="8" stroke-opacity="1" fill="none" fill-rule="evenodd"/><path d="M0 0 50.4405 44.8907" stroke="#ED7D31" stroke-width="6.875" stroke-linecap="butt" stroke-linejoin="miter" stroke-miterlimit="8" stroke-opacity="1" fill="none" fill-rule="evenodd" transform="matrix(0.5 0.866025 0.866025 -0.5 1313.88 986.148)"/><path d="M1262.85 978.234 1245.41 1043.35" stroke="#ED7D31" stroke-width="6.875" stroke-linecap="butt" stroke-linejoin="miter" stroke-miterlimit="8" stroke-opacity="1" fill="none" fill-rule="evenodd"/><path d="M0 0 50.4405 44.8907" stroke="#ED7D31" stroke-width="6.875" stroke-linecap="butt" stroke-linejoin="miter" stroke-miterlimit="8" stroke-opacity="1" fill="none" fill-rule="evenodd" transform="matrix(0.5 0.866025 0.866025 -0.5 1222.08 1000.17)"/><path d="M1183.45 996.767 1166.01 1061.88" stroke="#ED7D31" stroke-width="6.875" stroke-linecap="butt" stroke-linejoin="miter" stroke-miterlimit="8" stroke-opacity="1" fill="none" fill-rule="evenodd"/><path d="M0 0 50.4405 44.8907" stroke="#ED7D31" stroke-width="6.875" stroke-linecap="butt" stroke-linejoin="miter" stroke-miterlimit="8" stroke-opacity="1" fill="none" fill-rule="evenodd" transform="matrix(0.5 0.866025 0.866025 -0.5 1142.68 1018.7)"/><text fill="#000000" fill-opacity="1" font-family="DIN Pro Regular,DIN Pro Regular_MSFontService,sans-serif" font-style="normal" font-variant="normal" font-weight="400" font-stretch="normal" font-size="55" text-anchor="start" direction="ltr" writing-mode="lr-tb" unicode-bidi="normal" text-decoration="none" transform="matrix(1 0 0 1 357.656 1216)">Strahl 2 hat 3 Schnittpunkte</text><text fill="#000000" fill-opacity="1" font-family="Wingdings,Wingdings_MSFontService,sans-serif" font-style="normal" font-variant="normal" font-weight="400" font-stretch="normal" font-size="55" text-anchor="start" direction="ltr" writing-mode="lr-tb" unicode-bidi="normal" text-decoration="none" transform="matrix(1 0 0 1 357.656 1282)"></text><text fill="#000000" fill-opacity="1" font-family="DIN Pro Regular,DIN Pro Regular_MSFontService,sans-serif" font-style="normal" font-variant="normal" font-weight="400" font-stretch="normal" font-size="55" text-anchor="start" direction="ltr" writing-mode="lr-tb" unicode-bidi="normal" text-decoration="none" transform="matrix(1 0 0 1 425.26 1282)">ungerade = innenliegend</text><path d="M1627.5 941.5C1627.5 934.32 1633.32 928.5 1640.5 928.5 1647.68 928.5 1653.5 934.32 1653.5 941.5 1653.5 948.68 1647.68 954.5 1640.5 954.5 1633.32 954.5 1627.5 948.68 1627.5 941.5Z" stroke="#4472C4" stroke-width="4.58333" stroke-linecap="butt" stroke-linejoin="miter" stroke-miterlimit="8" stroke-opacity="1" fill="#4472C4" fill-rule="evenodd" fill-opacity="1"/><path d="M2350.86 1305.34 1668.95 962.834 1671.01 958.738 2352.92 1301.25ZM1667.9 975.13 1649.5 950.5 1680.25 950.556Z" fill="#ED7D31" fill-rule="nonzero" fill-opacity="1"/><path d="M1657.08 930.812 1674.53 995.924" stroke="#ED7D31" stroke-width="6.875" stroke-linecap="butt" stroke-linejoin="miter" stroke-miterlimit="8" stroke-opacity="1" fill="none" fill-rule="evenodd"/><path d="M0 0 50.4405 44.8907" stroke="#ED7D31" stroke-width="6.875" stroke-linecap="butt" stroke-linejoin="miter" stroke-miterlimit="8" stroke-opacity="1" fill="none" fill-rule="evenodd" transform="matrix(0.866025 0.5 0.5 -0.866025 1632.74 970.196)"/><path d="M1852.82 1030.52 1870.26 1095.64" stroke="#ED7D31" stroke-width="6.875" stroke-linecap="butt" stroke-linejoin="miter" stroke-miterlimit="8" stroke-opacity="1" fill="none" fill-rule="evenodd"/><path d="M0 0 50.4405 44.8907" stroke="#ED7D31" stroke-width="6.875" stroke-linecap="butt" stroke-linejoin="miter" stroke-miterlimit="8" stroke-opacity="1" fill="none" fill-rule="evenodd" transform="matrix(0.866025 0.5 0.5 -0.866025 1828.48 1069.91)"/><path d="M1915.29 1050.37 1932.74 1115.48" stroke="#ED7D31" stroke-width="6.875" stroke-linecap="butt" stroke-linejoin="miter" stroke-miterlimit="8" stroke-opacity="1" fill="none" fill-rule="evenodd"/><path d="M0 0 50.4405 44.8907" stroke="#ED7D31" stroke-width="6.875" stroke-linecap="butt" stroke-linejoin="miter" stroke-miterlimit="8" stroke-opacity="1" fill="none" fill-rule="evenodd" transform="matrix(0.866025 0.5 0.5 -0.866025 1890.95 1089.76)"/><path d="M2028.64 1110.87 2046.08 1175.98" stroke="#ED7D31" stroke-width="6.875" stroke-linecap="butt" stroke-linejoin="miter" stroke-miterlimit="8" stroke-opacity="1" fill="none" fill-rule="evenodd"/><path d="M0 0 50.4405 44.8907" stroke="#ED7D31" stroke-width="6.875" stroke-linecap="butt" stroke-linejoin="miter" stroke-miterlimit="8" stroke-opacity="1" fill="none" fill-rule="evenodd" transform="matrix(0.866025 0.5 0.5 -0.866025 2004.29 1150.25)"/><path d="M2133.74 1158 2133.74 1225.41" stroke="#ED7D31" stroke-width="6.875" stroke-linecap="butt" stroke-linejoin="miter" stroke-miterlimit="8" stroke-opacity="1" fill="none" fill-rule="evenodd"/><path d="M0 0 50.4405 44.8907" stroke="#ED7D31" stroke-width="6.875" stroke-linecap="butt" stroke-linejoin="miter" stroke-miterlimit="8" stroke-opacity="1" fill="none" fill-rule="evenodd" transform="matrix(0.707107 0.707107 0.707107 -0.707107 2100.04 1189.74)"/><text fill="#000000" fill-opacity="1" font-family="DIN Pro Regular,DIN Pro Regular_MSFontService,sans-serif" font-style="normal" font-variant="normal" font-weight="400" font-stretch="normal" font-size="55" text-anchor="start" direction="ltr" writing-mode="lr-tb" unicode-bidi="normal" text-decoration="none" transform="matrix(1 0 0 1 2188.4 1378)">Strahl 3 hat 5 Schnittpunkte </text><text fill="#000000" fill-opacity="1" font-family="Wingdings,Wingdings_MSFontService,sans-serif" font-style="normal" font-variant="normal" font-weight="400" font-stretch="normal" font-size="55" text-anchor="start" direction="ltr" writing-mode="lr-tb" unicode-bidi="normal" text-decoration="none" transform="matrix(1 0 0 1 2188.4 1444)"></text><text fill="#000000" fill-opacity="1" font-family="DIN Pro Regular,DIN Pro Regular_MSFontService,sans-serif" font-style="normal" font-variant="normal" font-weight="400" font-stretch="normal" font-size="55" text-anchor="start" direction="ltr" writing-mode="lr-tb" unicode-bidi="normal" text-decoration="none" transform="matrix(1 0 0 1 2256 1444)">ungerade = innenliegend</text><text fill="#000000" fill-opacity="1" font-family="DIN Pro Regular,DIN Pro Regular_MSFontService,sans-serif" font-style="normal" font-variant="normal" font-weight="400" font-stretch="normal" font-size="55" text-anchor="start" direction="ltr" writing-mode="lr-tb" unicode-bidi="normal" text-decoration="none" transform="matrix(1 0 0 1 331.669 334)">Beispiele für  </text></g></g></svg>