<svg width="384.79" height="153.09" overflow="hidden" version="1.1" xml:space="preserve" xmlns="http://www.w3.org/2000/svg"><path d="m50.63 59.594h-6.308v-44.903l-16.185 35.607h-5.395l-16.434-35.607v44.903h-6.308v-59.096h6.308l19.256 41.915 18.758-41.915h6.308z" aria-label="m"/><path d="m115.45 59.594h-6.64l-15.604-50.132-15.77 50.132h-6.64l19.422-59.096h5.81z" aria-label="a"/><path d="m176.79 42.496q-1.577 8.217-7.055 12.948-5.478 4.648-13.446 4.648-8.964 0-14.774-5.81-3.901-3.901-4.897-8.549t-0.996-15.687 0.996-15.687 4.897-8.549q5.81-5.81 14.774-5.81 8.051 0 13.446 4.648 5.478 4.648 7.055 12.948h-6.474q-1.162-5.561-4.897-8.715-3.652-3.237-9.13-3.237-6.059 0-10.209 4.15-2.656 2.739-3.403 6.723-0.747 3.901-0.747 13.529t0.747 13.612q0.747 3.901 3.403 6.64 4.15 4.15 10.209 4.15 5.478 0 9.213-3.154 3.818-3.237 4.98-8.798z" aria-label="c"/><path d="m203.27 59.594h-6.308v-59.096h6.308zm28.054-59.096h6.308v59.096h-6.308z" aria-label="h"/><path d="m264.11 59.594h-6.308v-59.096h6.308z" aria-label="i"/><path d="m327.93 59.594h-5.976l-31.374-47.393v47.393h-6.308v-59.096h5.976l31.374 47.227v-47.227h6.308z" aria-label="n"/><path d="m348.1 0.498h36.686v5.644h-36.686zm0 26.477h32.204v5.644h-32.204zm0 26.975h36.686v5.644h-36.686z" aria-label="e"/><path d="m36.52 152.59h-36.52v-59.096h6.308v53.452h30.212z" aria-label="l"/><path d="m46.729 93.498h36.686v5.644h-36.686zm0 26.477h32.204v5.644h-32.204zm0 26.975h36.686v5.644h-36.686z" aria-label="e"/><path d="m135.12 152.59h-6.64l-15.604-50.132-15.77 50.132h-6.64l19.422-59.096h5.81z" aria-label="a"/><path d="m146.16 120.8h22.078q5.395 0 8.549-2.739 3.237-2.822 3.237-8.051t-3.237-8.051-8.549-2.822h-22.078v-5.644h22.659q7.802 0 12.616 4.482 4.897 4.399 4.897 11.952 0 6.308-3.486 10.458t-9.379 5.395l14.027 26.809h-7.387l-13.446-26.228h-14.193v26.228h-6.308z" aria-label="r"/><path d="m244.27 152.59h-5.976l-31.374-47.393v47.393h-6.308v-59.096h5.976l31.374 47.227v-47.227h6.308z" aria-label="n"/><path d="m267.68 152.59h-6.308v-59.096h6.308z" aria-label="i"/><path d="m328.43 152.59h-5.976l-31.374-47.393v47.393h-6.308v-59.096h5.976l31.374 47.227v-47.227h6.308z" aria-label="n"/><path d="m384.79 131.1q0 5.229-1.162 8.632-1.079 3.403-3.901 6.557-6.225 6.806-15.77 6.806-8.964 0-14.774-5.81-3.901-3.901-4.897-8.549t-0.996-15.687 0.996-15.687 4.897-8.549q5.81-5.81 14.774-5.81 8.217 0 13.778 4.98 5.644 4.897 6.889 12.699h-6.308q-1.245-5.644-5.063-8.798-3.735-3.237-9.296-3.237-6.225 0-10.209 4.15-2.656 2.739-3.403 6.723-0.747 3.901-0.747 13.529t0.747 13.612q0.747 3.901 3.403 6.64 3.984 4.15 10.209 4.15 7.055 0 11.205-5.063 3.32-4.15 3.32-10.707v-4.565h-14.525v-5.395h20.833z" aria-label="g"/></svg>
