<?xml version="1.0" encoding="UTF-8" standalone="no"?>
<svg
   width="1183.933"
   height="196.54401"
   overflow="hidden"
   version="1.1"
   id="svg2"
   sodipodi:docname="logo_v2.svg"
   inkscape:version="1.3.2 (091e20e, 2023-11-25, custom)"
   xmlns:inkscape="http://www.inkscape.org/namespaces/inkscape"
   xmlns:sodipodi="http://sodipodi.sourceforge.net/DTD/sodipodi-0.dtd"
   xmlns="http://www.w3.org/2000/svg"
   xmlns:svg="http://www.w3.org/2000/svg">
  <sodipodi:namedview
     id="namedview2"
     pagecolor="#ffffff"
     bordercolor="#000000"
     borderopacity="0.25"
     inkscape:showpageshadow="2"
     inkscape:pageopacity="0.0"
     inkscape:pagecheckerboard="0"
     inkscape:deskcolor="#d1d1d1"
     inkscape:zoom="1.7367424"
     inkscape:cx="547.86478"
     inkscape:cy="206.99673"
     inkscape:window-width="3840"
     inkscape:window-height="2054"
     inkscape:window-x="3829"
     inkscape:window-y="2132"
     inkscape:window-maximized="1"
     inkscape:current-layer="g2" />
  <defs
     id="defs1">
    <clipPath
       id="clip0">
      <rect
         x="864"
         y="639"
         width="1584"
         height="578"
         id="rect1" />
    </clipPath>
  </defs>
  <g
     clip-path="url(#clip0)"
     transform="translate(-1030.2737,-721.02007)"
     id="g2">
    <path
       d="m 1489.3028,892.51607 q 0,11.532 -8.308,18.352 -8.308,6.696 -22.196,6.696 -9.92,0 -16.988,-2.728 -7.068,-2.728 -13.144,-8.928 l 6.324,-6.324 q 5.332,5.332 10.788,7.44 5.58,2.108 13.268,2.108 9.796,0 15.376,-4.216 5.58,-4.34 5.58,-12.152 0,-7.192 -4.34,-11.036 -3.348,-3.1 -11.532,-4.34 l -10.292,-1.488 q -10.416,-1.612 -16.12,-6.696 -6.82,-6.076 -6.82,-16.616 0,-11.284 7.564,-17.98 7.688,-6.82 20.708,-6.82 8.308,0 14.384,2.356 6.2,2.232 11.904,7.316 l -6.076,6.076 q -8.06,-7.688 -20.584,-7.688 -8.804,0 -13.764,4.464 -4.96,4.464 -4.96,12.028 0,6.82 3.968,10.292 3.844,3.348 11.532,4.588 l 10.292,1.612 q 6.2,0.992 9.548,2.356 3.472,1.24 6.448,3.968 7.44,6.448 7.44,17.36 z"
       id="text54"
       style="font-weight:700;font-size:124px;font-family:'Protomolecule Regular', 'Protomolecule Regular_MSFontService', sans-serif;fill:#898989"
       aria-label="s" />
    <path
       d="m 1569.4067,887.68007 q 0,13.144 -8.804,21.576 -8.68,8.308 -22.072,8.308 -13.392,0 -22.072,-8.308 -8.68,-8.432 -8.68,-21.576 v -59.148 h 9.424 v 58.404 q 0,10.044 5.828,16.12 5.828,6.076 15.5,6.076 9.672,0 15.5,-6.076 5.952,-6.076 5.952,-16.12 v -58.404 h 9.424 z"
       id="text53"
       style="font-weight:700;font-size:124px;font-family:'Protomolecule Regular', 'Protomolecule Regular_MSFontService', sans-serif;fill:#898989"
       aria-label="u" />
    <path
       d="m 1646.9068,892.51607 q 0,11.532 -8.308,18.352 -8.308,6.696 -22.196,6.696 -9.92,0 -16.988,-2.728 -7.068,-2.728 -13.144,-8.928 l 6.324,-6.324 q 5.332,5.332 10.788,7.44 5.58,2.108 13.268,2.108 9.796,0 15.376,-4.216 5.58,-4.34 5.58,-12.152 0,-7.192 -4.34,-11.036 -3.348,-3.1 -11.532,-4.34 l -10.292,-1.488 q -10.416,-1.612 -16.12,-6.696 -6.82,-6.076 -6.82,-16.616 0,-11.284 7.564,-17.98 7.688,-6.82 20.708,-6.82 8.308,0 14.384,2.356 6.2,2.232 11.904,7.316 l -6.076,6.076 q -8.06,-7.688 -20.584,-7.688 -8.804,0 -13.764,4.464 -4.96,4.464 -4.96,12.028 0,6.82 3.968,10.292 3.844,3.348 11.532,4.588 l 10.292,1.612 q 6.2,0.992 9.548,2.356 3.472,1.24 6.448,3.968 7.44,6.448 7.44,17.36 z"
       id="text52"
       style="font-weight:700;font-size:124px;font-family:'Protomolecule Regular', 'Protomolecule Regular_MSFontService', sans-serif;fill:#898989"
       aria-label="s" />
    <path
       d="m 1716.8427,836.96407 h -25.544 v 79.856 h -9.424 v -79.856 h -25.544 v -8.432 h 60.512 z"
       id="text51"
       style="font-weight:700;font-size:124px;font-family:'Protomolecule Regular', 'Protomolecule Regular_MSFontService', sans-serif;fill:#898989"
       aria-label="t" />
    <path
       d="m 1790.3749,916.82007 h -9.92 l -23.312,-74.896 -23.56,74.896 h -9.92 l 29.016,-88.288 h 8.68 z"
       id="text50"
       style="font-weight:700;font-size:124px;font-family:'Protomolecule Regular', 'Protomolecule Regular_MSFontService', sans-serif;fill:#898989"
       aria-label="a" />
    <path
       d="m 1816.2908,916.82007 h -9.424 v -88.288 h 9.424 z"
       id="text49"
       style="font-weight:700;font-size:124px;font-family:'Protomolecule Regular', 'Protomolecule Regular_MSFontService', sans-serif;fill:#898989"
       aria-label="i" />
    <path
       d="m 1907.0587,916.82007 h -8.928 l -46.872,-70.804 v 70.804 h -9.424 v -88.288 h 8.928 l 46.872,70.556 v -70.556 h 9.424 z"
       id="text48"
       style="font-weight:700;font-size:124px;font-family:'Protomolecule Regular', 'Protomolecule Regular_MSFontService', sans-serif;fill:#898989"
       aria-label="n" />
    <path
       d="m 1990.2628,916.82007 h -9.92 l -23.312,-74.896 -23.56,74.896 h -9.92 l 29.016,-88.288 h 8.68 z"
       id="text47"
       style="font-weight:700;font-size:124px;font-family:'Protomolecule Regular', 'Protomolecule Regular_MSFontService', sans-serif;fill:#898989"
       aria-label="a" />
    <path
       d="m 2006.7547,908.38807 h 33.48 q 6.324,0 12.028,-4.588 5.704,-4.712 5.704,-11.656 0,-7.44 -4.836,-11.78 -4.712,-4.34 -12.896,-4.34 h -33.48 v -8.432 h 32.488 q 7.688,0 12.524,-3.844 4.836,-3.968 4.836,-11.532 0,-7.564 -4.836,-11.408 -4.712,-3.844 -12.524,-3.844 h -32.488 v -8.432 h 33.232 q 11.656,0 18.848,6.324 7.192,6.324 7.192,17.236 0,6.82 -3.72,12.028 -3.596,5.208 -9.3,7.316 6.572,2.356 10.416,7.812 3.968,5.456 3.968,13.144 0,11.78 -7.192,18.104 -7.068,6.324 -19.096,6.324 h -34.348 z"
       id="text46"
       style="font-weight:700;font-size:124px;font-family:'Protomolecule Regular', 'Protomolecule Regular_MSFontService', sans-serif;fill:#898989"
       aria-label="b" />
    <path
       d="m 2144.1467,916.82007 h -54.56 v -88.288 h 9.424 v 79.856 h 45.136 z"
       id="text45"
       style="font-weight:700;font-size:124px;font-family:'Protomolecule Regular', 'Protomolecule Regular_MSFontService', sans-serif;fill:#898989"
       aria-label="l" />
    <path
       d="m 2159.3987,828.53207 h 54.808 v 8.432 h -54.808 z m 0,39.556 h 48.112 v 8.432 h -48.112 z m 0,40.3 h 54.808 v 8.432 h -54.808 z"
       id="text44"
       style="font-weight:700;font-size:124px;font-family:'Protomolecule Regular', 'Protomolecule Regular_MSFontService', sans-serif;fill:#898989"
       aria-label="e" />
    <path
       d="m 1178.2237,916.82007 h -22 l -51.7,-166.1 -52.25,166.1 h -22 l 64.35,-195.8 h 19.25 z"
       id="text43"
       style="font-weight:700;font-size:275px;font-family:'Protomolecule Regular', 'Protomolecule Regular_MSFontService', sans-serif;fill:#898989"
       aria-label="a" />
    <path
       d="m 1235.6988,916.82007 h -20.9 v -195.8 h 20.9 z"
       id="text42"
       style="font-weight:700;font-size:275px;font-family:'Protomolecule Regular', 'Protomolecule Regular_MSFontService', sans-serif;fill:#898989"
       aria-label="i" />
    <path
       d="m 1396.5737,885.74507 h -23.925 v 31.075 h -19.525 v -31.075 h -78.1 v -17.875 l 70.675,-146.85 h 21.175 l -70.675,146.85 h 56.925 v -55.55 h 19.525 v 55.55 h 23.925 z"
       id="text41"
       style="font-weight:700;font-size:275px;font-family:'Protomolecule Regular', 'Protomolecule Regular_MSFontService', sans-serif;fill:#898989"
       aria-label="4" />
    <path
       d="m 1488.5293,788.20954 q -2.356,12.276 -10.54,19.344 -8.184,6.944 -20.088,6.944 -13.392,0 -22.072,-8.68 -5.828,-5.828 -7.316,-12.772 -1.488,-6.944 -1.488,-23.436 0,-16.492 1.488,-23.436 1.488,-6.944 7.316,-12.772 8.68,-8.68 22.072,-8.68 12.028,0 20.088,6.944 8.184,6.944 10.54,19.344 h -9.672 q -1.736,-8.308 -7.316,-13.02 -5.456,-4.836 -13.64,-4.836 -9.052,0 -15.252,6.2 -3.968,4.092 -5.084,10.044 -1.116,5.828 -1.116,20.212 0,14.384 1.116,20.336 1.116,5.828 5.084,9.92 6.2,6.2 15.252,6.2 8.184,0 13.764,-4.712 5.704,-4.836 7.44,-13.144 z"
       id="text40"
       style="font-weight:700;font-size:124px;font-family:'Protomolecule Regular', 'Protomolecule Regular_MSFontService', sans-serif;fill:#898989"
       aria-label="c" />
    <path
       d="m 1560.3775,746.29754 q 1.488,6.944 1.488,23.312 0,16.368 -1.488,23.312 -1.488,6.944 -7.44,12.896 -8.68,8.68 -21.948,8.68 -13.392,0 -22.072,-8.68 -5.828,-5.828 -7.316,-12.772 -1.488,-6.944 -1.488,-23.436 0,-16.492 1.488,-23.436 1.488,-6.944 7.316,-12.772 8.68,-8.68 22.072,-8.68 13.268,0 21.948,8.68 5.952,5.952 7.44,12.896 z m -9.052,43.648 q 1.116,-5.952 1.116,-20.336 0,-14.384 -1.116,-20.212 -1.116,-5.952 -5.084,-10.044 -6.2,-6.2 -15.252,-6.2 -9.052,0 -15.252,6.2 -3.968,4.092 -5.084,10.044 -1.116,5.828 -1.116,20.212 0,14.384 1.116,20.336 1.116,5.828 5.084,9.92 6.2,6.2 15.252,6.2 9.052,0 15.252,-6.2 3.968,-4.092 5.084,-9.92 z"
       id="text39"
       style="font-weight:700;font-size:124px;font-family:'Protomolecule Regular', 'Protomolecule Regular_MSFontService', sans-serif;fill:#898989"
       aria-label="o" />
    <path
       d="m 1636.9463,813.75354 h -8.928 l -46.872,-70.804 v 70.804 h -9.424 v -88.288 h 8.928 l 46.872,70.556 v -70.556 h 9.424 z"
       id="text38"
       style="font-weight:700;font-size:124px;font-family:'Protomolecule Regular', 'Protomolecule Regular_MSFontService', sans-serif;fill:#898989"
       aria-label="n" />
    <path
       d="m 1706.2875,789.44954 q 0,11.532 -8.308,18.352 -8.308,6.696 -22.196,6.696 -9.92,0 -16.988,-2.728 -7.068,-2.728 -13.144,-8.928 l 6.324,-6.324 q 5.332,5.332 10.788,7.44 5.58,2.108 13.268,2.108 9.796,0 15.376,-4.216 5.58,-4.34 5.58,-12.152 0,-7.192 -4.34,-11.036 -3.348,-3.1 -11.532,-4.34 l -10.292,-1.488 q -10.416,-1.612 -16.12,-6.696 -6.82,-6.076 -6.82,-16.616 0,-11.284 7.564,-17.98 7.688,-6.82 20.708,-6.82 8.308,0 14.384,2.356 6.2,2.232 11.904,7.316 l -6.076,6.076 q -8.06,-7.688 -20.584,-7.688 -8.804,0 -13.764,4.464 -4.96,4.464 -4.96,12.028 0,6.82 3.968,10.292 3.844,3.348 11.532,4.588 l 10.292,1.612 q 6.2,0.992 9.548,2.356 3.472,1.24 6.448,3.968 7.44,6.448 7.44,17.36 z"
       id="text37"
       style="font-weight:700;font-size:124px;font-family:'Protomolecule Regular', 'Protomolecule Regular_MSFontService', sans-serif;fill:#898989"
       aria-label="s" />
    <path
       d="m 1771.4742,733.89754 h -25.544 v 79.856 h -9.424 v -79.856 h -25.544 v -8.432 h 60.512 z"
       id="text36"
       style="font-weight:700;font-size:124px;font-family:'Protomolecule Regular', 'Protomolecule Regular_MSFontService', sans-serif;fill:#898989"
       aria-label="t" />
    <path
       d="m 1780.1793,766.26154 h 32.984 q 8.06,0 12.772,-4.092 4.836,-4.216 4.836,-12.028 0,-7.812 -4.836,-12.028 -4.836,-4.216 -12.772,-4.216 h -32.984 v -8.432 h 33.852 q 11.656,0 18.848,6.696 7.316,6.572 7.316,17.856 0,9.424 -5.208,15.624 -5.208,6.2 -14.012,8.06 l 20.956,40.052 h -11.036 l -20.088,-39.184 h -21.204 v 39.184 h -9.424 z"
       id="text35"
       style="font-weight:700;font-size:124px;font-family:'Protomolecule Regular', 'Protomolecule Regular_MSFontService', sans-serif;fill:#898989"
       aria-label="r" />
    <path
       d="m 1912.2646,784.61354 q 0,13.144 -8.804,21.576 -8.68,8.308 -22.072,8.308 -13.392,0 -22.072,-8.308 -8.68,-8.432 -8.68,-21.576 v -59.148 h 9.424 v 58.404 q 0,10.044 5.828,16.12 5.828,6.076 15.5,6.076 9.672,0 15.5,-6.076 5.952,-6.076 5.952,-16.12 v -58.404 h 9.424 z"
       id="text34"
       style="font-weight:700;font-size:124px;font-family:'Protomolecule Regular', 'Protomolecule Regular_MSFontService', sans-serif;fill:#898989"
       aria-label="u" />
    <path
       d="m 1982.4738,788.20954 q -2.356,12.276 -10.54,19.344 -8.184,6.944 -20.088,6.944 -13.392,0 -22.072,-8.68 -5.828,-5.828 -7.316,-12.772 -1.488,-6.944 -1.488,-23.436 0,-16.492 1.488,-23.436 1.488,-6.944 7.316,-12.772 8.68,-8.68 22.072,-8.68 12.028,0 20.088,6.944 8.184,6.944 10.54,19.344 h -9.672 q -1.736,-8.308 -7.316,-13.02 -5.456,-4.836 -13.64,-4.836 -9.052,0 -15.252,6.2 -3.968,4.092 -5.084,10.044 -1.116,5.828 -1.116,20.212 0,14.384 1.116,20.336 1.116,5.828 5.084,9.92 6.2,6.2 15.252,6.2 8.184,0 13.764,-4.712 5.704,-4.836 7.44,-13.144 z"
       id="text33"
       style="font-weight:700;font-size:124px;font-family:'Protomolecule Regular', 'Protomolecule Regular_MSFontService', sans-serif;fill:#898989"
       aria-label="c" />
    <path
       d="m 2047.6606,733.89754 h -25.544 v 79.856 h -9.424 v -79.856 h -25.544 v -8.432 h 60.512 z"
       id="text32"
       style="font-weight:700;font-size:124px;font-family:'Protomolecule Regular', 'Protomolecule Regular_MSFontService', sans-serif;fill:#898989"
       aria-label="t" />
    <path
       d="m 2067.517,813.75354 h -9.424 v -88.288 h 9.424 z"
       id="text31"
       style="font-weight:700;font-size:124px;font-family:'Protomolecule Regular', 'Protomolecule Regular_MSFontService', sans-serif;fill:#898989"
       aria-label="i" />
    <path
       d="m 2138.7896,746.29754 q 1.488,6.944 1.488,23.312 0,16.368 -1.488,23.312 -1.488,6.944 -7.44,12.896 -8.68,8.68 -21.948,8.68 -13.392,0 -22.072,-8.68 -5.828,-5.828 -7.316,-12.772 -1.488,-6.944 -1.488,-23.436 0,-16.492 1.488,-23.436 1.488,-6.944 7.316,-12.772 8.68,-8.68 22.072,-8.68 13.268,0 21.948,8.68 5.952,5.952 7.44,12.896 z m -9.052,43.648 q 1.116,-5.952 1.116,-20.336 0,-14.384 -1.116,-20.212 -1.116,-5.952 -5.084,-10.044 -6.2,-6.2 -15.252,-6.2 -9.052,0 -15.252,6.2 -3.968,4.092 -5.084,10.044 -1.116,5.828 -1.116,20.212 0,14.384 1.116,20.336 1.116,5.828 5.084,9.92 6.2,6.2 15.252,6.2 9.052,0 15.252,-6.2 3.968,-4.092 5.084,-9.92 z"
       id="text30"
       style="font-weight:700;font-size:124px;font-family:'Protomolecule Regular', 'Protomolecule Regular_MSFontService', sans-serif;fill:#898989"
       aria-label="o" />
    <path
       d="m 2214.2067,813.75354 h -8.928 l -46.872,-70.804 v 70.804 h -9.424 v -88.288 h 8.928 l 46.872,70.556 v -70.556 h 9.424 z"
       id="text29"
       style="font-weight:700;font-size:124px;font-family:'Protomolecule Regular', 'Protomolecule Regular_MSFontService', sans-serif;fill:#898989"
       aria-label="n" />
  </g>
</svg>
