<svg width="1879" height="1591" xmlns="http://www.w3.org/2000/svg" xmlns:xlink="http://www.w3.org/1999/xlink" xml:space="preserve" overflow="hidden"><g transform="translate(-1191 -123)"><g><rect x="1192" y="1260" width="916" height="135" fill="#2E75B6" fill-opacity="1"/><text fill="#FFFFFF" fill-opacity="1" font-family="DIN Pro Regular,DIN Pro Regular_MSFontService,sans-serif" font-style="normal" font-variant="normal" font-weight="400" font-stretch="normal" font-size="62" text-anchor="start" direction="ltr" writing-mode="lr-tb" unicode-bidi="normal" text-decoration="none" transform="matrix(1 0 0 1 1269.3 1314)">Virtuelle Laufzeitumgebung </text><text fill="#FFFFFF" fill-opacity="1" font-family="DIN Pro Regular,DIN Pro Regular_MSFontService,sans-serif" font-style="normal" font-variant="normal" font-weight="400" font-stretch="normal" font-size="62" text-anchor="start" direction="ltr" writing-mode="lr-tb" unicode-bidi="normal" text-decoration="none" transform="matrix(1 0 0 1 1589.56 1389)">(VM)</text><rect x="1192" y="1110" width="916" height="135" fill="#ED7D31" fill-opacity="1"/><text fill="#FFFFFF" fill-opacity="1" font-family="DIN Pro Regular,DIN Pro Regular_MSFontService,sans-serif" font-style="normal" font-variant="normal" font-weight="400" font-stretch="normal" font-size="62" text-anchor="start" direction="ltr" writing-mode="lr-tb" unicode-bidi="normal" text-decoration="none" transform="matrix(1 0 0 1 1502.76 1201)">Webserver</text><rect x="1192" y="1417" width="916" height="135" fill="#5B9BD5" fill-opacity="1"/><text fill="#FFFFFF" fill-opacity="1" font-family="DIN Pro Regular,DIN Pro Regular_MSFontService,sans-serif" font-style="normal" font-variant="normal" font-weight="400" font-stretch="normal" font-size="62" text-anchor="start" direction="ltr" writing-mode="lr-tb" unicode-bidi="normal" text-decoration="none" transform="matrix(1 0 0 1 1434.87 1508)">Betriebssystem</text><rect x="1192" y="1572" width="916" height="136" fill="#4472C4" fill-opacity="1"/><text fill="#FFFFFF" fill-opacity="1" font-family="DIN Pro Regular,DIN Pro Regular_MSFontService,sans-serif" font-style="normal" font-variant="normal" font-weight="400" font-stretch="normal" font-size="62" text-anchor="start" direction="ltr" writing-mode="lr-tb" unicode-bidi="normal" text-decoration="none" transform="matrix(1 0 0 1 1514.51 1663)">Hardware</text><rect x="1192" y="437" width="916" height="135" fill="#2E75B6" fill-opacity="1"/><text fill="#FFFFFF" fill-opacity="1" font-family="DIN Pro Regular,DIN Pro Regular_MSFontService,sans-serif" font-style="normal" font-variant="normal" font-weight="400" font-stretch="normal" font-size="62" text-anchor="start" direction="ltr" writing-mode="lr-tb" unicode-bidi="normal" text-decoration="none" transform="matrix(1 0 0 1 1440.6 527)">VM im Browser</text><rect x="1192" y="287" width="916" height="135" fill="#203864" fill-opacity="1"/><text fill="#FFFFFF" fill-opacity="1" font-family="DIN Pro Regular,DIN Pro Regular_MSFontService,sans-serif" font-style="normal" font-variant="normal" font-weight="400" font-stretch="normal" font-size="62" text-anchor="start" direction="ltr" writing-mode="lr-tb" unicode-bidi="normal" text-decoration="none" transform="matrix(1 0 0 1 1467.81 340)">Programm in </text><text fill="#FFFFFF" fill-opacity="1" font-family="DIN Pro Regular,DIN Pro Regular_MSFontService,sans-serif" font-style="normal" font-variant="normal" font-weight="400" font-stretch="normal" font-size="62" text-anchor="start" direction="ltr" writing-mode="lr-tb" unicode-bidi="normal" text-decoration="none" transform="matrix(1 0 0 1 1479.84 415)">Websprache</text><rect x="1192" y="594" width="916" height="135" fill="#5B9BD5" fill-opacity="1"/><text fill="#FFFFFF" fill-opacity="1" font-family="DIN Pro Regular,DIN Pro Regular_MSFontService,sans-serif" font-style="normal" font-variant="normal" font-weight="400" font-stretch="normal" font-size="62" text-anchor="start" direction="ltr" writing-mode="lr-tb" unicode-bidi="normal" text-decoration="none" transform="matrix(1 0 0 1 1434.87 684)">Betriebssystem</text><rect x="1192" y="749" width="916" height="135" fill="#4472C4" fill-opacity="1"/><text fill="#FFFFFF" fill-opacity="1" font-family="DIN Pro Regular,DIN Pro Regular_MSFontService,sans-serif" font-style="normal" font-variant="normal" font-weight="400" font-stretch="normal" font-size="62" text-anchor="start" direction="ltr" writing-mode="lr-tb" unicode-bidi="normal" text-decoration="none" transform="matrix(1 0 0 1 1514.51 839)">Hardware</text><rect x="2158" y="437" width="272" height="135" fill="#2E75B6" fill-opacity="1"/><text fill="#FFFFFF" fill-opacity="1" font-family="DIN Pro Regular,DIN Pro Regular_MSFontService,sans-serif" font-style="normal" font-variant="normal" font-weight="400" font-stretch="normal" font-size="62" text-anchor="start" direction="ltr" writing-mode="lr-tb" unicode-bidi="normal" text-decoration="none" transform="matrix(1 0 0 1 2251.68 527)">VM</text><rect x="2158" y="287" width="272" height="135" fill="#FFC000" fill-opacity="1"/><text fill="#FFFFFF" fill-opacity="1" font-family="DIN Pro Regular,DIN Pro Regular_MSFontService,sans-serif" font-style="normal" font-variant="normal" font-weight="400" font-stretch="normal" font-size="62" text-anchor="start" direction="ltr" writing-mode="lr-tb" unicode-bidi="normal" text-decoration="none" transform="matrix(1 0 0 1 2241.08 377)">App</text><rect x="2158" y="594" width="272" height="135" fill="#5B9BD5" fill-opacity="1"/><text fill="#FFFFFF" fill-opacity="1" font-family="DIN Pro Regular,DIN Pro Regular_MSFontService,sans-serif" font-style="normal" font-variant="normal" font-weight="400" font-stretch="normal" font-size="62" text-anchor="start" direction="ltr" writing-mode="lr-tb" unicode-bidi="normal" text-decoration="none" transform="matrix(1 0 0 1 2255.4 684)">OS</text><rect x="2158" y="749" width="272" height="135" fill="#4472C4" fill-opacity="1"/><text fill="#FFFFFF" fill-opacity="1" font-family="DIN Pro Regular,DIN Pro Regular_MSFontService,sans-serif" font-style="normal" font-variant="normal" font-weight="400" font-stretch="normal" font-size="62" text-anchor="start" direction="ltr" writing-mode="lr-tb" unicode-bidi="normal" text-decoration="none" transform="matrix(1 0 0 1 2245.95 839)">HW</text><rect x="2480" y="437" width="271" height="135" fill="#2E75B6" fill-opacity="1"/><text fill="#FFFFFF" fill-opacity="1" font-family="DIN Pro Regular,DIN Pro Regular_MSFontService,sans-serif" font-style="normal" font-variant="normal" font-weight="400" font-stretch="normal" font-size="62" text-anchor="start" direction="ltr" writing-mode="lr-tb" unicode-bidi="normal" text-decoration="none" transform="matrix(1 0 0 1 2573.27 527)">VM</text><rect x="2480" y="287" width="271" height="135" fill="#FFC000" fill-opacity="1"/><text fill="#FFFFFF" fill-opacity="1" font-family="DIN Pro Regular,DIN Pro Regular_MSFontService,sans-serif" font-style="normal" font-variant="normal" font-weight="400" font-stretch="normal" font-size="62" text-anchor="start" direction="ltr" writing-mode="lr-tb" unicode-bidi="normal" text-decoration="none" transform="matrix(1 0 0 1 2562.67 377)">App</text><rect x="2480" y="594" width="271" height="135" fill="#5B9BD5" fill-opacity="1"/><text fill="#FFFFFF" fill-opacity="1" font-family="DIN Pro Regular,DIN Pro Regular_MSFontService,sans-serif" font-style="normal" font-variant="normal" font-weight="400" font-stretch="normal" font-size="62" text-anchor="start" direction="ltr" writing-mode="lr-tb" unicode-bidi="normal" text-decoration="none" transform="matrix(1 0 0 1 2576.99 684)">OS</text><rect x="2480" y="749" width="271" height="135" fill="#4472C4" fill-opacity="1"/><text fill="#FFFFFF" fill-opacity="1" font-family="DIN Pro Regular,DIN Pro Regular_MSFontService,sans-serif" font-style="normal" font-variant="normal" font-weight="400" font-stretch="normal" font-size="62" text-anchor="start" direction="ltr" writing-mode="lr-tb" unicode-bidi="normal" text-decoration="none" transform="matrix(1 0 0 1 2567.54 839)">HW</text><rect x="2795" y="437" width="272" height="135" fill="#2E75B6" fill-opacity="1"/><text fill="#FFFFFF" fill-opacity="1" font-family="DIN Pro Regular,DIN Pro Regular_MSFontService,sans-serif" font-style="normal" font-variant="normal" font-weight="400" font-stretch="normal" font-size="62" text-anchor="start" direction="ltr" writing-mode="lr-tb" unicode-bidi="normal" text-decoration="none" transform="matrix(1 0 0 1 2888.62 528)">VM</text><rect x="2795" y="287" width="272" height="135" fill="#FFC000" fill-opacity="1"/><text fill="#FFFFFF" fill-opacity="1" font-family="DIN Pro Regular,DIN Pro Regular_MSFontService,sans-serif" font-style="normal" font-variant="normal" font-weight="400" font-stretch="normal" font-size="62" text-anchor="start" direction="ltr" writing-mode="lr-tb" unicode-bidi="normal" text-decoration="none" transform="matrix(1 0 0 1 2878.02 378)">App</text><rect x="2795" y="594" width="272" height="135" fill="#5B9BD5" fill-opacity="1"/><text fill="#FFFFFF" fill-opacity="1" font-family="DIN Pro Regular,DIN Pro Regular_MSFontService,sans-serif" font-style="normal" font-variant="normal" font-weight="400" font-stretch="normal" font-size="62" text-anchor="start" direction="ltr" writing-mode="lr-tb" unicode-bidi="normal" text-decoration="none" transform="matrix(1 0 0 1 2892.34 685)">OS</text><rect x="2795" y="749" width="272" height="136" fill="#4472C4" fill-opacity="1"/><text fill="#FFFFFF" fill-opacity="1" font-family="DIN Pro Regular,DIN Pro Regular_MSFontService,sans-serif" font-style="normal" font-variant="normal" font-weight="400" font-stretch="normal" font-size="62" text-anchor="start" direction="ltr" writing-mode="lr-tb" unicode-bidi="normal" text-decoration="none" transform="matrix(1 0 0 1 2882.89 840)">HW</text><g><g><g><path d="M2314.62 243.667 2273.37 243.667 2273.37 170.333 2314.62 170.333 2314.62 243.667ZM2289.42 161.167 2298.58 161.167C2299.84 161.167 2300.87 162.198 2300.87 163.458 2300.87 164.719 2299.84 165.75 2298.58 165.75L2289.42 165.75C2288.16 165.75 2287.12 164.719 2287.12 163.458 2287.12 162.198 2288.16 161.167 2289.42 161.167ZM2319.21 156.583 2268.79 156.583C2267.53 156.583 2266.5 157.615 2266.5 158.875L2266.5 255.125C2266.5 256.385 2267.53 257.417 2268.79 257.417L2319.21 257.417C2320.47 257.417 2321.5 256.385 2321.5 255.125L2321.5 158.875C2321.5 157.615 2320.47 156.583 2319.21 156.583Z" fill="#000000" fill-rule="nonzero" fill-opacity="1"/></g></g></g><g><g><g><path d="M75.625 91.6667 34.375 91.6667 34.375 18.3333 75.625 18.3333 75.625 91.6667ZM50.4167 9.16667 59.5833 9.16667C60.8438 9.16667 61.875 10.1979 61.875 11.4583 61.875 12.7188 60.8438 13.75 59.5833 13.75L50.4167 13.75C49.1563 13.75 48.125 12.7188 48.125 11.4583 48.125 10.1979 49.1563 9.16667 50.4167 9.16667ZM80.2083 4.58333 29.7917 4.58333C28.5312 4.58333 27.5 5.61458 27.5 6.875L27.5 103.125C27.5 104.385 28.5312 105.417 29.7917 105.417L80.2083 105.417C81.4688 105.417 82.5 104.385 82.5 103.125L82.5 6.875C82.5 5.61458 81.4688 4.58333 80.2083 4.58333Z" fill="#000000" fill-rule="nonzero" fill-opacity="1" transform="matrix(1.00909 0 0 1 2560 152)"/></g></g></g><g><g><g><path d="M75.625 91.6667 34.375 91.6667 34.375 18.3333 75.625 18.3333 75.625 91.6667ZM50.4167 9.16667 59.5833 9.16667C60.8438 9.16667 61.875 10.1979 61.875 11.4583 61.875 12.7188 60.8438 13.75 59.5833 13.75L50.4167 13.75C49.1563 13.75 48.125 12.7188 48.125 11.4583 48.125 10.1979 49.1563 9.16667 50.4167 9.16667ZM80.2083 4.58333 29.7917 4.58333C28.5312 4.58333 27.5 5.61458 27.5 6.875L27.5 103.125C27.5 104.385 28.5312 105.417 29.7917 105.417L80.2083 105.417C81.4688 105.417 82.5 104.385 82.5 103.125L82.5 6.875C82.5 5.61458 81.4688 4.58333 80.2083 4.58333Z" fill="#000000" fill-rule="nonzero" fill-opacity="1" transform="matrix(1.00909 0 0 1 2871 152)"/></g></g></g><g><g><g><path d="M1694.92 221.25 1605.08 221.25 1605.08 166.708 1694.92 166.708ZM1704.54 163.5C1704.54 159.956 1701.67 157.083 1698.12 157.083L1601.88 157.083C1598.33 157.083 1595.46 159.956 1595.46 163.5L1595.46 230.875 1704.54 230.875Z" fill="#000000" fill-rule="nonzero" fill-opacity="1"/><path d="M1659.62 237.292 1659.62 238.896C1659.68 239.727 1659.05 240.445 1658.22 240.5 1658.15 240.504 1658.09 240.504 1658.02 240.5L1641.98 240.5C1641.15 240.555 1640.43 239.926 1640.38 239.095 1640.37 239.029 1640.37 238.962 1640.38 238.896L1640.38 237.292 1576.21 237.292 1576.21 240.5C1576.21 244.044 1579.08 246.917 1582.62 246.917L1717.38 246.917C1720.92 246.917 1723.79 244.044 1723.79 240.5L1723.79 237.292Z" fill="#000000" fill-rule="nonzero" fill-opacity="1"/><path d="M1650 171.521C1637.6 171.521 1627.54 181.576 1627.54 193.979 1627.54 206.383 1637.6 216.438 1650 216.438 1662.4 216.438 1672.46 206.383 1672.46 193.979 1672.46 181.576 1662.4 171.521 1650 171.521ZM1651.6 195.583 1658.97 195.583C1658.13 201.114 1655.55 206.233 1651.6 210.197ZM1651.6 192.375 1651.6 177.745C1655.55 181.714 1658.13 186.839 1658.97 192.375ZM1648.4 192.375 1641.27 192.375C1642.07 186.934 1644.56 181.882 1648.4 177.938ZM1648.4 195.583 1648.4 210.021C1644.57 206.072 1642.08 201.022 1641.27 195.583ZM1638.05 192.375 1631.18 192.375C1631.9 183.973 1638.1 177.063 1646.37 175.451 1641.8 180.015 1638.87 185.967 1638.05 192.375ZM1638.05 195.583C1638.87 202.002 1641.81 207.963 1646.41 212.523 1638.12 210.913 1631.9 203.997 1631.18 195.583ZM1662.19 195.583 1668.82 195.583C1668.11 203.891 1662.04 210.752 1653.88 212.459 1658.45 207.916 1661.38 201.977 1662.19 195.583ZM1662.19 192.375C1661.37 185.999 1658.47 180.072 1653.93 175.515 1662.07 177.24 1668.11 184.088 1668.82 192.375Z" fill="#000000" fill-rule="nonzero" fill-opacity="1"/></g></g></g></g></g></svg>