<svg width="1907" height="1591" xmlns="http://www.w3.org/2000/svg" xmlns:xlink="http://www.w3.org/1999/xlink" xml:space="preserve" overflow="hidden"><g transform="translate(-201 -123)"><g><rect x="1192" y="1260" width="916" height="135" fill="#2E75B6" fill-opacity="1"/><text fill="#FFFFFF" fill-opacity="1" font-family="DIN Pro Regular,DIN Pro Regular_MSFontService,sans-serif" font-style="normal" font-variant="normal" font-weight="400" font-stretch="normal" font-size="62" text-anchor="start" direction="ltr" writing-mode="lr-tb" unicode-bidi="normal" text-decoration="none" transform="matrix(1 0 0 1 1269.3 1314)">Virtuelle Laufzeitumgebung </text><text fill="#FFFFFF" fill-opacity="1" font-family="DIN Pro Regular,DIN Pro Regular_MSFontService,sans-serif" font-style="normal" font-variant="normal" font-weight="400" font-stretch="normal" font-size="62" text-anchor="start" direction="ltr" writing-mode="lr-tb" unicode-bidi="normal" text-decoration="none" transform="matrix(1 0 0 1 1589.56 1389)">(VM)</text><text fill="#000000" fill-opacity="1" font-family="DIN Pro Regular,DIN Pro Regular_MSFontService,sans-serif" font-style="normal" font-variant="normal" font-weight="400" font-stretch="normal" font-size="62" text-anchor="start" direction="ltr" writing-mode="lr-tb" unicode-bidi="normal" text-decoration="none" transform="matrix(1 0 0 1 448.97 1396)">Server </text><text fill="#000000" fill-opacity="1" font-family="DIN Pro Regular,DIN Pro Regular_MSFontService,sans-serif" font-style="normal" font-variant="normal" font-weight="400" font-stretch="normal" font-size="62" text-anchor="start" direction="ltr" writing-mode="lr-tb" unicode-bidi="normal" text-decoration="none" transform="matrix(1 0 0 1 242.72 1471)">Programmiersprache </text><text fill="#000000" fill-opacity="1" font-family="DIN Pro Regular,DIN Pro Regular_MSFontService,sans-serif" font-style="normal" font-variant="normal" font-weight="400" font-stretch="normal" font-size="62" text-anchor="start" direction="ltr" writing-mode="lr-tb" unicode-bidi="normal" text-decoration="none" transform="matrix(1 0 0 1 264.215 1545)">(PHP, Java, Perl, Go)</text><path d="M618.333 1303 625.466 1274.47 654 1267.33 618.333 1303 440 1303 440 1040 654 1040 654 1267.33" stroke="#44546A" stroke-width="13.75" stroke-linecap="butt" stroke-linejoin="miter" stroke-miterlimit="8" stroke-opacity="1" fill="none" fill-rule="evenodd"/><path d="M469 1088 624.923 1088" stroke="#44546A" stroke-width="13.75" stroke-linecap="butt" stroke-linejoin="miter" stroke-miterlimit="8" stroke-opacity="1" fill="none" fill-rule="evenodd"/><path d="M469 1130 624.923 1130" stroke="#44546A" stroke-width="13.75" stroke-linecap="butt" stroke-linejoin="miter" stroke-miterlimit="8" stroke-opacity="1" fill="none" fill-rule="evenodd"/><path d="M469 1166 624.923 1166" stroke="#44546A" stroke-width="13.75" stroke-linecap="butt" stroke-linejoin="miter" stroke-miterlimit="8" stroke-opacity="1" fill="none" fill-rule="evenodd"/><path d="M469 1205 624.923 1205" stroke="#44546A" stroke-width="13.75" stroke-linecap="butt" stroke-linejoin="miter" stroke-miterlimit="8" stroke-opacity="1" fill="none" fill-rule="evenodd"/><path d="M469 1244 624.923 1244" stroke="#44546A" stroke-width="13.75" stroke-linecap="butt" stroke-linejoin="miter" stroke-miterlimit="8" stroke-opacity="1" fill="none" fill-rule="evenodd"/><rect x="1192" y="1110" width="916" height="135" fill="#203864" fill-opacity="1"/><text fill="#FFFFFF" fill-opacity="1" font-family="DIN Pro Regular,DIN Pro Regular_MSFontService,sans-serif" font-style="normal" font-variant="normal" font-weight="400" font-stretch="normal" font-size="62" text-anchor="start" direction="ltr" writing-mode="lr-tb" unicode-bidi="normal" text-decoration="none" transform="matrix(1 0 0 1 1502.76 1201)">Webserver</text><rect x="1192" y="1417" width="916" height="135" fill="#5B9BD5" fill-opacity="1"/><text fill="#FFFFFF" fill-opacity="1" font-family="DIN Pro Regular,DIN Pro Regular_MSFontService,sans-serif" font-style="normal" font-variant="normal" font-weight="400" font-stretch="normal" font-size="62" text-anchor="start" direction="ltr" writing-mode="lr-tb" unicode-bidi="normal" text-decoration="none" transform="matrix(1 0 0 1 1434.87 1508)">Betriebssystem</text><rect x="1192" y="1572" width="916" height="136" fill="#4472C4" fill-opacity="1"/><text fill="#FFFFFF" fill-opacity="1" font-family="DIN Pro Regular,DIN Pro Regular_MSFontService,sans-serif" font-style="normal" font-variant="normal" font-weight="400" font-stretch="normal" font-size="62" text-anchor="start" direction="ltr" writing-mode="lr-tb" unicode-bidi="normal" text-decoration="none" transform="matrix(1 0 0 1 1514.51 1663)">Hardware</text><rect x="1192" y="437" width="916" height="135" fill="#2E75B6" fill-opacity="1"/><text fill="#FFFFFF" fill-opacity="1" font-family="DIN Pro Regular,DIN Pro Regular_MSFontService,sans-serif" font-style="normal" font-variant="normal" font-weight="400" font-stretch="normal" font-size="62" text-anchor="start" direction="ltr" writing-mode="lr-tb" unicode-bidi="normal" text-decoration="none" transform="matrix(1 0 0 1 1440.6 527)">VM im Browser</text><rect x="1192" y="287" width="916" height="135" fill="#203864" fill-opacity="1"/><text fill="#FFFFFF" fill-opacity="1" font-family="DIN Pro Regular,DIN Pro Regular_MSFontService,sans-serif" font-style="normal" font-variant="normal" font-weight="400" font-stretch="normal" font-size="62" text-anchor="start" direction="ltr" writing-mode="lr-tb" unicode-bidi="normal" text-decoration="none" transform="matrix(1 0 0 1 1467.81 340)">Programm in </text><text fill="#FFFFFF" fill-opacity="1" font-family="DIN Pro Regular,DIN Pro Regular_MSFontService,sans-serif" font-style="normal" font-variant="normal" font-weight="400" font-stretch="normal" font-size="62" text-anchor="start" direction="ltr" writing-mode="lr-tb" unicode-bidi="normal" text-decoration="none" transform="matrix(1 0 0 1 1479.84 415)">Websprache</text><rect x="1192" y="594" width="916" height="135" fill="#5B9BD5" fill-opacity="1"/><text fill="#FFFFFF" fill-opacity="1" font-family="DIN Pro Regular,DIN Pro Regular_MSFontService,sans-serif" font-style="normal" font-variant="normal" font-weight="400" font-stretch="normal" font-size="62" text-anchor="start" direction="ltr" writing-mode="lr-tb" unicode-bidi="normal" text-decoration="none" transform="matrix(1 0 0 1 1434.87 684)">Betriebssystem</text><rect x="1192" y="749" width="916" height="135" fill="#4472C4" fill-opacity="1"/><text fill="#FFFFFF" fill-opacity="1" font-family="DIN Pro Regular,DIN Pro Regular_MSFontService,sans-serif" font-style="normal" font-variant="normal" font-weight="400" font-stretch="normal" font-size="62" text-anchor="start" direction="ltr" writing-mode="lr-tb" unicode-bidi="normal" text-decoration="none" transform="matrix(1 0 0 1 1514.51 839)">Hardware</text><path d="M747 1147 1034 1147 1034 1114 1100 1180 1034 1246 1034 1213 747 1213Z" fill="#4472C4" fill-rule="evenodd" fill-opacity="1"/><text fill="#FFFFFF" fill-opacity="1" font-family="DIN Pro Regular,DIN Pro Regular_MSFontService,sans-serif" font-style="normal" font-variant="normal" font-weight="400" font-stretch="normal" font-size="55" text-anchor="start" direction="ltr" writing-mode="lr-tb" unicode-bidi="normal" text-decoration="none" transform="matrix(1 0 0 1 785.991 1201)">speichern</text><text fill="#000000" fill-opacity="1" font-family="DIN Pro Regular,DIN Pro Regular_MSFontService,sans-serif" font-style="normal" font-variant="normal" font-weight="400" font-stretch="normal" font-size="62" text-anchor="start" direction="ltr" writing-mode="lr-tb" unicode-bidi="normal" text-decoration="none" transform="matrix(1 0 0 1 479.907 563)">Web </text><text fill="#000000" fill-opacity="1" font-family="DIN Pro Regular,DIN Pro Regular_MSFontService,sans-serif" font-style="normal" font-variant="normal" font-weight="400" font-stretch="normal" font-size="62" text-anchor="start" direction="ltr" writing-mode="lr-tb" unicode-bidi="normal" text-decoration="none" transform="matrix(1 0 0 1 242.719 638)">Programmiersprache </text><text fill="#000000" fill-opacity="1" font-family="DIN Pro Regular,DIN Pro Regular_MSFontService,sans-serif" font-style="normal" font-variant="normal" font-weight="400" font-stretch="normal" font-size="62" text-anchor="start" direction="ltr" writing-mode="lr-tb" unicode-bidi="normal" text-decoration="none" transform="matrix(1 0 0 1 288.278 712)">(HTML, JavaScript)</text><path d="M618.333 469 625.466 440.466 654 433.332 618.333 469 440 469 440 207 654 207 654 433.332" stroke="#44546A" stroke-width="13.75" stroke-linecap="butt" stroke-linejoin="miter" stroke-miterlimit="8" stroke-opacity="1" fill="none" fill-rule="evenodd"/><path d="M469 255 624.923 255" stroke="#44546A" stroke-width="13.75" stroke-linecap="butt" stroke-linejoin="miter" stroke-miterlimit="8" stroke-opacity="1" fill="none" fill-rule="evenodd"/><path d="M469 296 624.923 296" stroke="#44546A" stroke-width="13.75" stroke-linecap="butt" stroke-linejoin="miter" stroke-miterlimit="8" stroke-opacity="1" fill="none" fill-rule="evenodd"/><path d="M469 333 624.923 333" stroke="#44546A" stroke-width="13.75" stroke-linecap="butt" stroke-linejoin="miter" stroke-miterlimit="8" stroke-opacity="1" fill="none" fill-rule="evenodd"/><path d="M469 372 624.923 372" stroke="#44546A" stroke-width="13.75" stroke-linecap="butt" stroke-linejoin="miter" stroke-miterlimit="8" stroke-opacity="1" fill="none" fill-rule="evenodd"/><path d="M469 411 624.923 411" stroke="#44546A" stroke-width="13.75" stroke-linecap="butt" stroke-linejoin="miter" stroke-miterlimit="8" stroke-opacity="1" fill="none" fill-rule="evenodd"/><path d="M747 313.25 1033.5 313.25 1033.5 280 1100 346.5 1033.5 413 1033.5 379.75 747 379.75Z" fill="#4472C4" fill-rule="evenodd" fill-opacity="1"/><text fill="#FFFFFF" fill-opacity="1" font-family="DIN Pro Regular,DIN Pro Regular_MSFontService,sans-serif" font-style="normal" font-variant="normal" font-weight="400" font-stretch="normal" font-size="55" text-anchor="start" direction="ltr" writing-mode="lr-tb" unicode-bidi="normal" text-decoration="none" transform="matrix(1 0 0 1 785.991 368)">speichern</text><g><g><g><path d="M1694.92 221.25 1605.08 221.25 1605.08 166.708 1694.92 166.708ZM1704.54 163.5C1704.54 159.956 1701.67 157.083 1698.12 157.083L1601.88 157.083C1598.33 157.083 1595.46 159.956 1595.46 163.5L1595.46 230.875 1704.54 230.875Z" fill="#000000" fill-rule="nonzero" fill-opacity="1"/><path d="M1659.62 237.292 1659.62 238.896C1659.68 239.727 1659.05 240.445 1658.22 240.5 1658.15 240.504 1658.09 240.504 1658.02 240.5L1641.98 240.5C1641.15 240.555 1640.43 239.926 1640.38 239.095 1640.37 239.029 1640.37 238.962 1640.38 238.896L1640.38 237.292 1576.21 237.292 1576.21 240.5C1576.21 244.044 1579.08 246.917 1582.62 246.917L1717.38 246.917C1720.92 246.917 1723.79 244.044 1723.79 240.5L1723.79 237.292Z" fill="#000000" fill-rule="nonzero" fill-opacity="1"/><path d="M1650 171.521C1637.6 171.521 1627.54 181.576 1627.54 193.979 1627.54 206.383 1637.6 216.438 1650 216.438 1662.4 216.438 1672.46 206.383 1672.46 193.979 1672.46 181.576 1662.4 171.521 1650 171.521ZM1651.6 195.583 1658.97 195.583C1658.13 201.114 1655.55 206.233 1651.6 210.197ZM1651.6 192.375 1651.6 177.745C1655.55 181.714 1658.13 186.839 1658.97 192.375ZM1648.4 192.375 1641.27 192.375C1642.07 186.934 1644.56 181.882 1648.4 177.938ZM1648.4 195.583 1648.4 210.021C1644.57 206.072 1642.08 201.022 1641.27 195.583ZM1638.05 192.375 1631.18 192.375C1631.9 183.973 1638.1 177.063 1646.37 175.451 1641.8 180.015 1638.87 185.967 1638.05 192.375ZM1638.05 195.583C1638.87 202.002 1641.81 207.963 1646.41 212.523 1638.12 210.913 1631.9 203.997 1631.18 195.583ZM1662.19 195.583 1668.82 195.583C1668.11 203.891 1662.04 210.752 1653.88 212.459 1658.45 207.916 1661.38 201.977 1662.19 195.583ZM1662.19 192.375C1661.37 185.999 1658.47 180.072 1653.93 175.515 1662.07 177.24 1668.11 184.088 1668.82 192.375Z" fill="#000000" fill-rule="nonzero" fill-opacity="1"/></g></g></g></g></g></svg>