<svg width="1435" height="674" xmlns="http://www.w3.org/2000/svg" xmlns:xlink="http://www.w3.org/1999/xlink" xml:space="preserve" overflow="hidden"><g transform="translate(-1475 -357)"><g><rect x="1494.5" y="664.5" width="221" height="117" fill="#4472C4" fill-opacity="1"/><path d="M1715.5 664.5 1754.5 625.5 1754.5 742.5 1715.5 781.5Z" fill="#375C9E" fill-rule="evenodd" fill-opacity="1"/><path d="M1494.5 664.5 1533.5 625.5 1754.5 625.5 1715.5 664.5Z" fill="#698ED0" fill-rule="evenodd" fill-opacity="1"/><path d="M1494.5 664.5 1533.5 625.5 1754.5 625.5 1754.5 742.5 1715.5 781.5 1494.5 781.5ZM1494.5 664.5 1715.5 664.5 1754.5 625.5M1715.5 664.5 1715.5 781.5" stroke="#2F528F" stroke-width="4.58333" stroke-linecap="butt" stroke-linejoin="miter" stroke-miterlimit="8" stroke-opacity="1" fill="none" fill-rule="evenodd"/><text fill="#FFFFFF" fill-opacity="1" font-family="DIN Pro Regular,DIN Pro Regular_MSFontService,sans-serif" font-style="normal" font-variant="normal" font-weight="400" font-stretch="normal" font-size="83" text-anchor="start" direction="ltr" writing-mode="lr-tb" unicode-bidi="normal" text-decoration="none" transform="matrix(1 0 0 1 1583.04 754)">1</text><rect x="1877.5" y="664.5" width="221" height="117" fill="#4472C4" fill-opacity="1"/><path d="M2098.5 664.5 2137.5 625.5 2137.5 742.5 2098.5 781.5Z" fill="#375C9E" fill-rule="evenodd" fill-opacity="1"/><path d="M1877.5 664.5 1916.5 625.5 2137.5 625.5 2098.5 664.5Z" fill="#698ED0" fill-rule="evenodd" fill-opacity="1"/><path d="M1877.5 664.5 1916.5 625.5 2137.5 625.5 2137.5 742.5 2098.5 781.5 1877.5 781.5ZM1877.5 664.5 2098.5 664.5 2137.5 625.5M2098.5 664.5 2098.5 781.5" stroke="#2F528F" stroke-width="4.58333" stroke-linecap="butt" stroke-linejoin="miter" stroke-miterlimit="8" stroke-opacity="1" fill="none" fill-rule="evenodd"/><text fill="#FFFFFF" fill-opacity="1" font-family="DIN Pro Regular,DIN Pro Regular_MSFontService,sans-serif" font-style="normal" font-variant="normal" font-weight="400" font-stretch="normal" font-size="83" text-anchor="start" direction="ltr" writing-mode="lr-tb" unicode-bidi="normal" text-decoration="none" transform="matrix(1 0 0 1 1966.11 754)">2</text><rect x="2260.5" y="664.5" width="221" height="117" fill="#4472C4" fill-opacity="1"/><path d="M2481.5 664.5 2520.5 625.5 2520.5 742.5 2481.5 781.5Z" fill="#375C9E" fill-rule="evenodd" fill-opacity="1"/><path d="M2260.5 664.5 2299.5 625.5 2520.5 625.5 2481.5 664.5Z" fill="#698ED0" fill-rule="evenodd" fill-opacity="1"/><path d="M2260.5 664.5 2299.5 625.5 2520.5 625.5 2520.5 742.5 2481.5 781.5 2260.5 781.5ZM2260.5 664.5 2481.5 664.5 2520.5 625.5M2481.5 664.5 2481.5 781.5" stroke="#2F528F" stroke-width="4.58333" stroke-linecap="butt" stroke-linejoin="miter" stroke-miterlimit="8" stroke-opacity="1" fill="none" fill-rule="evenodd"/><text fill="#FFFFFF" fill-opacity="1" font-family="DIN Pro Regular,DIN Pro Regular_MSFontService,sans-serif" font-style="normal" font-variant="normal" font-weight="400" font-stretch="normal" font-size="83" text-anchor="start" direction="ltr" writing-mode="lr-tb" unicode-bidi="normal" text-decoration="none" transform="matrix(1 0 0 1 2349.19 754)">3</text><rect x="2643.5" y="664.5" width="221" height="117" fill="#4472C4" fill-opacity="1"/><path d="M2864.5 664.5 2903.5 625.5 2903.5 742.5 2864.5 781.5Z" fill="#375C9E" fill-rule="evenodd" fill-opacity="1"/><path d="M2643.5 664.5 2682.5 625.5 2903.5 625.5 2864.5 664.5Z" fill="#698ED0" fill-rule="evenodd" fill-opacity="1"/><path d="M2643.5 664.5 2682.5 625.5 2903.5 625.5 2903.5 742.5 2864.5 781.5 2643.5 781.5ZM2643.5 664.5 2864.5 664.5 2903.5 625.5M2864.5 664.5 2864.5 781.5" stroke="#2F528F" stroke-width="4.58333" stroke-linecap="butt" stroke-linejoin="miter" stroke-miterlimit="8" stroke-opacity="1" fill="none" fill-rule="evenodd"/><text fill="#FFFFFF" fill-opacity="1" font-family="DIN Pro Regular,DIN Pro Regular_MSFontService,sans-serif" font-style="normal" font-variant="normal" font-weight="400" font-stretch="normal" font-size="83" text-anchor="start" direction="ltr" writing-mode="lr-tb" unicode-bidi="normal" text-decoration="none" transform="matrix(1 0 0 1 2732.26 754)">4</text><path d="M2327.75 594 2292.72 562.75 2308.34 562.75C2294.77 507.56 2247.35 469 2193.06 469L2224.31 469C2278.6 469 2326.02 507.56 2339.59 562.75L2355.22 562.75Z" fill="#70AD47" fill-rule="evenodd" fill-opacity="1"/><path d="M2208.69 470.081C2149.49 478.308 2105.25 531.305 2105.25 594L2074 594C2074 524.964 2127.31 469 2193.06 469 2198.29 469 2203.51 469.361 2208.69 470.081Z" fill="#5A8B39" fill-rule="evenodd" fill-opacity="1"/><path d="M2713.75 594 2678.7 562.75 2694.33 562.75C2680.7 507.56 2633.08 469 2578.56 469L2609.81 469C2664.33 469 2711.95 507.56 2725.58 562.75L2741.2 562.75Z" fill="#70AD47" fill-rule="evenodd" fill-opacity="1"/><path d="M2594.19 470.072C2534.71 478.268 2490.25 531.279 2490.25 594L2459 594C2459 524.964 2512.53 469 2578.56 469 2583.79 469 2589.01 469.358 2594.19 470.072Z" fill="#5A8B39" fill-rule="evenodd" fill-opacity="1"/><path d="M1942.75 586 1907.7 554.75 1923.33 554.75C1909.7 499.56 1862.08 461 1807.56 461L1838.81 461C1893.33 461 1940.95 499.56 1954.58 554.75L1970.2 554.75Z" fill="#70AD47" fill-rule="evenodd" fill-opacity="1"/><path d="M1823.19 462.072C1763.71 470.269 1719.25 523.279 1719.25 586L1688 586C1688 516.964 1741.53 461 1807.56 461 1812.79 461 1818.01 461.358 1823.19 462.072Z" fill="#5A8B39" fill-rule="evenodd" fill-opacity="1"/><path d="M2094.25 804 2129.28 835.25 2113.66 835.25C2127.23 890.44 2174.65 929 2228.94 929L2197.69 929C2143.4 929 2095.98 890.44 2082.41 835.25L2066.78 835.25Z" fill="#ED7D31" fill-rule="evenodd" fill-opacity="1"/><path d="M2213.31 927.919C2272.51 919.692 2316.75 866.695 2316.75 804L2348 804C2348 873.036 2294.69 929 2228.94 929 2223.71 929 2218.49 928.639 2213.31 927.919Z" fill="#BF6427" fill-rule="evenodd" fill-opacity="1"/><path d="M2479.25 804 2514.3 835.25 2498.67 835.25C2512.3 890.44 2559.92 929 2614.44 929L2583.19 929C2528.67 929 2481.05 890.44 2467.42 835.25L2451.8 835.25Z" fill="#ED7D31" fill-rule="evenodd" fill-opacity="1"/><path d="M2598.81 927.928C2658.29 919.732 2702.75 866.722 2702.75 804L2734 804C2734 873.036 2680.47 929 2614.44 929 2609.21 929 2603.99 928.642 2598.81 927.928Z" fill="#BF6427" fill-rule="evenodd" fill-opacity="1"/><path d="M1708.25 796 1743.3 827.25 1727.67 827.25C1741.3 882.44 1788.92 921 1843.44 921L1812.19 921C1757.67 921 1710.05 882.44 1696.42 827.25L1680.8 827.25Z" fill="#ED7D31" fill-rule="evenodd" fill-opacity="1"/><path d="M1827.81 919.928C1887.29 911.731 1931.75 858.721 1931.75 796L1963 796C1963 865.036 1909.47 921 1843.44 921 1838.21 921 1832.99 920.642 1827.81 919.928Z" fill="#BF6427" fill-rule="evenodd" fill-opacity="1"/><text fill="#000000" fill-opacity="1" font-family="DIN Pro Regular,DIN Pro Regular_MSFontService,sans-serif" font-style="normal" font-variant="normal" font-weight="400" font-stretch="normal" font-size="55" text-anchor="start" direction="ltr" writing-mode="lr-tb" unicode-bidi="normal" text-decoration="none" transform="matrix(1 0 0 1 1751.67 432)">richtig</text><text fill="#000000" fill-opacity="1" font-family="DIN Pro Regular,DIN Pro Regular_MSFontService,sans-serif" font-style="normal" font-variant="normal" font-weight="400" font-stretch="normal" font-size="55" text-anchor="start" direction="ltr" writing-mode="lr-tb" unicode-bidi="normal" text-decoration="none" transform="matrix(1 0 0 1 2522.63 432)">richtig</text><text fill="#000000" fill-opacity="1" font-family="DIN Pro Regular,DIN Pro Regular_MSFontService,sans-serif" font-style="normal" font-variant="normal" font-weight="400" font-stretch="normal" font-size="55" text-anchor="start" direction="ltr" writing-mode="lr-tb" unicode-bidi="normal" text-decoration="none" transform="matrix(1 0 0 1 2137.15 432)">richtig</text><text fill="#000000" fill-opacity="1" font-family="DIN Pro Regular,DIN Pro Regular_MSFontService,sans-serif" font-style="normal" font-variant="normal" font-weight="400" font-stretch="normal" font-size="55" text-anchor="start" direction="ltr" writing-mode="lr-tb" unicode-bidi="normal" text-decoration="none" transform="matrix(1 0 0 1 1744.2 986)">falsch</text><text fill="#000000" fill-opacity="1" font-family="DIN Pro Regular,DIN Pro Regular_MSFontService,sans-serif" font-style="normal" font-variant="normal" font-weight="400" font-stretch="normal" font-size="55" text-anchor="start" direction="ltr" writing-mode="lr-tb" unicode-bidi="normal" text-decoration="none" transform="matrix(1 0 0 1 2515.16 986)">falsch</text><text fill="#000000" fill-opacity="1" font-family="DIN Pro Regular,DIN Pro Regular_MSFontService,sans-serif" font-style="normal" font-variant="normal" font-weight="400" font-stretch="normal" font-size="55" text-anchor="start" direction="ltr" writing-mode="lr-tb" unicode-bidi="normal" text-decoration="none" transform="matrix(1 0 0 1 2129.68 986)">falsch</text><path d="M1519 547 1538.5 547 1538.5 461 1577.5 461 1577.5 547 1597 547 1558 586Z" fill="#70AD47" fill-rule="evenodd" fill-opacity="1"/><text fill="#000000" fill-opacity="1" font-family="DIN Pro Regular,DIN Pro Regular_MSFontService,sans-serif" font-style="normal" font-variant="normal" font-weight="400" font-stretch="normal" font-size="55" text-anchor="start" direction="ltr" writing-mode="lr-tb" unicode-bidi="normal" text-decoration="none" transform="matrix(1 0 0 1 1511.46 432)">neu</text></g></g></svg>