<?xml version="1.0" encoding="UTF-8" standalone="no"?>
<!DOCTYPE svg PUBLIC "-//W3C//DTD SVG 1.1//EN" "http://www.w3.org/Graphics/SVG/1.1/DTD/svg11.dtd">
<svg width="100%" height="100%" viewBox="0 0 3029 1114" version="1.1" xmlns="http://www.w3.org/2000/svg" xmlns:xlink="http://www.w3.org/1999/xlink" xml:space="preserve" xmlns:serif="http://www.serif.com/" style="fill-rule:evenodd;clip-rule:evenodd;stroke-linejoin:round;stroke-miterlimit:2;">
    <g transform="matrix(1,0,0,1,-220,-169)">
        <g transform="matrix(1,0,0,1,2.21963,5.78037)">
            <rect x="704" y="338" width="624" height="305" style="fill-opacity:0.6;"/>
        </g>
        <g transform="matrix(1,0,0,1,725.529,417.78)">
            <text x="0px" y="0px" style="font-family:'DINPro', 'DIN Pro', sans-serif;font-size:64px;fill:white;">F<tspan x="35.2px " y="0px ">e</tspan>hl<tspan x="123.264px " y="0px ">e</tspan>r und</text>
        </g>
        <g transform="matrix(1,0,0,1,725.529,486.78)">
            <text x="0px" y="0px" style="font-family:'DINPro', 'DIN Pro', sans-serif;font-size:64px;fill:white;">Debugging</text>
        </g>
        <g transform="matrix(1,0,0,1,2.21963,5.78037)">
            <rect x="1343" y="338" width="625" height="305" style="fill-opacity:0.6;"/>
        </g>
        <g transform="matrix(1,0,0,1,1364.81,417.78)">
            <text x="0px" y="0px" style="font-family:'DINPro', 'DIN Pro', sans-serif;font-size:64px;fill:white;">Objekt<tspan x="181.824px " y="0px ">o</tspan>rientierung</text>
        </g>
        <g transform="matrix(1,0,0,1,1364.81,486.78)">
            <text x="0px" y="0px" style="font-family:'DINPro', 'DIN Pro', sans-serif;font-size:64px;fill:white;">u. Softw<tspan x="228.096px 261.76px 286.784px " y="0px 0px 0px ">are</tspan>entwurf</text>
        </g>
        <rect x="704" y="976" width="625" height="305" style="fill-opacity:0.6;"/>
        <g transform="matrix(1,0,0,1,723.309,1050)">
            <text x="0px" y="0px" style="font-family:'DINPro', 'DIN Pro', sans-serif;font-size:64px;fill:white;">Dat<tspan x="97.664px " y="0px ">e</tspan>nhaltung</text>
        </g>
        <rect x="1343" y="976" width="625" height="305" style="fill-opacity:0.6;"/>
        <g transform="matrix(1,0,0,1,1362.59,1050)">
            <text x="0px" y="0px" style="font-family:'DINPro', 'DIN Pro', sans-serif;font-size:64px;fill:white;">Dat<tspan x="97.664px " y="0px ">e</tspan>nbank<tspan x="303.808px " y="0px ">e</tspan>n</text>
        </g>
        <rect x="1982" y="976" width="625" height="305" style="fill-opacity:0.6;"/>
        <g transform="matrix(1,0,0,1,2001.87,1050)">
            <text x="0px" y="0px" style="font-family:'DINPro', 'DIN Pro', sans-serif;font-size:64px;fill:white;">Dat<tspan x="97.664px " y="0px ">e</tspan>nbank<tspan x="303.808px " y="0px ">e</tspan>ntwurf</text>
        </g>
        <rect x="2622" y="976" width="625" height="305" style="fill-opacity:0.6;"/>
        <g transform="matrix(1,0,0,1,2641.33,1050)">
            <text x="0px" y="0px" style="font-family:'DINPro', 'DIN Pro', sans-serif;font-size:64px;fill:white;">T<tspan x="31.232px 56.256px " y="0px 0px ">re</tspan>nds und</text>
        </g>
        <g transform="matrix(1,0,0,1,2979.36,1050)">
            <text x="0px" y="0px" style="font-family:'DINPro', 'DIN Pro', sans-serif;font-size:64px;fill:white;">KI</text>
        </g>
        <g transform="matrix(1,0,0,1,2.21963,5.78037)">
            <rect x="1982" y="338" width="625" height="305" style="fill-opacity:0.6;"/>
        </g>
        <g transform="matrix(1,0,0,1,2004.09,417.78)">
            <text x="0px" y="0px" style="font-family:'DINPro', 'DIN Pro', sans-serif;font-size:64px;fill:white;">F<tspan x="35.2px " y="0px ">u</tspan>nktionen und</text>
        </g>
        <g transform="matrix(1,0,0,1,2004.09,486.78)">
            <text x="0px" y="0px" style="font-family:'DINPro', 'DIN Pro', sans-serif;font-size:64px;fill:white;">R<tspan x="40.064px " y="0px ">e</tspan>kur<tspan x="170.56px " y="0px ">s</tspan>ion</text>
        </g>
        <g transform="matrix(1,0,0,1,2136.9,302.78)">
            <text x="0px" y="0px" style="font-family:'Protomolecule', sans-serif;font-size:64px;">modellierung</text>
        </g>
        <g transform="matrix(1,0,0,1,710.923,936)">
            <text x="0px" y="0px" style="font-family:'Protomolecule', sans-serif;font-size:64px;">dat<tspan x="116.096px " y="0px ">e</tspan>nbank<tspan x="368.256px " y="0px ">e</tspan>n</text>
        </g>
        <g transform="matrix(4.56097,0,0,4.56097,229.232,341.728)">
            <path d="M0,100.817C0,45.414 45.29,0.5 101.157,0.5C101.202,0.5 101.246,0.5 101.291,0.5L101.203,66.788C82.126,66.763 66.641,81.979 66.616,100.773C66.616,100.788 66.616,100.803 66.616,100.818L0,100.817Z" style="fill-opacity:0.6;"/>
        </g>
        <g transform="matrix(2.79279e-16,-4.56097,4.56097,2.79279e-16,226.953,1283)">
            <path d="M0,100.817C0,45.414 45.29,0.5 101.157,0.5C101.202,0.5 101.246,0.5 101.291,0.5L101.203,66.788C82.126,66.763 66.641,81.979 66.616,100.773C66.616,100.788 66.616,100.803 66.616,100.818L0,100.817Z" style="fill-opacity:0.6;"/>
        </g>
        <g transform="matrix(-4.56097,-5.58558e-16,5.58558e-16,-4.56097,3089.71,651.06)">
            <path d="M0,100.817C0,45.414 45.29,0.5 101.157,0.5C101.202,0.5 101.246,0.5 101.291,0.5L101.203,66.788C82.126,66.763 66.641,81.979 66.616,100.773C66.616,100.788 66.616,100.803 66.616,100.818L0,100.817Z" style="fill-opacity:0.6;"/>
        </g>
    </g>
</svg>
