<?xml version="1.0" encoding="UTF-8" standalone="no"?>
<!DOCTYPE svg PUBLIC "-//W3C//DTD SVG 1.1//EN" "http://www.w3.org/Graphics/SVG/1.1/DTD/svg11.dtd">
<svg width="100%" height="100%" viewBox="0 0 3016 1223" version="1.1" xmlns="http://www.w3.org/2000/svg" xmlns:xlink="http://www.w3.org/1999/xlink" xml:space="preserve" xmlns:serif="http://www.serif.com/" style="fill-rule:evenodd;clip-rule:evenodd;stroke-linejoin:round;stroke-miterlimit:2;">
    <g transform="matrix(1,0,0,1,-174,-504)">
        <rect x="195" y="631" width="617" height="302"/>
        <g transform="matrix(1,0,0,1,214.208,706)">
            <text x="0px" y="0px" style="font-family:'DINPro', 'DIN Pro', sans-serif;font-size:64px;fill:white;">Motiv<tspan x="151.808px " y="0px ">a</tspan>tion</text>
        </g>
        <rect x="827" y="631" width="618" height="302"/>
        <g transform="matrix(1,0,0,1,846.596,706)">
            <text x="0px" y="0px" style="font-family:'DINPro', 'DIN Pro', sans-serif;font-size:64px;fill:white;">Comput<tspan x="222.72px " y="0px ">e</tspan>r und</text>
        </g>
        <g transform="matrix(1,0,0,1,846.596,775)">
            <text x="0px" y="0px" style="font-family:'DINPro', 'DIN Pro', sans-serif;font-size:64px;fill:white;">Ar<tspan x="64.128px " y="0px ">c</tspan>hit<tspan x="168.512px " y="0px ">e</tspan>ktur<tspan x="318.976px " y="0px ">e</tspan>n</text>
        </g>
        <rect x="1459" y="631" width="618" height="302"/>
        <g transform="matrix(1,0,0,1,1478.98,706)">
            <text x="0px" y="0px" style="font-family:'DINPro', 'DIN Pro', sans-serif;font-size:64px;fill:white;">Pr<tspan x="65.344px " y="0px ">o</tspan>gr<tspan x="160.32px " y="0px ">a</tspan>mmierung</text>
        </g>
        <g transform="matrix(1,0,0,1,1478.98,775)">
            <text x="0px" y="0px" style="font-family:'DINPro', 'DIN Pro', sans-serif;font-size:64px;fill:white;">und Dat<tspan x="220.416px " y="0px ">e</tspan>ntypen</text>
        </g>
        <g transform="matrix(1,0,0,1,0,-8)">
            <rect x="827" y="1267" width="618" height="302"/>
        </g>
        <g transform="matrix(1,0,0,1,846.596,1334)">
            <text x="0px" y="0px" style="font-family:'DINPro', 'DIN Pro', sans-serif;font-size:64px;fill:white;">F<tspan x="35.2px " y="0px ">e</tspan>hl<tspan x="123.264px " y="0px ">e</tspan>r und</text>
        </g>
        <g transform="matrix(1,0,0,1,846.596,1403)">
            <text x="0px" y="0px" style="font-family:'DINPro', 'DIN Pro', sans-serif;font-size:64px;fill:white;">Debugging</text>
        </g>
        <g transform="matrix(1,0,0,1,0,-8)">
            <rect x="1459" y="1267" width="618" height="302"/>
        </g>
        <g transform="matrix(1,0,0,1,1478.98,1334)">
            <text x="0px" y="0px" style="font-family:'DINPro', 'DIN Pro', sans-serif;font-size:64px;fill:white;">Objekt<tspan x="181.824px " y="0px ">o</tspan>rientierung</text>
        </g>
        <g transform="matrix(1,0,0,1,1478.98,1403)">
            <text x="0px" y="0px" style="font-family:'DINPro', 'DIN Pro', sans-serif;font-size:64px;fill:white;">u. Softw<tspan x="228.096px 261.76px 286.784px " y="0px 0px 0px ">are</tspan>entwurf</text>
        </g>
        <rect x="2092" y="631" width="618" height="302"/>
        <g transform="matrix(1,0,0,1,2111.37,706)">
            <text x="0px" y="0px" style="font-family:'DINPro', 'DIN Pro', sans-serif;font-size:64px;fill:white;">V<tspan x="32.384px " y="0px ">e</tspan>rzw<tspan x="168.32px " y="0px ">e</tspan>igungen</text>
        </g>
        <g transform="matrix(1,0,0,1,2560.54,706)">
            <text x="0px" y="0px" style="font-family:'DINPro', 'DIN Pro', sans-serif;font-size:64px;fill:white;">und</text>
        </g>
        <g transform="matrix(1,0,0,1,2111.37,775)">
            <text x="0px" y="0px" style="font-family:'DINPro', 'DIN Pro', sans-serif;font-size:64px;fill:white;">Schl<tspan x="123.136px " y="0px ">e</tspan>if<tspan x="192.32px " y="0px ">e</tspan>n</text>
        </g>
        <g transform="matrix(1,0,0,1,0,-8)">
            <rect x="2092" y="1267" width="618" height="302"/>
        </g>
        <g transform="matrix(1,0,0,1,2111.37,1334)">
            <text x="0px" y="0px" style="font-family:'DINPro', 'DIN Pro', sans-serif;font-size:64px;fill:white;">F<tspan x="35.2px " y="0px ">u</tspan>nktionen und</text>
        </g>
        <g transform="matrix(1,0,0,1,2111.37,1403)">
            <text x="0px" y="0px" style="font-family:'DINPro', 'DIN Pro', sans-serif;font-size:64px;fill:white;">R<tspan x="40.064px " y="0px ">e</tspan>kur<tspan x="170.56px " y="0px ">s</tspan>ion</text>
        </g>
        <g transform="matrix(1,0,0,1,834.133,591)">
            <text x="0px" y="0px" style="font-family:'Protomolecule', sans-serif;font-size:64px;">grundlagen</text>
        </g>
        <g transform="matrix(1,0,0,1,2240.01,1219)">
            <text x="0px" y="0px" style="font-family:'Protomolecule', sans-serif;font-size:64px;">modellierung</text>
        </g>
        <g transform="matrix(4.56097,0,0,4.56097,349,1254.95)">
            <path d="M0,100.817C0,45.414 45.29,0.5 101.157,0.5C101.202,0.5 101.246,0.5 101.291,0.5L101.203,66.788C82.126,66.763 66.641,81.979 66.616,100.773C66.616,100.788 66.616,100.803 66.616,100.818L0,100.817Z"/>
        </g>
        <g transform="matrix(2.79279e-16,4.56097,-4.56097,2.79279e-16,3183.83,632.007)">
            <path d="M0,100.817C0,45.414 45.29,0.5 101.157,0.5C101.202,0.5 101.246,0.5 101.291,0.5L101.203,66.788C82.126,66.763 66.641,81.979 66.616,100.773C66.616,100.788 66.616,100.803 66.616,100.818L0,100.817Z"/>
        </g>
        <g transform="matrix(-4.56097,5.58558e-16,-5.58558e-16,-4.56097,3183.77,1563.28)">
            <path d="M0,100.817C0,45.414 45.29,0.5 101.157,0.5C101.202,0.5 101.246,0.5 101.291,0.5L101.203,66.788C82.126,66.763 66.641,81.979 66.616,100.773C66.616,100.788 66.616,100.803 66.616,100.818L0,100.817Z"/>
        </g>
    </g>
</svg>
