<?xml version="1.0" encoding="UTF-8" standalone="no"?>
<!DOCTYPE svg PUBLIC "-//W3C//DTD SVG 1.1//EN" "http://www.w3.org/Graphics/SVG/1.1/DTD/svg11.dtd">
<svg width="100%" height="100%" viewBox="0 0 300 130" version="1.1" xmlns="http://www.w3.org/2000/svg" xmlns:xlink="http://www.w3.org/1999/xlink" xml:space="preserve" xmlns:serif="http://www.serif.com/" style="fill-rule:evenodd;clip-rule:evenodd;stroke-linejoin:round;stroke-miterlimit:2;">
    <g transform="matrix(1.71922,0,0,1.71922,149.691,29.3373)">
        <g>
            <path d="M-82.971,-6.498L-78.309,-6.498C-77.481,-6.498 -76.824,-6.717 -76.338,-7.155C-75.852,-7.593 -75.609,-8.226 -75.609,-9.054C-75.609,-9.882 -75.852,-10.512 -76.338,-10.944C-76.824,-11.376 -77.481,-11.592 -78.309,-11.592L-82.971,-11.592L-82.971,-12.816L-78.201,-12.816C-77.025,-12.816 -76.071,-12.471 -75.339,-11.781C-74.607,-11.091 -74.241,-10.182 -74.241,-9.054C-74.241,-7.914 -74.61,-6.999 -75.348,-6.309C-76.086,-5.619 -77.037,-5.274 -78.201,-5.274L-81.603,-5.274L-81.603,0L-82.971,0L-82.971,-6.498Z" style="fill:rgb(10,31,51);fill-rule:nonzero;"/>
            <path d="M-71.091,-6.894L-66.303,-6.894C-65.523,-6.894 -64.902,-7.095 -64.44,-7.497C-63.978,-7.899 -63.747,-8.478 -63.747,-9.234C-63.747,-9.99 -63.981,-10.572 -64.449,-10.98C-64.917,-11.388 -65.535,-11.592 -66.303,-11.592L-71.091,-11.592L-71.091,-12.816L-66.177,-12.816C-65.049,-12.816 -64.134,-12.495 -63.432,-11.853C-62.73,-11.211 -62.379,-10.344 -62.379,-9.252C-62.379,-8.34 -62.631,-7.584 -63.135,-6.984C-63.639,-6.384 -64.317,-5.994 -65.169,-5.814L-62.127,0L-63.729,0L-66.645,-5.688L-69.723,-5.688L-69.723,0L-71.091,0L-71.091,-6.894Z" style="fill:rgb(10,31,51);fill-rule:nonzero;"/>
            <path d="M-51.021,-9.792C-50.877,-9.12 -50.805,-7.992 -50.805,-6.408C-50.805,-4.824 -50.877,-3.696 -51.021,-3.024C-51.165,-2.352 -51.525,-1.728 -52.101,-1.152C-52.941,-0.312 -54.003,0.108 -55.287,0.108C-56.583,0.108 -57.651,-0.312 -58.491,-1.152C-59.055,-1.716 -59.409,-2.334 -59.553,-3.006C-59.697,-3.678 -59.769,-4.812 -59.769,-6.408C-59.769,-8.004 -59.697,-9.138 -59.553,-9.81C-59.409,-10.482 -59.055,-11.1 -58.491,-11.664C-57.651,-12.504 -56.583,-12.924 -55.287,-12.924C-54.003,-12.924 -52.941,-12.504 -52.101,-11.664C-51.525,-11.088 -51.165,-10.464 -51.021,-9.792ZM-52.335,-3.456C-52.227,-4.032 -52.173,-5.016 -52.173,-6.408C-52.173,-7.8 -52.227,-8.781 -52.335,-9.351C-52.443,-9.921 -52.689,-10.404 -53.073,-10.8C-53.673,-11.4 -54.411,-11.7 -55.287,-11.7C-56.163,-11.7 -56.901,-11.4 -57.501,-10.8C-57.885,-10.404 -58.131,-9.921 -58.239,-9.351C-58.347,-8.781 -58.401,-7.8 -58.401,-6.408C-58.401,-5.016 -58.347,-4.035 -58.239,-3.465C-58.131,-2.895 -57.885,-2.412 -57.501,-2.016C-56.901,-1.416 -56.163,-1.116 -55.287,-1.116C-54.411,-1.116 -53.673,-1.416 -53.073,-2.016C-52.689,-2.412 -52.443,-2.892 -52.335,-3.456Z" style="fill:rgb(10,31,51);fill-rule:nonzero;"/>
            <path d="M-38.529,-4.662C-38.529,-3.906 -38.61,-3.282 -38.772,-2.79C-38.934,-2.298 -39.219,-1.824 -39.627,-1.368C-40.527,-0.384 -41.667,0.108 -43.047,0.108C-44.343,0.108 -45.411,-0.312 -46.251,-1.152C-46.815,-1.716 -47.169,-2.334 -47.313,-3.006C-47.457,-3.678 -47.529,-4.812 -47.529,-6.408C-47.529,-8.004 -47.457,-9.138 -47.313,-9.81C-47.169,-10.482 -46.815,-11.1 -46.251,-11.664C-45.411,-12.504 -44.343,-12.924 -43.047,-12.924C-41.859,-12.924 -40.86,-12.567 -40.05,-11.853C-39.24,-11.139 -38.745,-10.218 -38.565,-9.09L-39.933,-9.09C-40.113,-9.906 -40.476,-10.545 -41.022,-11.007C-41.568,-11.469 -42.243,-11.7 -43.047,-11.7C-43.947,-11.7 -44.685,-11.4 -45.261,-10.8C-45.645,-10.404 -45.891,-9.921 -45.999,-9.351C-46.107,-8.781 -46.161,-7.8 -46.161,-6.408C-46.161,-5.016 -46.107,-4.035 -45.999,-3.465C-45.891,-2.895 -45.645,-2.412 -45.261,-2.016C-44.685,-1.416 -43.947,-1.116 -43.047,-1.116C-42.027,-1.116 -41.217,-1.482 -40.617,-2.214C-40.137,-2.814 -39.897,-3.588 -39.897,-4.536L-39.897,-5.526L-43.047,-5.526L-43.047,-6.696L-38.529,-6.696L-38.529,-4.662Z" style="fill:rgb(10,31,51);fill-rule:nonzero;"/>
            <path d="M-34.803,-6.894L-30.015,-6.894C-29.235,-6.894 -28.614,-7.095 -28.152,-7.497C-27.69,-7.899 -27.459,-8.478 -27.459,-9.234C-27.459,-9.99 -27.693,-10.572 -28.161,-10.98C-28.629,-11.388 -29.247,-11.592 -30.015,-11.592L-34.803,-11.592L-34.803,-12.816L-29.889,-12.816C-28.761,-12.816 -27.846,-12.495 -27.144,-11.853C-26.442,-11.211 -26.091,-10.344 -26.091,-9.252C-26.091,-8.34 -26.343,-7.584 -26.847,-6.984C-27.351,-6.384 -28.029,-5.994 -28.881,-5.814L-25.839,0L-27.441,0L-30.357,-5.688L-33.435,-5.688L-33.435,0L-34.803,0L-34.803,-6.894Z" style="fill:rgb(10,31,51);fill-rule:nonzero;"/>
            <path d="M-14.265,0L-15.705,0L-19.089,-10.872L-22.509,0L-23.949,0L-19.737,-12.816L-18.477,-12.816L-14.265,0Z" style="fill:rgb(10,31,51);fill-rule:nonzero;"/>
            <path d="M-0.351,0L-1.719,0L-1.719,-9.738L-5.229,-2.016L-6.399,-2.016L-9.963,-9.738L-9.963,0L-11.331,0L-11.331,-12.816L-9.963,-12.816L-5.787,-3.726L-1.719,-12.816L-0.351,-12.816L-0.351,0Z" style="fill:rgb(10,31,51);fill-rule:nonzero;"/>
            <path d="M14.877,0L13.509,0L13.509,-9.738L9.999,-2.016L8.829,-2.016L5.265,-9.738L5.265,0L3.897,0L3.897,-12.816L5.265,-12.816L9.441,-3.726L13.509,-12.816L14.877,-12.816L14.877,0Z" style="fill:rgb(10,31,51);fill-rule:nonzero;"/>
            <rect x="19.125" y="-12.816" width="1.368" height="12.816" style="fill:rgb(10,31,51);fill-rule:nonzero;"/>
            <path d="M24.741,-12.816L32.697,-12.816L32.697,-11.592L24.741,-11.592L24.741,-12.816ZM24.741,-7.074L31.725,-7.074L31.725,-5.85L24.741,-5.85L24.741,-7.074ZM24.741,-1.224L32.697,-1.224L32.697,0L24.741,0L24.741,-1.224Z" style="fill:rgb(10,31,51);fill-rule:nonzero;"/>
            <path d="M36.081,-6.894L40.869,-6.894C41.649,-6.894 42.27,-7.095 42.732,-7.497C43.194,-7.899 43.425,-8.478 43.425,-9.234C43.425,-9.99 43.191,-10.572 42.723,-10.98C42.255,-11.388 41.637,-11.592 40.869,-11.592L36.081,-11.592L36.081,-12.816L40.995,-12.816C42.123,-12.816 43.038,-12.495 43.74,-11.853C44.442,-11.211 44.793,-10.344 44.793,-9.252C44.793,-8.34 44.541,-7.584 44.037,-6.984C43.533,-6.384 42.855,-5.994 42.003,-5.814L45.045,0L43.443,0L40.527,-5.688L37.449,-5.688L37.449,0L36.081,0L36.081,-6.894Z" style="fill:rgb(10,31,51);fill-rule:nonzero;"/>
            <path d="M57.195,-4.23C57.195,-2.958 56.772,-1.917 55.926,-1.107C55.08,-0.297 54.009,0.108 52.713,0.108C51.417,0.108 50.349,-0.297 49.509,-1.107C48.669,-1.917 48.249,-2.958 48.249,-4.23L48.249,-12.816L49.617,-12.816L49.617,-4.338C49.617,-3.366 49.899,-2.586 50.463,-1.998C51.027,-1.41 51.777,-1.116 52.713,-1.116C53.649,-1.116 54.402,-1.41 54.972,-1.998C55.542,-2.586 55.827,-3.366 55.827,-4.338L55.827,-12.816L57.195,-12.816L57.195,-4.23Z" style="fill:rgb(10,31,51);fill-rule:nonzero;"/>
            <path d="M70.731,0L69.435,0L62.631,-10.278L62.631,0L61.263,0L61.263,-12.816L62.559,-12.816L69.363,-2.574L69.363,-12.816L70.731,-12.816L70.731,0Z" style="fill:rgb(10,31,51);fill-rule:nonzero;"/>
            <path d="M83.493,-4.662C83.493,-3.906 83.412,-3.282 83.25,-2.79C83.088,-2.298 82.803,-1.824 82.395,-1.368C81.495,-0.384 80.355,0.108 78.975,0.108C77.679,0.108 76.611,-0.312 75.771,-1.152C75.207,-1.716 74.853,-2.334 74.709,-3.006C74.565,-3.678 74.493,-4.812 74.493,-6.408C74.493,-8.004 74.565,-9.138 74.709,-9.81C74.853,-10.482 75.207,-11.1 75.771,-11.664C76.611,-12.504 77.679,-12.924 78.975,-12.924C80.163,-12.924 81.162,-12.567 81.972,-11.853C82.782,-11.139 83.277,-10.218 83.457,-9.09L82.089,-9.09C81.909,-9.906 81.546,-10.545 81,-11.007C80.454,-11.469 79.779,-11.7 78.975,-11.7C78.075,-11.7 77.337,-11.4 76.761,-10.8C76.377,-10.404 76.131,-9.921 76.023,-9.351C75.915,-8.781 75.861,-7.8 75.861,-6.408C75.861,-5.016 75.915,-4.035 76.023,-3.465C76.131,-2.895 76.377,-2.412 76.761,-2.016C77.337,-1.416 78.075,-1.116 78.975,-1.116C79.995,-1.116 80.805,-1.482 81.405,-2.214C81.885,-2.814 82.125,-3.588 82.125,-4.536L82.125,-5.526L78.975,-5.526L78.975,-6.696L83.493,-6.696L83.493,-4.662Z" style="fill:rgb(10,31,51);fill-rule:nonzero;"/>
            <path d="M-74.187,13.77C-74.187,15.042 -74.61,16.083 -75.456,16.893C-76.302,17.703 -77.373,18.108 -78.669,18.108C-79.965,18.108 -81.033,17.703 -81.873,16.893C-82.713,16.083 -83.133,15.042 -83.133,13.77L-83.133,5.184L-81.765,5.184L-81.765,13.662C-81.765,14.634 -81.483,15.414 -80.919,16.002C-80.355,16.59 -79.605,16.884 -78.669,16.884C-77.733,16.884 -76.98,16.59 -76.41,16.002C-75.84,15.414 -75.555,14.634 -75.555,13.662L-75.555,5.184L-74.187,5.184L-74.187,13.77Z" style="fill:rgb(10,31,51);fill-rule:nonzero;"/>
            <path d="M-61.191,18L-62.487,18L-69.291,7.722L-69.291,18L-70.659,18L-70.659,5.184L-69.363,5.184L-62.559,15.426L-62.559,5.184L-61.191,5.184L-61.191,18Z" style="fill:rgb(10,31,51);fill-rule:nonzero;"/>
            <path d="M-57.483,16.776L-53.325,16.776C-52.209,16.776 -51.369,16.464 -50.805,15.84C-50.541,15.564 -50.346,15.18 -50.22,14.688C-50.094,14.196 -50.019,13.746 -49.995,13.338C-49.971,12.93 -49.959,12.348 -49.959,11.592C-49.959,10.836 -49.971,10.254 -49.995,9.846C-50.019,9.438 -50.094,8.988 -50.22,8.496C-50.346,8.004 -50.541,7.62 -50.805,7.344C-51.369,6.72 -52.209,6.408 -53.325,6.408L-57.483,6.408L-57.483,5.184L-53.091,5.184C-51.675,5.184 -50.553,5.634 -49.725,6.534C-49.377,6.918 -49.113,7.413 -48.933,8.019C-48.753,8.625 -48.651,9.156 -48.627,9.612C-48.603,10.068 -48.591,10.728 -48.591,11.592C-48.591,12.456 -48.603,13.116 -48.627,13.572C-48.651,14.028 -48.753,14.559 -48.933,15.165C-49.113,15.771 -49.377,16.266 -49.725,16.65C-50.553,17.55 -51.675,18 -53.091,18L-57.483,18L-57.483,16.776Z" style="fill:rgb(10,31,51);fill-rule:nonzero;"/>
            <path d="M-40.887,16.776L-36.729,16.776C-35.613,16.776 -34.773,16.464 -34.209,15.84C-33.945,15.564 -33.75,15.18 -33.624,14.688C-33.498,14.196 -33.423,13.746 -33.399,13.338C-33.375,12.93 -33.363,12.348 -33.363,11.592C-33.363,10.836 -33.375,10.254 -33.399,9.846C-33.423,9.438 -33.498,8.988 -33.624,8.496C-33.75,8.004 -33.945,7.62 -34.209,7.344C-34.773,6.72 -35.613,6.408 -36.729,6.408L-40.887,6.408L-40.887,5.184L-36.495,5.184C-35.079,5.184 -33.957,5.634 -33.129,6.534C-32.781,6.918 -32.517,7.413 -32.337,8.019C-32.157,8.625 -32.055,9.156 -32.031,9.612C-32.007,10.068 -31.995,10.728 -31.995,11.592C-31.995,12.456 -32.007,13.116 -32.031,13.572C-32.055,14.028 -32.157,14.559 -32.337,15.165C-32.517,15.771 -32.781,16.266 -33.129,16.65C-33.957,17.55 -35.079,18 -36.495,18L-40.887,18L-40.887,16.776Z" style="fill:rgb(10,31,51);fill-rule:nonzero;"/>
            <path d="M-20.403,18L-21.843,18L-25.227,7.128L-28.647,18L-30.087,18L-25.875,5.184L-24.615,5.184L-20.403,18Z" style="fill:rgb(10,31,51);fill-rule:nonzero;"/>
            <path d="M-10.539,6.408L-14.247,6.408L-14.247,18L-15.615,18L-15.615,6.408L-19.323,6.408L-19.323,5.184L-10.539,5.184L-10.539,6.408Z" style="fill:rgb(10,31,51);fill-rule:nonzero;"/>
            <path d="M-8.235,5.184L-0.279,5.184L-0.279,6.408L-8.235,6.408L-8.235,5.184ZM-8.235,10.926L-1.251,10.926L-1.251,12.15L-8.235,12.15L-8.235,10.926ZM-8.235,16.776L-0.279,16.776L-0.279,18L-8.235,18L-8.235,16.776Z" style="fill:rgb(10,31,51);fill-rule:nonzero;"/>
            <path d="M12.033,18L10.737,18L3.933,7.722L3.933,18L2.565,18L2.565,5.184L3.861,5.184L10.665,15.426L10.665,5.184L12.033,5.184L12.033,18Z" style="fill:rgb(10,31,51);fill-rule:nonzero;"/>
            <path d="M15.741,16.776L20.601,16.776C21.213,16.776 21.795,16.551 22.347,16.101C22.899,15.651 23.175,15.09 23.175,14.418C23.175,13.698 22.944,13.128 22.482,12.708C22.02,12.288 21.393,12.078 20.601,12.078L15.741,12.078L15.741,10.854L20.457,10.854C21.201,10.854 21.807,10.665 22.275,10.287C22.743,9.909 22.977,9.354 22.977,8.622C22.977,7.89 22.746,7.338 22.284,6.966C21.822,6.594 21.213,6.408 20.457,6.408L15.741,6.408L15.741,5.184L20.565,5.184C21.693,5.184 22.605,5.49 23.301,6.102C23.997,6.714 24.345,7.548 24.345,8.604C24.345,9.264 24.168,9.846 23.814,10.35C23.46,10.854 23.007,11.208 22.455,11.412C23.091,11.64 23.598,12.018 23.976,12.546C24.354,13.074 24.543,13.71 24.543,14.454C24.543,15.594 24.198,16.47 23.508,17.082C22.818,17.694 21.891,18 20.727,18L15.741,18L15.741,16.776Z" style="fill:rgb(10,31,51);fill-rule:nonzero;"/>
            <path d="M36.135,18L34.695,18L31.311,7.128L27.891,18L26.451,18L30.663,5.184L31.923,5.184L36.135,18Z" style="fill:rgb(10,31,51);fill-rule:nonzero;"/>
            <path d="M47.997,18L46.701,18L39.897,7.722L39.897,18L38.529,18L38.529,5.184L39.825,5.184L46.629,15.426L46.629,5.184L47.997,5.184L47.997,18Z" style="fill:rgb(10,31,51);fill-rule:nonzero;"/>
            <path d="M61.299,18L59.679,18L55.773,11.178L53.073,14.418L53.073,18L51.705,18L51.705,5.184L53.073,5.184L53.073,12.546L59.049,5.184L60.723,5.184L56.691,10.134L61.299,18Z" style="fill:rgb(10,31,51);fill-rule:nonzero;"/>
            <path d="M62.685,5.184L70.641,5.184L70.641,6.408L62.685,6.408L62.685,5.184ZM62.685,10.926L69.669,10.926L69.669,12.15L62.685,12.15L62.685,10.926ZM62.685,16.776L70.641,16.776L70.641,18L62.685,18L62.685,16.776Z" style="fill:rgb(10,31,51);fill-rule:nonzero;"/>
            <path d="M82.953,18L81.657,18L74.853,7.722L74.853,18L73.485,18L73.485,5.184L74.781,5.184L81.585,15.426L81.585,5.184L82.953,5.184L82.953,18Z" style="fill:rgb(10,31,51);fill-rule:nonzero;"/>
            <g transform="matrix(0.135691,0,0,0.135691,-219.55,-72.6487)">
                <path d="M1464.3,805.32C1464.3,813.008 1461.53,819.125 1455.99,823.672C1450.45,828.136 1443.06,830.368 1433.8,830.368C1427.18,830.368 1421.52,829.459 1416.81,827.64C1412.1,825.821 1407.71,822.845 1403.66,818.712L1409.99,812.388C1413.54,815.943 1417.14,818.423 1420.78,819.828C1424.5,821.233 1428.92,821.936 1434.04,821.936C1440.58,821.936 1445.7,820.531 1449.42,817.72C1453.14,814.827 1455,810.776 1455,805.568C1455,800.773 1453.55,797.095 1450.66,794.532C1448.43,792.465 1444.58,791.019 1439.13,790.192L1428.84,788.704C1421.89,787.629 1416.52,785.397 1412.72,782.008C1408.17,777.957 1405.9,772.419 1405.9,765.392C1405.9,757.869 1408.42,751.876 1413.46,747.412C1418.59,742.865 1425.49,740.592 1434.17,740.592C1439.71,740.592 1444.5,741.377 1448.55,742.948C1452.68,744.436 1456.65,746.875 1460.46,750.264L1454.38,756.34C1449.01,751.215 1442.14,748.652 1433.8,748.652C1427.93,748.652 1423.34,750.14 1420.03,753.116C1416.73,756.092 1415.07,760.101 1415.07,765.144C1415.07,769.691 1416.39,773.121 1419.04,775.436C1421.6,777.668 1425.45,779.197 1430.57,780.024L1440.86,781.636C1445,782.297 1448.18,783.083 1450.41,783.992C1452.73,784.819 1454.88,786.141 1456.86,787.96C1461.82,792.259 1464.3,798.045 1464.3,805.32ZM1548.8,800.484C1548.8,809.247 1545.87,816.439 1540,822.06C1534.21,827.599 1526.86,830.368 1517.93,830.368C1509,830.368 1501.64,827.599 1495.86,822.06C1490.07,816.439 1487.18,809.247 1487.18,800.484L1487.18,741.336L1496.6,741.336L1496.6,799.74C1496.6,806.436 1498.54,811.809 1502.43,815.86C1506.31,819.911 1511.48,821.936 1517.93,821.936C1524.38,821.936 1529.54,819.911 1533.43,815.86C1537.4,811.809 1539.38,806.436 1539.38,799.74L1539.38,741.336L1548.8,741.336L1548.8,800.484ZM1630.7,805.32C1630.7,813.008 1627.93,819.125 1622.4,823.672C1616.86,828.136 1609.46,830.368 1600.2,830.368C1593.59,830.368 1587.92,829.459 1583.21,827.64C1578.5,825.821 1574.12,822.845 1570.07,818.712L1576.39,812.388C1579.95,815.943 1583.54,818.423 1587.18,819.828C1590.9,821.233 1595.32,821.936 1600.45,821.936C1606.98,821.936 1612.1,820.531 1615.82,817.72C1619.54,814.827 1621.4,810.776 1621.4,805.568C1621.4,800.773 1619.96,797.095 1617.06,794.532C1614.83,792.465 1610.99,791.019 1605.53,790.192L1595.24,788.704C1588.3,787.629 1582.92,785.397 1579.12,782.008C1574.57,777.957 1572.3,772.419 1572.3,765.392C1572.3,757.869 1574.82,751.876 1579.86,747.412C1584.99,742.865 1591.89,740.592 1600.57,740.592C1606.11,740.592 1610.9,741.377 1614.96,742.948C1619.09,744.436 1623.06,746.875 1626.86,750.264L1620.78,756.34C1615.41,751.215 1608.55,748.652 1600.2,748.652C1594.33,748.652 1589.74,750.14 1586.44,753.116C1583.13,756.092 1581.48,760.101 1581.48,765.144C1581.48,769.691 1582.8,773.121 1585.44,775.436C1588.01,777.668 1591.85,779.197 1596.98,780.024L1607.27,781.636C1611.4,782.297 1614.58,783.083 1616.82,783.992C1619.13,784.819 1621.28,786.141 1623.26,787.96C1628.22,792.259 1630.7,798.045 1630.7,805.32ZM1705.04,749.768L1679.5,749.768L1679.5,829.624L1670.07,829.624L1670.07,749.768L1644.53,749.768L1644.53,741.336L1705.04,741.336L1705.04,749.768ZM1782.97,829.624L1773.05,829.624L1749.74,754.728L1726.18,829.624L1716.26,829.624L1745.28,741.336L1753.96,741.336L1782.97,829.624ZM1813.29,829.624L1803.86,829.624L1803.86,741.336L1813.29,741.336L1813.29,829.624ZM1908.46,829.624L1899.53,829.624L1852.66,758.82L1852.66,829.624L1843.23,829.624L1843.23,741.336L1852.16,741.336L1899.03,811.892L1899.03,741.336L1908.46,741.336L1908.46,829.624ZM1996.06,829.624L1986.14,829.624L1962.83,754.728L1939.27,829.624L1929.35,829.624L1958.36,741.336L1967.04,741.336L1996.06,829.624ZM2016.95,821.192L2050.43,821.192C2054.65,821.192 2058.66,819.663 2062.46,816.604C2066.26,813.463 2068.16,809.577 2068.16,804.948C2068.16,799.988 2066.55,796.061 2063.33,793.168C2060.19,790.275 2055.89,788.828 2050.43,788.828L2016.95,788.828L2016.95,780.396L2049.44,780.396C2054.57,780.396 2058.74,779.115 2061.96,776.552C2065.19,773.907 2066.8,770.063 2066.8,765.02C2066.8,759.977 2065.19,756.175 2061.96,753.612C2058.82,751.049 2054.65,749.768 2049.44,749.768L2016.95,749.768L2016.95,741.336L2050.18,741.336C2057.95,741.336 2064.24,743.444 2069.03,747.66C2073.83,751.876 2076.22,757.621 2076.22,764.896C2076.22,769.443 2074.98,773.452 2072.5,776.924C2070.11,780.396 2067.01,782.835 2063.2,784.24C2067.59,785.811 2071.06,788.415 2073.62,792.052C2076.26,795.689 2077.59,800.071 2077.59,805.196C2077.59,813.049 2075.19,819.084 2070.4,823.3C2065.68,827.516 2059.32,829.624 2051.3,829.624L2016.95,829.624L2016.95,821.192ZM2158.74,829.624L2104.18,829.624L2104.18,741.336L2113.61,741.336L2113.61,821.192L2158.74,821.192L2158.74,829.624ZM2178.39,741.336L2233.2,741.336L2233.2,749.768L2178.39,749.768L2178.39,741.336ZM2178.39,780.892L2226.51,780.892L2226.51,789.324L2178.39,789.324L2178.39,780.892ZM2178.39,821.192L2233.2,821.192L2233.2,829.624L2178.39,829.624L2178.39,821.192Z" style="fill:rgb(137,137,137);fill-rule:nonzero;"/>
            </g>
            <g transform="matrix(0.135691,0,0,0.135691,-219.55,-72.6487)">
                <path d="M1153.3,936.39L1131.3,936.39L1079.6,770.29L1027.35,936.39L1005.35,936.39L1069.7,740.59L1088.95,740.59L1153.3,936.39ZM1210.78,936.39L1189.88,936.39L1189.88,740.59L1210.78,740.59L1210.78,936.39ZM1371.64,905.315L1347.72,905.315L1347.72,936.39L1328.19,936.39L1328.19,905.315L1250.1,905.315L1250.1,887.44L1320.77,740.59L1341.94,740.59L1271.27,887.44L1328.19,887.44L1328.19,831.89L1347.72,831.89L1347.72,887.44L1371.64,887.44L1371.64,905.315Z" style="fill:rgb(137,137,137);fill-rule:nonzero;"/>
            </g>
            <g transform="matrix(0.135691,0,0,0.135691,-219.55,-72.6487)">
                <path d="M1463.6,910.1C1462.03,918.284 1458.52,924.732 1453.06,929.444C1447.6,934.073 1440.91,936.388 1432.97,936.388C1424.04,936.388 1416.69,933.495 1410.9,927.708C1407.02,923.823 1404.58,919.565 1403.58,914.936C1402.59,910.307 1402.1,902.495 1402.1,891.5C1402.1,880.505 1402.59,872.693 1403.58,868.064C1404.58,863.435 1407.02,859.177 1410.9,855.292C1416.69,849.505 1424.04,846.612 1432.97,846.612C1440.99,846.612 1447.69,848.927 1453.06,853.556C1458.52,858.185 1462.03,864.633 1463.6,872.9L1453.93,872.9C1452.77,867.361 1450.33,863.021 1446.61,859.88C1442.98,856.656 1438.43,855.044 1432.97,855.044C1426.94,855.044 1421.85,857.111 1417.72,861.244C1415.08,863.972 1413.38,867.32 1412.64,871.288C1411.89,875.173 1411.52,881.911 1411.52,891.5C1411.52,901.089 1411.89,907.868 1412.64,911.836C1413.38,915.721 1415.08,919.028 1417.72,921.756C1421.85,925.889 1426.94,927.956 1432.97,927.956C1438.43,927.956 1443.02,926.385 1446.74,923.244C1450.54,920.02 1453.02,915.639 1454.18,910.1L1463.6,910.1ZM1534.49,868.188C1535.48,872.817 1535.98,880.588 1535.98,891.5C1535.98,902.412 1535.48,910.183 1534.49,914.812C1533.5,919.441 1531.02,923.74 1527.05,927.708C1521.26,933.495 1513.94,936.388 1505.1,936.388C1496.17,936.388 1488.82,933.495 1483.03,927.708C1479.14,923.823 1476.7,919.565 1475.71,914.936C1474.72,910.307 1474.22,902.495 1474.22,891.5C1474.22,880.505 1474.72,872.693 1475.71,868.064C1476.7,863.435 1479.14,859.177 1483.03,855.292C1488.82,849.505 1496.17,846.612 1505.1,846.612C1513.94,846.612 1521.26,849.505 1527.05,855.292C1531.02,859.26 1533.5,863.559 1534.49,868.188ZM1525.44,911.836C1526.18,907.868 1526.55,901.089 1526.55,891.5C1526.55,881.911 1526.18,875.173 1525.44,871.288C1524.69,867.32 1523,863.972 1520.35,861.244C1516.22,857.111 1511.13,855.044 1505.1,855.044C1499.07,855.044 1493.98,857.111 1489.85,861.244C1487.2,863.972 1485.51,867.32 1484.76,871.288C1484.02,875.173 1483.65,881.911 1483.65,891.5C1483.65,901.089 1484.02,907.868 1484.76,911.836C1485.51,915.721 1487.2,919.028 1489.85,921.756C1493.98,925.889 1499.07,927.956 1505.1,927.956C1511.13,927.956 1516.22,925.889 1520.35,921.756C1523,919.028 1524.69,915.721 1525.44,911.836ZM1618.4,935.644L1609.47,935.644L1562.6,864.84L1562.6,935.644L1553.17,935.644L1553.17,847.356L1562.1,847.356L1608.97,917.912L1608.97,847.356L1618.4,847.356L1618.4,935.644ZM1692.14,911.34C1692.14,919.028 1689.37,925.145 1683.83,929.692C1678.29,934.156 1670.89,936.388 1661.63,936.388C1655.02,936.388 1649.36,935.479 1644.64,933.66C1639.93,931.841 1635.55,928.865 1631.5,924.732L1637.82,918.408C1641.38,921.963 1644.98,924.443 1648.61,925.848C1652.33,927.253 1656.76,927.956 1661.88,927.956C1668.41,927.956 1673.54,926.551 1677.26,923.74C1680.98,920.847 1682.84,916.796 1682.84,911.588C1682.84,906.793 1681.39,903.115 1678.5,900.552C1676.26,898.485 1672.42,897.039 1666.96,896.212L1656.67,894.724C1649.73,893.649 1644.36,891.417 1640.55,888.028C1636.01,883.977 1633.73,878.439 1633.73,871.412C1633.73,863.889 1636.25,857.896 1641.3,853.432C1646.42,848.885 1653.32,846.612 1662,846.612C1667.54,846.612 1672.34,847.397 1676.39,848.968C1680.52,850.456 1684.49,852.895 1688.29,856.284L1682.22,862.36C1676.84,857.235 1669.98,854.672 1661.63,854.672C1655.76,854.672 1651.17,856.16 1647.87,859.136C1644.56,862.112 1642.91,866.121 1642.91,871.164C1642.91,875.711 1644.23,879.141 1646.88,881.456C1649.44,883.688 1653.28,885.217 1658.41,886.044L1668.7,887.656C1672.83,888.317 1676.02,889.103 1678.25,890.012C1680.56,890.839 1682.71,892.161 1684.7,893.98C1689.66,898.279 1692.14,904.065 1692.14,911.34ZM1757.07,855.788L1731.53,855.788L1731.53,935.644L1722.1,935.644L1722.1,855.788L1696.56,855.788L1696.56,847.356L1757.07,847.356L1757.07,855.788ZM1768.56,888.152L1801.55,888.152C1806.92,888.152 1811.18,886.788 1814.32,884.06C1817.54,881.249 1819.16,877.24 1819.16,872.032C1819.16,866.824 1817.54,862.815 1814.32,860.004C1811.1,857.193 1806.84,855.788 1801.55,855.788L1768.56,855.788L1768.56,847.356L1802.42,847.356C1810.19,847.356 1816.47,849.588 1821.26,854.052C1826.14,858.433 1828.58,864.385 1828.58,871.908C1828.58,878.191 1826.84,883.399 1823.37,887.532C1819.9,891.665 1815.23,894.352 1809.36,895.592L1830.32,935.644L1819.28,935.644L1799.19,896.46L1777.99,896.46L1777.99,935.644L1768.56,935.644L1768.56,888.152ZM1905.29,906.504C1905.29,915.267 1902.36,922.459 1896.49,928.08C1890.7,933.619 1883.35,936.388 1874.42,936.388C1865.49,936.388 1858.13,933.619 1852.35,928.08C1846.56,922.459 1843.67,915.267 1843.67,906.504L1843.67,847.356L1853.09,847.356L1853.09,905.76C1853.09,912.456 1855.03,917.829 1858.92,921.88C1862.8,925.931 1867.97,927.956 1874.42,927.956C1880.87,927.956 1886.03,925.931 1889.92,921.88C1893.89,917.829 1895.87,912.456 1895.87,905.76L1895.87,847.356L1905.29,847.356L1905.29,906.504ZM1982.75,910.1C1981.18,918.284 1977.67,924.732 1972.21,929.444C1966.76,934.073 1960.06,936.388 1952.13,936.388C1943.2,936.388 1935.84,933.495 1930.05,927.708C1926.17,923.823 1923.73,919.565 1922.74,914.936C1921.75,910.307 1921.25,902.495 1921.25,891.5C1921.25,880.505 1921.75,872.693 1922.74,868.064C1923.73,863.435 1926.17,859.177 1930.05,855.292C1935.84,849.505 1943.2,846.612 1952.13,846.612C1960.14,846.612 1966.84,848.927 1972.21,853.556C1977.67,858.185 1981.18,864.633 1982.75,872.9L1973.08,872.9C1971.92,867.361 1969.49,863.021 1965.77,859.88C1962.13,856.656 1957.58,855.044 1952.13,855.044C1946.09,855.044 1941.01,857.111 1936.87,861.244C1934.23,863.972 1932.53,867.32 1931.79,871.288C1931.05,875.173 1930.67,881.911 1930.67,891.5C1930.67,901.089 1931.05,907.868 1931.79,911.836C1932.53,915.721 1934.23,919.028 1936.87,921.756C1941.01,925.889 1946.09,927.956 1952.13,927.956C1957.58,927.956 1962.17,926.385 1965.89,923.244C1969.69,920.02 1972.17,915.639 1973.33,910.1L1982.75,910.1ZM2050.05,855.788L2024.5,855.788L2024.5,935.644L2015.08,935.644L2015.08,855.788L1989.53,855.788L1989.53,847.356L2050.05,847.356L2050.05,855.788ZM2070.96,935.644L2061.54,935.644L2061.54,847.356L2070.96,847.356L2070.96,935.644ZM2148.42,868.188C2149.41,872.817 2149.91,880.588 2149.91,891.5C2149.91,902.412 2149.41,910.183 2148.42,914.812C2147.43,919.441 2144.95,923.74 2140.98,927.708C2135.2,933.495 2127.88,936.388 2119.03,936.388C2110.11,936.388 2102.75,933.495 2096.96,927.708C2093.08,923.823 2090.64,919.565 2089.65,914.936C2088.65,910.307 2088.16,902.495 2088.16,891.5C2088.16,880.505 2088.65,872.693 2089.65,868.064C2090.64,863.435 2093.08,859.177 2096.96,855.292C2102.75,849.505 2110.11,846.612 2119.03,846.612C2127.88,846.612 2135.2,849.505 2140.98,855.292C2144.95,859.26 2147.43,863.559 2148.42,868.188ZM2139.37,911.836C2140.11,907.868 2140.49,901.089 2140.49,891.5C2140.49,881.911 2140.11,875.173 2139.37,871.288C2138.63,867.32 2136.93,863.972 2134.29,861.244C2130.15,857.111 2125.07,855.044 2119.03,855.044C2113,855.044 2107.91,857.111 2103.78,861.244C2101.14,863.972 2099.44,867.32 2098.7,871.288C2097.95,875.173 2097.58,881.911 2097.58,891.5C2097.58,901.089 2097.95,907.868 2098.7,911.836C2099.44,915.721 2101.14,919.028 2103.78,921.756C2107.91,925.889 2113,927.956 2119.03,927.956C2125.07,927.956 2130.15,925.889 2134.29,921.756C2136.93,919.028 2138.63,915.721 2139.37,911.836ZM2233.33,935.644L2224.4,935.644L2177.53,864.84L2177.53,935.644L2168.11,935.644L2168.11,847.356L2177.03,847.356L2223.91,917.912L2223.91,847.356L2233.33,847.356L2233.33,935.644Z" style="fill:rgb(137,137,137);fill-rule:nonzero;"/>
            </g>
        </g>
    </g>
    <g transform="matrix(1,0,0,1,-1005.3,-775.59)">
        <g transform="matrix(1,-0,-0,1,1005.3,775.59)">
        </g>
    </g>
</svg>
