<?xml version="1.0" encoding="UTF-8" standalone="no"?>
<!DOCTYPE svg PUBLIC "-//W3C//DTD SVG 1.1//EN" "http://www.w3.org/Graphics/SVG/1.1/DTD/svg11.dtd">
<svg width="100%" height="100%" viewBox="0 0 300 200" version="1.1" xmlns="http://www.w3.org/2000/svg" xmlns:xlink="http://www.w3.org/1999/xlink" xml:space="preserve" xmlns:serif="http://www.serif.com/" style="fill-rule:evenodd;clip-rule:evenodd;stroke-linejoin:round;stroke-miterlimit:2;">
    <g transform="matrix(1.71922,0,0,1.71922,-4.76041,-3.05351)">
        <g transform="matrix(2.10898,0,0,2.10898,88.5652,76.322)">
            <g transform="matrix(48,0,0,48,-43.224,0)">
                <path d="M0.588,-0.503C0.588,-0.44 0.568,-0.389 0.527,-0.351C0.486,-0.312 0.433,-0.293 0.368,-0.293L0.179,-0.293L0.179,-0L0.103,-0L0.103,-0.712L0.368,-0.712C0.433,-0.712 0.486,-0.693 0.527,-0.655C0.568,-0.616 0.588,-0.566 0.588,-0.503ZM0.471,-0.397C0.498,-0.422 0.512,-0.457 0.512,-0.503C0.512,-0.549 0.499,-0.584 0.472,-0.608C0.444,-0.632 0.408,-0.644 0.362,-0.644L0.179,-0.644L0.179,-0.361L0.362,-0.361C0.408,-0.361 0.444,-0.373 0.471,-0.397Z" style="fill:rgb(10,31,51);fill-rule:nonzero;"/>
            </g>
            <g transform="matrix(48,0,0,48,10.92,0)">
                <path d="M0.103,-0.068L0.334,-0.068C0.396,-0.068 0.443,-0.085 0.474,-0.12C0.489,-0.135 0.5,-0.157 0.507,-0.184C0.514,-0.211 0.518,-0.236 0.519,-0.259C0.52,-0.282 0.521,-0.314 0.521,-0.356C0.521,-0.398 0.52,-0.43 0.519,-0.453C0.518,-0.476 0.514,-0.501 0.507,-0.528C0.5,-0.555 0.489,-0.577 0.474,-0.592C0.443,-0.627 0.396,-0.644 0.334,-0.644L0.103,-0.644L0.103,-0.712L0.347,-0.712C0.426,-0.712 0.488,-0.687 0.534,-0.637C0.553,-0.616 0.568,-0.588 0.578,-0.555C0.588,-0.521 0.594,-0.491 0.595,-0.466C0.596,-0.441 0.597,-0.404 0.597,-0.356C0.597,-0.308 0.596,-0.271 0.595,-0.246C0.594,-0.221 0.588,-0.191 0.578,-0.158C0.568,-0.124 0.553,-0.096 0.534,-0.075C0.488,-0.025 0.426,-0 0.347,-0L0.103,-0L0.103,-0.068Z" style="fill:rgb(10,31,51);fill-rule:nonzero;"/>
            </g>
        </g>
        <g transform="matrix(1,0,0,1,86.9343,67.2618)">
            <g transform="matrix(101.231,0,0,101.231,-26.4213,0)">
                <path d="M0.47,-0.234L0.295,-0.234L0.295,-0.058L0.228,-0.058L0.228,-0.234L0.052,-0.234L0.052,-0.301L0.228,-0.301L0.228,-0.475L0.295,-0.475L0.295,-0.301L0.47,-0.301L0.47,-0.234Z" style="fill:rgb(10,31,51);fill-rule:nonzero;"/>
            </g>
        </g>
    </g>
</svg>
