<?xml version="1.0" encoding="UTF-8" standalone="no"?>
<!DOCTYPE svg PUBLIC "-//W3C//DTD SVG 1.1//EN" "http://www.w3.org/Graphics/SVG/1.1/DTD/svg11.dtd">
<svg width="100%" height="100%" viewBox="0 0 300 200" version="1.1" xmlns="http://www.w3.org/2000/svg" xmlns:xlink="http://www.w3.org/1999/xlink" xml:space="preserve" xmlns:serif="http://www.serif.com/" style="fill-rule:evenodd;clip-rule:evenodd;stroke-linejoin:round;stroke-miterlimit:2;">
    <g transform="matrix(1.71922,0,0,1.71922,-4.76041,-3.05351)">
        <g transform="matrix(2.10898,0,0,2.10898,88.5652,76.322)">
            <g transform="matrix(48,0,0,48,-43.224,0)">
                <path d="M0.588,-0.503C0.588,-0.44 0.568,-0.389 0.527,-0.351C0.486,-0.312 0.433,-0.293 0.368,-0.293L0.179,-0.293L0.179,-0L0.103,-0L0.103,-0.712L0.368,-0.712C0.433,-0.712 0.486,-0.693 0.527,-0.655C0.568,-0.616 0.588,-0.566 0.588,-0.503ZM0.471,-0.397C0.498,-0.422 0.512,-0.457 0.512,-0.503C0.512,-0.549 0.499,-0.584 0.472,-0.608C0.444,-0.632 0.408,-0.644 0.362,-0.644L0.179,-0.644L0.179,-0.361L0.362,-0.361C0.408,-0.361 0.444,-0.373 0.471,-0.397Z" style="fill:rgb(10,31,51);fill-rule:nonzero;"/>
            </g>
            <g transform="matrix(48,0,0,48,10.92,0)">
                <path d="M0.103,-0.068L0.334,-0.068C0.396,-0.068 0.443,-0.085 0.474,-0.12C0.489,-0.135 0.5,-0.157 0.507,-0.184C0.514,-0.211 0.518,-0.236 0.519,-0.259C0.52,-0.282 0.521,-0.314 0.521,-0.356C0.521,-0.398 0.52,-0.43 0.519,-0.453C0.518,-0.476 0.514,-0.501 0.507,-0.528C0.5,-0.555 0.489,-0.577 0.474,-0.592C0.443,-0.627 0.396,-0.644 0.334,-0.644L0.103,-0.644L0.103,-0.712L0.347,-0.712C0.426,-0.712 0.488,-0.687 0.534,-0.637C0.553,-0.616 0.568,-0.588 0.578,-0.555C0.588,-0.521 0.594,-0.491 0.595,-0.466C0.596,-0.441 0.597,-0.404 0.597,-0.356C0.597,-0.308 0.596,-0.271 0.595,-0.246C0.594,-0.221 0.588,-0.191 0.578,-0.158C0.568,-0.124 0.553,-0.096 0.534,-0.075C0.488,-0.025 0.426,-0 0.347,-0L0.103,-0L0.103,-0.068Z" style="fill:rgb(10,31,51);fill-rule:nonzero;"/>
            </g>
        </g>
        <g transform="matrix(1,0,0,1,89.7519,100)">
            <g transform="matrix(18,0,0,18,-84.825,0)">
                <path d="M0.588,-0.503C0.588,-0.44 0.568,-0.389 0.527,-0.351C0.486,-0.312 0.433,-0.293 0.368,-0.293L0.179,-0.293L0.179,-0L0.103,-0L0.103,-0.712L0.368,-0.712C0.433,-0.712 0.486,-0.693 0.527,-0.655C0.568,-0.616 0.588,-0.566 0.588,-0.503ZM0.471,-0.397C0.498,-0.422 0.512,-0.457 0.512,-0.503C0.512,-0.549 0.499,-0.584 0.472,-0.608C0.444,-0.632 0.408,-0.644 0.362,-0.644L0.179,-0.644L0.179,-0.361L0.362,-0.361C0.408,-0.361 0.444,-0.373 0.471,-0.397Z" style="fill:rgb(10,31,51);fill-rule:nonzero;"/>
            </g>
            <g transform="matrix(18,0,0,18,-72.945,0)">
                <path d="M0.103,-0.383L0.369,-0.383C0.412,-0.383 0.447,-0.394 0.473,-0.417C0.498,-0.439 0.511,-0.471 0.511,-0.513C0.511,-0.555 0.498,-0.587 0.472,-0.61C0.446,-0.633 0.412,-0.644 0.369,-0.644L0.103,-0.644L0.103,-0.712L0.376,-0.712C0.439,-0.712 0.49,-0.694 0.529,-0.659C0.568,-0.623 0.587,-0.575 0.587,-0.514C0.587,-0.463 0.573,-0.421 0.545,-0.388C0.517,-0.355 0.479,-0.333 0.432,-0.323L0.601,-0L0.512,-0L0.35,-0.316L0.179,-0.316L0.179,-0L0.103,-0L0.103,-0.383Z" style="fill:rgb(10,31,51);fill-rule:nonzero;"/>
            </g>
            <g transform="matrix(18,0,0,18,-61.137,0)">
                <path d="M0.562,-0.544C0.57,-0.507 0.574,-0.444 0.574,-0.356C0.574,-0.268 0.57,-0.205 0.562,-0.168C0.554,-0.131 0.534,-0.096 0.502,-0.064C0.455,-0.017 0.396,0.006 0.325,0.006C0.253,0.006 0.194,-0.017 0.147,-0.064C0.116,-0.095 0.096,-0.13 0.088,-0.167C0.08,-0.204 0.076,-0.267 0.076,-0.356C0.076,-0.445 0.08,-0.508 0.088,-0.545C0.096,-0.582 0.116,-0.617 0.147,-0.648C0.194,-0.695 0.253,-0.718 0.325,-0.718C0.396,-0.718 0.455,-0.695 0.502,-0.648C0.534,-0.616 0.554,-0.581 0.562,-0.544ZM0.489,-0.192C0.495,-0.224 0.498,-0.279 0.498,-0.356C0.498,-0.433 0.495,-0.488 0.489,-0.52C0.483,-0.551 0.469,-0.578 0.448,-0.6C0.415,-0.633 0.374,-0.65 0.325,-0.65C0.276,-0.65 0.235,-0.633 0.202,-0.6C0.181,-0.578 0.167,-0.551 0.161,-0.52C0.155,-0.488 0.152,-0.433 0.152,-0.356C0.152,-0.279 0.155,-0.224 0.161,-0.193C0.167,-0.161 0.181,-0.134 0.202,-0.112C0.235,-0.079 0.276,-0.062 0.325,-0.062C0.374,-0.062 0.415,-0.079 0.448,-0.112C0.469,-0.134 0.483,-0.161 0.489,-0.192Z" style="fill:rgb(10,31,51);fill-rule:nonzero;"/>
            </g>
            <g transform="matrix(18,0,0,18,-48.897,0)">
                <path d="M0.576,-0.259C0.576,-0.217 0.572,-0.182 0.563,-0.155C0.554,-0.128 0.538,-0.101 0.515,-0.076C0.465,-0.021 0.402,0.006 0.325,0.006C0.253,0.006 0.194,-0.017 0.147,-0.064C0.116,-0.095 0.096,-0.13 0.088,-0.167C0.08,-0.204 0.076,-0.267 0.076,-0.356C0.076,-0.445 0.08,-0.508 0.088,-0.545C0.096,-0.582 0.116,-0.617 0.147,-0.648C0.194,-0.695 0.253,-0.718 0.325,-0.718C0.391,-0.718 0.446,-0.698 0.492,-0.659C0.537,-0.619 0.564,-0.568 0.574,-0.505L0.498,-0.505C0.488,-0.55 0.468,-0.586 0.438,-0.612C0.407,-0.637 0.37,-0.65 0.325,-0.65C0.275,-0.65 0.234,-0.633 0.202,-0.6C0.181,-0.578 0.167,-0.551 0.161,-0.52C0.155,-0.488 0.152,-0.433 0.152,-0.356C0.152,-0.279 0.155,-0.224 0.161,-0.193C0.167,-0.161 0.181,-0.134 0.202,-0.112C0.234,-0.079 0.275,-0.062 0.325,-0.062C0.382,-0.062 0.427,-0.082 0.46,-0.123C0.487,-0.156 0.5,-0.199 0.5,-0.252L0.5,-0.307L0.325,-0.307L0.325,-0.372L0.576,-0.372L0.576,-0.259Z" style="fill:rgb(10,31,51);fill-rule:nonzero;"/>
            </g>
            <g transform="matrix(18,0,0,18,-36.657,0)">
                <path d="M0.103,-0.383L0.369,-0.383C0.412,-0.383 0.447,-0.394 0.473,-0.417C0.498,-0.439 0.511,-0.471 0.511,-0.513C0.511,-0.555 0.498,-0.587 0.472,-0.61C0.446,-0.633 0.412,-0.644 0.369,-0.644L0.103,-0.644L0.103,-0.712L0.376,-0.712C0.439,-0.712 0.49,-0.694 0.529,-0.659C0.568,-0.623 0.587,-0.575 0.587,-0.514C0.587,-0.463 0.573,-0.421 0.545,-0.388C0.517,-0.355 0.479,-0.333 0.432,-0.323L0.601,-0L0.512,-0L0.35,-0.316L0.179,-0.316L0.179,-0L0.103,-0L0.103,-0.383Z" style="fill:rgb(10,31,51);fill-rule:nonzero;"/>
            </g>
            <g transform="matrix(18,0,0,18,-24.489,0)">
                <path d="M0.568,-0L0.488,-0L0.3,-0.604L0.11,-0L0.03,-0L0.264,-0.712L0.334,-0.712L0.568,-0Z" style="fill:rgb(10,31,51);fill-rule:nonzero;"/>
            </g>
            <g transform="matrix(18,0,0,18,-13.185,0)">
                <path d="M0.713,-0L0.637,-0L0.637,-0.541L0.442,-0.112L0.377,-0.112L0.179,-0.541L0.179,-0L0.103,-0L0.103,-0.712L0.179,-0.712L0.411,-0.207L0.637,-0.712L0.713,-0.712L0.713,-0Z" style="fill:rgb(10,31,51);fill-rule:nonzero;"/>
            </g>
            <g transform="matrix(18,0,0,18,2.043,0)">
                <path d="M0.713,-0L0.637,-0L0.637,-0.541L0.442,-0.112L0.377,-0.112L0.179,-0.541L0.179,-0L0.103,-0L0.103,-0.712L0.179,-0.712L0.411,-0.207L0.637,-0.712L0.713,-0.712L0.713,-0Z" style="fill:rgb(10,31,51);fill-rule:nonzero;"/>
            </g>
            <g transform="matrix(18,0,0,18,17.271,0)">
                <rect x="0.103" y="-0.712" width="0.076" height="0.712" style="fill:rgb(10,31,51);fill-rule:nonzero;"/>
            </g>
            <g transform="matrix(18,0,0,18,22.887,0)">
                <path d="M0.103,-0.712L0.545,-0.712L0.545,-0.644L0.103,-0.644L0.103,-0.712ZM0.103,-0.393L0.491,-0.393L0.491,-0.325L0.103,-0.325L0.103,-0.393ZM0.103,-0.068L0.545,-0.068L0.545,-0L0.103,-0L0.103,-0.068Z" style="fill:rgb(10,31,51);fill-rule:nonzero;"/>
            </g>
            <g transform="matrix(18,0,0,18,34.227,0)">
                <path d="M0.103,-0.383L0.369,-0.383C0.412,-0.383 0.447,-0.394 0.473,-0.417C0.498,-0.439 0.511,-0.471 0.511,-0.513C0.511,-0.555 0.498,-0.587 0.472,-0.61C0.446,-0.633 0.412,-0.644 0.369,-0.644L0.103,-0.644L0.103,-0.712L0.376,-0.712C0.439,-0.712 0.49,-0.694 0.529,-0.659C0.568,-0.623 0.587,-0.575 0.587,-0.514C0.587,-0.463 0.573,-0.421 0.545,-0.388C0.517,-0.355 0.479,-0.333 0.432,-0.323L0.601,-0L0.512,-0L0.35,-0.316L0.179,-0.316L0.179,-0L0.103,-0L0.103,-0.383Z" style="fill:rgb(10,31,51);fill-rule:nonzero;"/>
            </g>
            <g transform="matrix(18,0,0,18,46.575,0)">
                <path d="M0.59,-0.235C0.59,-0.164 0.567,-0.107 0.52,-0.062C0.472,-0.017 0.413,0.006 0.341,0.006C0.269,0.006 0.21,-0.017 0.163,-0.062C0.116,-0.107 0.093,-0.164 0.093,-0.235L0.093,-0.712L0.169,-0.712L0.169,-0.241C0.169,-0.187 0.185,-0.144 0.216,-0.111C0.247,-0.078 0.289,-0.062 0.341,-0.062C0.393,-0.062 0.435,-0.078 0.467,-0.111C0.498,-0.144 0.514,-0.187 0.514,-0.241L0.514,-0.712L0.59,-0.712L0.59,-0.235Z" style="fill:rgb(10,31,51);fill-rule:nonzero;"/>
            </g>
            <g transform="matrix(18,0,0,18,59.409,0)">
                <path d="M0.629,-0L0.557,-0L0.179,-0.571L0.179,-0L0.103,-0L0.103,-0.712L0.175,-0.712L0.553,-0.143L0.553,-0.712L0.629,-0.712L0.629,-0Z" style="fill:rgb(10,31,51);fill-rule:nonzero;"/>
            </g>
            <g transform="matrix(18,0,0,18,73.125,0)">
                <path d="M0.576,-0.259C0.576,-0.217 0.572,-0.182 0.563,-0.155C0.554,-0.128 0.538,-0.101 0.515,-0.076C0.465,-0.021 0.402,0.006 0.325,0.006C0.253,0.006 0.194,-0.017 0.147,-0.064C0.116,-0.095 0.096,-0.13 0.088,-0.167C0.08,-0.204 0.076,-0.267 0.076,-0.356C0.076,-0.445 0.08,-0.508 0.088,-0.545C0.096,-0.582 0.116,-0.617 0.147,-0.648C0.194,-0.695 0.253,-0.718 0.325,-0.718C0.391,-0.718 0.446,-0.698 0.492,-0.659C0.537,-0.619 0.564,-0.568 0.574,-0.505L0.498,-0.505C0.488,-0.55 0.468,-0.586 0.438,-0.612C0.407,-0.637 0.37,-0.65 0.325,-0.65C0.275,-0.65 0.234,-0.633 0.202,-0.6C0.181,-0.578 0.167,-0.551 0.161,-0.52C0.155,-0.488 0.152,-0.433 0.152,-0.356C0.152,-0.279 0.155,-0.224 0.161,-0.193C0.167,-0.161 0.181,-0.134 0.202,-0.112C0.234,-0.079 0.275,-0.062 0.325,-0.062C0.382,-0.062 0.427,-0.082 0.46,-0.123C0.487,-0.156 0.5,-0.199 0.5,-0.252L0.5,-0.307L0.325,-0.307L0.325,-0.372L0.576,-0.372L0.576,-0.259Z" style="fill:rgb(10,31,51);fill-rule:nonzero;"/>
            </g>
            <g transform="matrix(18,0,0,18,-84.807,18)">
                <path d="M0.59,-0.235C0.59,-0.164 0.567,-0.107 0.52,-0.062C0.472,-0.017 0.413,0.006 0.341,0.006C0.269,0.006 0.21,-0.017 0.163,-0.062C0.116,-0.107 0.093,-0.164 0.093,-0.235L0.093,-0.712L0.169,-0.712L0.169,-0.241C0.169,-0.187 0.185,-0.144 0.216,-0.111C0.247,-0.078 0.289,-0.062 0.341,-0.062C0.393,-0.062 0.435,-0.078 0.467,-0.111C0.498,-0.144 0.514,-0.187 0.514,-0.241L0.514,-0.712L0.59,-0.712L0.59,-0.235Z" style="fill:rgb(10,31,51);fill-rule:nonzero;"/>
            </g>
            <g transform="matrix(18,0,0,18,-72.513,18)">
                <path d="M0.629,-0L0.557,-0L0.179,-0.571L0.179,-0L0.103,-0L0.103,-0.712L0.175,-0.712L0.553,-0.143L0.553,-0.712L0.629,-0.712L0.629,-0Z" style="fill:rgb(10,31,51);fill-rule:nonzero;"/>
            </g>
            <g transform="matrix(18,0,0,18,-59.337,18)">
                <path d="M0.103,-0.068L0.334,-0.068C0.396,-0.068 0.443,-0.085 0.474,-0.12C0.489,-0.135 0.5,-0.157 0.507,-0.184C0.514,-0.211 0.518,-0.236 0.519,-0.259C0.52,-0.282 0.521,-0.314 0.521,-0.356C0.521,-0.398 0.52,-0.43 0.519,-0.453C0.518,-0.476 0.514,-0.501 0.507,-0.528C0.5,-0.555 0.489,-0.577 0.474,-0.592C0.443,-0.627 0.396,-0.644 0.334,-0.644L0.103,-0.644L0.103,-0.712L0.347,-0.712C0.426,-0.712 0.488,-0.687 0.534,-0.637C0.553,-0.616 0.568,-0.588 0.578,-0.555C0.588,-0.521 0.594,-0.491 0.595,-0.466C0.596,-0.441 0.597,-0.404 0.597,-0.356C0.597,-0.308 0.596,-0.271 0.595,-0.246C0.594,-0.221 0.588,-0.191 0.578,-0.158C0.568,-0.124 0.553,-0.096 0.534,-0.075C0.488,-0.025 0.426,-0 0.347,-0L0.103,-0L0.103,-0.068Z" style="fill:rgb(10,31,51);fill-rule:nonzero;"/>
            </g>
            <g transform="matrix(18,0,0,18,-42.741,18)">
                <path d="M0.595,-0.466C0.596,-0.441 0.597,-0.404 0.597,-0.356C0.597,-0.308 0.596,-0.271 0.595,-0.246C0.594,-0.221 0.588,-0.191 0.578,-0.158C0.568,-0.124 0.553,-0.096 0.534,-0.075C0.488,-0.025 0.426,-0 0.347,-0L0.103,-0L0.103,-0.712L0.347,-0.712C0.426,-0.712 0.488,-0.687 0.534,-0.637C0.553,-0.616 0.568,-0.588 0.578,-0.555C0.588,-0.521 0.594,-0.491 0.595,-0.466ZM0.519,-0.259C0.52,-0.282 0.521,-0.314 0.521,-0.356C0.521,-0.398 0.52,-0.43 0.519,-0.453C0.518,-0.476 0.514,-0.501 0.507,-0.528C0.5,-0.555 0.489,-0.577 0.474,-0.592C0.443,-0.627 0.396,-0.644 0.334,-0.644L0.179,-0.644L0.179,-0.068L0.334,-0.068C0.396,-0.068 0.443,-0.085 0.474,-0.12C0.489,-0.135 0.5,-0.157 0.507,-0.184C0.514,-0.211 0.518,-0.236 0.519,-0.259Z" style="fill:rgb(10,31,51);fill-rule:nonzero;"/>
            </g>
            <g transform="matrix(18,0,0,18,-30.627,18)">
                <path d="M0.568,-0L0.488,-0L0.3,-0.604L0.11,-0L0.03,-0L0.264,-0.712L0.334,-0.712L0.568,-0Z" style="fill:rgb(10,31,51);fill-rule:nonzero;"/>
            </g>
            <g transform="matrix(18,0,0,18,-19.863,18)">
                <path d="M0.518,-0.644L0.312,-0.644L0.312,-0L0.236,-0L0.236,-0.644L0.03,-0.644L0.03,-0.712L0.518,-0.712L0.518,-0.644Z" style="fill:rgb(10,31,51);fill-rule:nonzero;"/>
            </g>
            <g transform="matrix(18,0,0,18,-10.089,18)">
                <path d="M0.103,-0.712L0.545,-0.712L0.545,-0.644L0.103,-0.644L0.103,-0.712ZM0.103,-0.393L0.491,-0.393L0.491,-0.325L0.103,-0.325L0.103,-0.393ZM0.103,-0.068L0.545,-0.068L0.545,-0L0.103,-0L0.103,-0.068Z" style="fill:rgb(10,31,51);fill-rule:nonzero;"/>
            </g>
            <g transform="matrix(18,0,0,18,0.711,18)">
                <path d="M0.629,-0L0.557,-0L0.179,-0.571L0.179,-0L0.103,-0L0.103,-0.712L0.175,-0.712L0.553,-0.143L0.553,-0.712L0.629,-0.712L0.629,-0Z" style="fill:rgb(10,31,51);fill-rule:nonzero;"/>
            </g>
            <g transform="matrix(18,0,0,18,13.887,18)">
                <path d="M0.103,-0.068L0.373,-0.068C0.407,-0.068 0.439,-0.081 0.47,-0.106C0.501,-0.131 0.516,-0.162 0.516,-0.199C0.516,-0.239 0.503,-0.271 0.478,-0.294C0.452,-0.317 0.417,-0.329 0.373,-0.329L0.103,-0.329L0.103,-0.397L0.365,-0.397C0.406,-0.397 0.44,-0.408 0.466,-0.429C0.492,-0.45 0.505,-0.48 0.505,-0.521C0.505,-0.562 0.492,-0.592 0.467,-0.613C0.441,-0.634 0.407,-0.644 0.365,-0.644L0.103,-0.644L0.103,-0.712L0.371,-0.712C0.434,-0.712 0.484,-0.695 0.523,-0.661C0.562,-0.627 0.581,-0.581 0.581,-0.522C0.581,-0.485 0.571,-0.453 0.552,-0.425C0.532,-0.397 0.507,-0.377 0.476,-0.366C0.511,-0.353 0.54,-0.332 0.561,-0.303C0.582,-0.274 0.592,-0.238 0.592,-0.197C0.592,-0.134 0.573,-0.085 0.535,-0.051C0.496,-0.017 0.445,-0 0.38,-0L0.103,-0L0.103,-0.068Z" style="fill:rgb(10,31,51);fill-rule:nonzero;"/>
            </g>
            <g transform="matrix(18,0,0,18,25.911,18)">
                <path d="M0.568,-0L0.488,-0L0.3,-0.604L0.11,-0L0.03,-0L0.264,-0.712L0.334,-0.712L0.568,-0Z" style="fill:rgb(10,31,51);fill-rule:nonzero;"/>
            </g>
            <g transform="matrix(18,0,0,18,36.675,18)">
                <path d="M0.629,-0L0.557,-0L0.179,-0.571L0.179,-0L0.103,-0L0.103,-0.712L0.175,-0.712L0.553,-0.143L0.553,-0.712L0.629,-0.712L0.629,-0Z" style="fill:rgb(10,31,51);fill-rule:nonzero;"/>
            </g>
            <g transform="matrix(18,0,0,18,49.851,18)">
                <path d="M0.636,-0L0.546,-0L0.329,-0.379L0.179,-0.199L0.179,-0L0.103,-0L0.103,-0.712L0.179,-0.712L0.179,-0.303L0.511,-0.712L0.604,-0.712L0.38,-0.437L0.636,-0Z" style="fill:rgb(10,31,51);fill-rule:nonzero;"/>
            </g>
            <g transform="matrix(18,0,0,18,60.831,18)">
                <path d="M0.103,-0.712L0.545,-0.712L0.545,-0.644L0.103,-0.644L0.103,-0.712ZM0.103,-0.393L0.491,-0.393L0.491,-0.325L0.103,-0.325L0.103,-0.393ZM0.103,-0.068L0.545,-0.068L0.545,-0L0.103,-0L0.103,-0.068Z" style="fill:rgb(10,31,51);fill-rule:nonzero;"/>
            </g>
            <g transform="matrix(18,0,0,18,71.631,18)">
                <path d="M0.629,-0L0.557,-0L0.179,-0.571L0.179,-0L0.103,-0L0.103,-0.712L0.175,-0.712L0.553,-0.143L0.553,-0.712L0.629,-0.712L0.629,-0Z" style="fill:rgb(10,31,51);fill-rule:nonzero;"/>
            </g>
        </g>
        <g transform="matrix(1,0,0,1,86.9343,67.2618)">
            <g transform="matrix(101.231,0,0,101.231,-26.4213,0)">
                <path d="M0.47,-0.234L0.295,-0.234L0.295,-0.058L0.228,-0.058L0.228,-0.234L0.052,-0.234L0.052,-0.301L0.228,-0.301L0.228,-0.475L0.295,-0.475L0.295,-0.301L0.47,-0.301L0.47,-0.234Z" style="fill:rgb(10,31,51);fill-rule:nonzero;"/>
            </g>
        </g>
    </g>
</svg>
