<svg width="2755" height="871" xmlns="http://www.w3.org/2000/svg" xmlns:xlink="http://www.w3.org/1999/xlink" xml:space="preserve" overflow="hidden"><defs><clipPath id="clip0"><rect x="297" y="760" width="2755" height="871"/></clipPath><clipPath id="clip1"><rect x="297" y="760" width="2755" height="871"/></clipPath></defs><g clip-path="url(#clip0)" transform="translate(-297 -760)"><g clip-path="url(#clip1)"><path d="M309.5 1206C309.5 1143.32 360.316 1092.5 423 1092.5 485.684 1092.5 536.5 1143.32 536.5 1206 536.5 1268.68 485.684 1319.5 423 1319.5 360.316 1319.5 309.5 1268.68 309.5 1206Z" stroke="#7F7F7F" stroke-width="4.58333" stroke-linecap="butt" stroke-linejoin="miter" stroke-miterlimit="8" stroke-opacity="1" fill="none" fill-rule="evenodd"/><text fill="#000000" fill-opacity="1" font-family="DIN Pro Regular,DIN Pro Regular_MSFontService,sans-serif" font-style="normal" font-variant="normal" font-weight="400" font-stretch="normal" font-size="83" text-anchor="start" direction="ltr" writing-mode="lr-tb" unicode-bidi="normal" text-decoration="none" transform="matrix(1 0 0 1 352.288 1208)">160</text><text fill="#000000" fill-opacity="1" font-family="DIN Pro Regular,DIN Pro Regular_MSFontService,sans-serif" font-style="normal" font-variant="normal" font-weight="400" font-stretch="normal" font-size="48" text-anchor="start" direction="ltr" writing-mode="lr-tb" unicode-bidi="normal" text-decoration="none" transform="matrix(1 0 0 1 352.288 1273)">Stores</text><path d="M770.5 1206C770.5 1101.89 851.984 1017.5 952.5 1017.5 1053.02 1017.5 1134.5 1101.89 1134.5 1206 1134.5 1310.11 1053.02 1394.5 952.5 1394.5 851.984 1394.5 770.5 1310.11 770.5 1206Z" stroke="#7F7F7F" stroke-width="4.58333" stroke-linecap="butt" stroke-linejoin="miter" stroke-miterlimit="8" stroke-opacity="1" fill="none" fill-rule="evenodd"/><text fill="#000000" fill-opacity="1" font-family="DIN Pro Regular,DIN Pro Regular_MSFontService,sans-serif" font-style="normal" font-variant="normal" font-weight="400" font-stretch="normal" font-size="83" text-anchor="start" direction="ltr" writing-mode="lr-tb" unicode-bidi="normal" text-decoration="none" transform="matrix(1 0 0 1 812.08 1208)">110.956</text><text fill="#000000" fill-opacity="1" font-family="DIN Pro Regular,DIN Pro Regular_MSFontService,sans-serif" font-style="normal" font-variant="normal" font-weight="400" font-stretch="normal" font-size="48" text-anchor="start" direction="ltr" writing-mode="lr-tb" unicode-bidi="normal" text-decoration="none" transform="matrix(1 0 0 1 817.076 1273)">Data Objects</text><path d="M1359.5 1206.5C1359.5 1048.55 1487.77 920.5 1646 920.5 1804.23 920.5 1932.5 1048.55 1932.5 1206.5 1932.5 1364.45 1804.23 1492.5 1646 1492.5 1487.77 1492.5 1359.5 1364.45 1359.5 1206.5Z" stroke="#7F7F7F" stroke-width="4.58333" stroke-linecap="butt" stroke-linejoin="miter" stroke-miterlimit="8" stroke-opacity="1" fill="none" fill-rule="evenodd"/><text fill="#000000" fill-opacity="1" font-family="DIN Pro Regular,DIN Pro Regular_MSFontService,sans-serif" font-style="normal" font-variant="normal" font-weight="400" font-stretch="normal" font-size="83" text-anchor="start" direction="ltr" writing-mode="lr-tb" unicode-bidi="normal" text-decoration="none" transform="matrix(1 0 0 1 1520.95 1218)">678 TB</text><text fill="#000000" fill-opacity="1" font-family="DIN Pro Regular,DIN Pro Regular_MSFontService,sans-serif" font-style="normal" font-variant="normal" font-weight="400" font-stretch="normal" font-size="48" text-anchor="start" direction="ltr" writing-mode="lr-tb" unicode-bidi="normal" text-decoration="none" transform="matrix(1 0 0 1 1474.16 1290)">Data per annum</text><path d="M2183.5 1209.5C2183.5 979.749 2369.75 793.5 2599.5 793.5 2829.25 793.5 3015.5 979.749 3015.5 1209.5 3015.5 1439.25 2829.25 1625.5 2599.5 1625.5 2369.75 1625.5 2183.5 1439.25 2183.5 1209.5Z" stroke="#7F7F7F" stroke-width="4.58333" stroke-linecap="butt" stroke-linejoin="miter" stroke-miterlimit="8" stroke-opacity="1" fill="none" fill-rule="evenodd"/><text fill="#000000" fill-opacity="1" font-family="DIN Pro Regular,DIN Pro Regular_MSFontService,sans-serif" font-style="normal" font-variant="normal" font-weight="400" font-stretch="normal" font-size="151" text-anchor="start" direction="ltr" writing-mode="lr-tb" unicode-bidi="normal" text-decoration="none" transform="matrix(1 0 0 1 2457.45 1231)">20%</text><text fill="#000000" fill-opacity="1" font-family="DIN Pro Regular,DIN Pro Regular_MSFontService,sans-serif" font-style="normal" font-variant="normal" font-weight="400" font-stretch="normal" font-size="48" text-anchor="start" direction="ltr" writing-mode="lr-tb" unicode-bidi="normal" text-decoration="none" transform="matrix(1 0 0 1 2429.08 1306)">reduced cooling</text><path d="M2610.57 762.003C2855.23 762.873 3052.87 962.138 3052 1207.08 3051.59 1321.15 3007.29 1430.69 2928.31 1512.91L2883.91 1470.17C3029.89 1318.14 3025.15 1076.4 2873.32 930.229 2802.62 862.158 2708.44 823.982 2610.35 823.633Z" fill="#ED7D31" fill-rule="evenodd" fill-opacity="1"/></g></g></svg>