<svg width="2393" height="995" xmlns="http://www.w3.org/2000/svg" xmlns:xlink="http://www.w3.org/1999/xlink" xml:space="preserve" overflow="hidden"><g transform="translate(-705 -705)"><g><rect x="1680" y="1124" width="577" height="184" fill="#4472C4" fill-opacity="1"/><text fill="#FFFFFF" fill-opacity="1" font-family="DIN Pro Regular,DIN Pro Regular_MSFontService,sans-serif" font-style="normal" font-variant="normal" font-weight="400" font-stretch="normal" font-size="73" text-anchor="start" direction="ltr" writing-mode="lr-tb" unicode-bidi="normal" text-decoration="none" transform="matrix(1 0 0 1 1868.19 1244)">DBMS</text><rect x="1680" y="1513" width="577" height="184" fill="#4472C4" fill-opacity="1"/><text fill="#FFFFFF" fill-opacity="1" font-family="DIN Pro Regular,DIN Pro Regular_MSFontService,sans-serif" font-style="normal" font-variant="normal" font-weight="400" font-stretch="normal" font-size="73" text-anchor="start" direction="ltr" writing-mode="lr-tb" unicode-bidi="normal" text-decoration="none" transform="matrix(1 0 0 1 1793.14 1633)">Datenbank</text><text fill="#005C24" fill-opacity="1" font-family="DIN Pro Regular,DIN Pro Regular_MSFontService,sans-serif" font-style="normal" font-variant="normal" font-weight="400" font-stretch="normal" font-size="64" text-anchor="start" direction="ltr" writing-mode="lr-tb" unicode-bidi="normal" text-decoration="none" transform="matrix(1 0 0 1 2319.54 1190)">Datenbank</text><text fill="#005C24" fill-opacity="1" font-family="DIN Pro Regular,DIN Pro Regular_MSFontService,sans-serif" font-style="normal" font-variant="normal" font-weight="400" font-stretch="normal" font-size="64" text-anchor="start" direction="ltr" writing-mode="lr-tb" unicode-bidi="normal" text-decoration="none" transform="matrix(1 0 0 1 2626.62 1190)">-</text><text fill="#005C24" fill-opacity="1" font-family="DIN Pro Regular,DIN Pro Regular_MSFontService,sans-serif" font-style="normal" font-variant="normal" font-weight="400" font-stretch="normal" font-size="64" text-anchor="start" direction="ltr" writing-mode="lr-tb" unicode-bidi="normal" text-decoration="none" transform="matrix(1 0 0 1 2654.12 1190)">Management</text><text fill="#005C24" fill-opacity="1" font-family="DIN Pro Regular,DIN Pro Regular_MSFontService,sans-serif" font-style="normal" font-variant="normal" font-weight="400" font-stretch="normal" font-size="64" text-anchor="start" direction="ltr" writing-mode="lr-tb" unicode-bidi="normal" text-decoration="none" transform="matrix(1 0 0 1 3025.94 1190)">-</text><text fill="#005C24" fill-opacity="1" font-family="DIN Pro Regular,DIN Pro Regular_MSFontService,sans-serif" font-style="normal" font-variant="normal" font-weight="400" font-stretch="normal" font-size="64" text-anchor="start" direction="ltr" writing-mode="lr-tb" unicode-bidi="normal" text-decoration="none" transform="matrix(1 0 0 1 2319.54 1267)">system</text><text fill="#005C24" fill-opacity="1" font-family="DIN Pro Regular,DIN Pro Regular_MSFontService,sans-serif" font-style="normal" font-variant="normal" font-weight="400" font-stretch="normal" font-size="64" text-anchor="start" direction="ltr" writing-mode="lr-tb" unicode-bidi="normal" text-decoration="none" transform="matrix(1 0 0 1 2539.54 1267)">(DBMS)</text><path d="M2061 1434 2087 1434 2087 1330 2139 1330 2139 1434 2165 1434 2113 1486Z" fill="#A5A5A5" fill-rule="evenodd" fill-opacity="1"/><path d="M1877 1382 1851 1382 1851 1486 1799 1486 1799 1382 1773 1382 1825 1330Z" fill="#A5A5A5" fill-rule="evenodd" fill-opacity="1"/><text fill="#005C24" fill-opacity="1" font-family="DIN Pro Regular,DIN Pro Regular_MSFontService,sans-serif" font-style="normal" font-variant="normal" font-weight="400" font-stretch="normal" font-size="64" text-anchor="start" direction="ltr" writing-mode="lr-tb" unicode-bidi="normal" text-decoration="none" transform="matrix(1 0 0 1 747.463 1448)">Datenbanksystem (DBS)</text><rect x="1223" y="711" width="427" height="236" fill="#70AD47" fill-opacity="1"/><text fill="#FFFFFF" fill-opacity="1" font-family="DIN Pro Regular,DIN Pro Regular_MSFontService,sans-serif" font-style="normal" font-variant="normal" font-weight="400" font-stretch="normal" font-size="64" text-anchor="start" direction="ltr" writing-mode="lr-tb" unicode-bidi="normal" text-decoration="none" transform="matrix(1 0 0 1 1269.86 815)">Anwendung </text><text fill="#FFFFFF" fill-opacity="1" font-family="DIN Pro Regular,DIN Pro Regular_MSFontService,sans-serif" font-style="normal" font-variant="normal" font-weight="400" font-stretch="normal" font-size="64" text-anchor="start" direction="ltr" writing-mode="lr-tb" unicode-bidi="normal" text-decoration="none" transform="matrix(1 0 0 1 1419.96 892)">1</text><rect x="1755" y="709" width="428" height="237" fill="#70AD47" fill-opacity="1"/><text fill="#FFFFFF" fill-opacity="1" font-family="DIN Pro Regular,DIN Pro Regular_MSFontService,sans-serif" font-style="normal" font-variant="normal" font-weight="400" font-stretch="normal" font-size="64" text-anchor="start" direction="ltr" writing-mode="lr-tb" unicode-bidi="normal" text-decoration="none" transform="matrix(1 0 0 1 1802.02 814)">Anwendung </text><text fill="#FFFFFF" fill-opacity="1" font-family="DIN Pro Regular,DIN Pro Regular_MSFontService,sans-serif" font-style="normal" font-variant="normal" font-weight="400" font-stretch="normal" font-size="64" text-anchor="start" direction="ltr" writing-mode="lr-tb" unicode-bidi="normal" text-decoration="none" transform="matrix(1 0 0 1 1952.13 891)">2</text><rect x="2287" y="711" width="427" height="236" fill="#70AD47" fill-opacity="1"/><text fill="#FFFFFF" fill-opacity="1" font-family="DIN Pro Regular,DIN Pro Regular_MSFontService,sans-serif" font-style="normal" font-variant="normal" font-weight="400" font-stretch="normal" font-size="64" text-anchor="start" direction="ltr" writing-mode="lr-tb" unicode-bidi="normal" text-decoration="none" transform="matrix(1 0 0 1 2333.64 815)">Anwendung </text><text fill="#FFFFFF" fill-opacity="1" font-family="DIN Pro Regular,DIN Pro Regular_MSFontService,sans-serif" font-style="normal" font-variant="normal" font-weight="400" font-stretch="normal" font-size="64" text-anchor="start" direction="ltr" writing-mode="lr-tb" unicode-bidi="normal" text-decoration="none" transform="matrix(1 0 0 1 2483.74 892)">3</text><path d="M1660.14 959.074 1703.4 958.252 1692.79 969.273 1796.62 1069.23 1807.23 1058.21 1808.05 1101.47 1764.79 1102.29 1775.4 1091.27 1671.57 991.314 1660.96 1002.33Z" fill="#A5A5A5" fill-rule="evenodd" fill-opacity="1"/><path d="M1965.5 957 1999 990.5 1982.25 990.5 1982.25 1077.5 1999 1077.5 1965.5 1111 1932 1077.5 1948.75 1077.5 1948.75 990.5 1932 990.5Z" fill="#A5A5A5" fill-rule="evenodd" fill-opacity="1"/><path d="M0 30.5955 30.5954 0 30.5954 15.2977 174.719 15.2977 174.719 0 205.314 30.5955 174.719 61.1908 174.719 45.893 30.5954 45.893 30.5954 61.1908Z" fill="#A5A5A5" fill-rule="evenodd" fill-opacity="1" transform="matrix(-0.720407 0.693551 0.693551 0.720407 2252.29 938.603)"/><path d="M1629 1694C1598.62 1694 1574 1689.9 1574 1684.83L1574 1430.37C1574 1425.31 1549.38 1421.21 1519 1421.21 1549.38 1421.21 1574 1417.1 1574 1412.04L1574 1144.17C1574 1139.1 1598.62 1135 1629 1135" stroke="#4472C4" stroke-width="10.3125" stroke-linecap="butt" stroke-linejoin="miter" stroke-miterlimit="8" stroke-opacity="1" fill="none" fill-rule="evenodd"/></g></g></svg>