<svg width="1503" height="656" xmlns="http://www.w3.org/2000/svg" xmlns:xlink="http://www.w3.org/1999/xlink" xml:space="preserve" overflow="hidden"><g transform="translate(-1439 -792)"><g><rect x="1442" y="1264" width="428" height="184" fill="#4472C4" fill-opacity="1"/><text fill="#FFFFFF" fill-opacity="1" font-family="DIN Pro Regular,DIN Pro Regular_MSFontService,sans-serif" font-style="normal" font-variant="normal" font-weight="400" font-stretch="normal" font-size="64" text-anchor="start" direction="ltr" writing-mode="lr-tb" unicode-bidi="normal" text-decoration="none" transform="matrix(1 0 0 1 1489.42 1380)">Datensatz 1</text><rect x="1442" y="797" width="428" height="237" fill="#70AD47" fill-opacity="1"/><text fill="#FFFFFF" fill-opacity="1" font-family="DIN Pro Regular,DIN Pro Regular_MSFontService,sans-serif" font-style="normal" font-variant="normal" font-weight="400" font-stretch="normal" font-size="64" text-anchor="start" direction="ltr" writing-mode="lr-tb" unicode-bidi="normal" text-decoration="none" transform="matrix(1 0 0 1 1489.21 901)">Anwendung </text><text fill="#FFFFFF" fill-opacity="1" font-family="DIN Pro Regular,DIN Pro Regular_MSFontService,sans-serif" font-style="normal" font-variant="normal" font-weight="400" font-stretch="normal" font-size="64" text-anchor="start" direction="ltr" writing-mode="lr-tb" unicode-bidi="normal" text-decoration="none" transform="matrix(1 0 0 1 1639.31 978)">1</text><rect x="1974" y="796" width="428" height="236" fill="#70AD47" fill-opacity="1"/><text fill="#FFFFFF" fill-opacity="1" font-family="DIN Pro Regular,DIN Pro Regular_MSFontService,sans-serif" font-style="normal" font-variant="normal" font-weight="400" font-stretch="normal" font-size="64" text-anchor="start" direction="ltr" writing-mode="lr-tb" unicode-bidi="normal" text-decoration="none" transform="matrix(1 0 0 1 2021.37 900)">Anwendung </text><text fill="#FFFFFF" fill-opacity="1" font-family="DIN Pro Regular,DIN Pro Regular_MSFontService,sans-serif" font-style="normal" font-variant="normal" font-weight="400" font-stretch="normal" font-size="64" text-anchor="start" direction="ltr" writing-mode="lr-tb" unicode-bidi="normal" text-decoration="none" transform="matrix(1 0 0 1 2171.47 977)">2</text><rect x="2506" y="797" width="428" height="237" fill="#70AD47" fill-opacity="1"/><text fill="#FFFFFF" fill-opacity="1" font-family="DIN Pro Regular,DIN Pro Regular_MSFontService,sans-serif" font-style="normal" font-variant="normal" font-weight="400" font-stretch="normal" font-size="64" text-anchor="start" direction="ltr" writing-mode="lr-tb" unicode-bidi="normal" text-decoration="none" transform="matrix(1 0 0 1 2552.99 901)">Anwendung </text><text fill="#FFFFFF" fill-opacity="1" font-family="DIN Pro Regular,DIN Pro Regular_MSFontService,sans-serif" font-style="normal" font-variant="normal" font-weight="400" font-stretch="normal" font-size="64" text-anchor="start" direction="ltr" writing-mode="lr-tb" unicode-bidi="normal" text-decoration="none" transform="matrix(1 0 0 1 2703.09 978)">3</text><path d="M2188 1072 2221 1105 2204.5 1105 2204.5 1193 2221 1193 2188 1226 2155 1193 2171.5 1193 2171.5 1105 2155 1105Z" fill="#A5A5A5" fill-rule="evenodd" fill-opacity="1"/><path d="M1656 1072 1689 1105 1672.5 1105 1672.5 1193 1689 1193 1656 1226 1623 1193 1639.5 1193 1639.5 1105 1623 1105Z" fill="#A5A5A5" fill-rule="evenodd" fill-opacity="1"/><rect x="1974" y="1264" width="428" height="184" fill="#4472C4" fill-opacity="1"/><text fill="#FFFFFF" fill-opacity="1" font-family="DIN Pro Regular,DIN Pro Regular_MSFontService,sans-serif" font-style="normal" font-variant="normal" font-weight="400" font-stretch="normal" font-size="64" text-anchor="start" direction="ltr" writing-mode="lr-tb" unicode-bidi="normal" text-decoration="none" transform="matrix(1 0 0 1 2021.37 1380)">Datensatz 2</text><rect x="2506" y="1264" width="428" height="184" fill="#4472C4" fill-opacity="1"/><text fill="#FFFFFF" fill-opacity="1" font-family="DIN Pro Regular,DIN Pro Regular_MSFontService,sans-serif" font-style="normal" font-variant="normal" font-weight="400" font-stretch="normal" font-size="64" text-anchor="start" direction="ltr" writing-mode="lr-tb" unicode-bidi="normal" text-decoration="none" transform="matrix(1 0 0 1 2552.99 1380)">Datensatz 3</text><path d="M2720.5 1071 2754 1104.5 2737.25 1104.5 2737.25 1191.5 2754 1191.5 2720.5 1225 2687 1191.5 2703.75 1191.5 2703.75 1104.5 2687 1104.5Z" fill="#A5A5A5" fill-rule="evenodd" fill-opacity="1"/></g></g></svg>