<svg width="2104" height="1013" xmlns="http://www.w3.org/2000/svg" xmlns:xlink="http://www.w3.org/1999/xlink" xml:space="preserve" overflow="hidden"><g transform="translate(-1168 -178)"><g><path d="M1171.5 550.1C1171.5 530.991 1186.99 515.5 1206.1 515.5L1688.9 515.5C1708.01 515.5 1723.5 530.991 1723.5 550.1L1723.5 826.9C1723.5 846.009 1708.01 861.5 1688.9 861.5L1206.1 861.5C1186.99 861.5 1171.5 846.009 1171.5 826.9Z" stroke="#FFFFFF" stroke-width="4.58333" stroke-linecap="butt" stroke-linejoin="miter" stroke-miterlimit="8" stroke-opacity="1" fill="#4472C4" fill-rule="evenodd" fill-opacity="1"/><text fill="#FFFFFF" fill-opacity="1" font-family="DIN Pro Regular,DIN Pro Regular_MSFontService,sans-serif" font-style="normal" font-variant="normal" font-weight="400" font-stretch="normal" font-size="83" text-anchor="start" direction="ltr" writing-mode="lr-tb" unicode-bidi="normal" text-decoration="none" transform="matrix(1 0 0 1 1336.28 623)">Ultra</text><text fill="#FFFFFF" fill-opacity="1" font-family="DIN Pro Regular,DIN Pro Regular_MSFontService,sans-serif" font-style="normal" font-variant="normal" font-weight="400" font-stretch="normal" font-size="83" text-anchor="start" direction="ltr" writing-mode="lr-tb" unicode-bidi="normal" text-decoration="none" transform="matrix(1 0 0 1 1522.41 623)">-</text><text fill="#FFFFFF" fill-opacity="1" font-family="DIN Pro Regular,DIN Pro Regular_MSFontService,sans-serif" font-style="normal" font-variant="normal" font-weight="400" font-stretch="normal" font-size="83" text-anchor="start" direction="ltr" writing-mode="lr-tb" unicode-bidi="normal" text-decoration="none" transform="matrix(1 0 0 1 1278.19 715)">Kurzzeit</text><text fill="#FFFFFF" fill-opacity="1" font-family="DIN Pro Regular,DIN Pro Regular_MSFontService,sans-serif" font-style="normal" font-variant="normal" font-weight="400" font-stretch="normal" font-size="83" text-anchor="start" direction="ltr" writing-mode="lr-tb" unicode-bidi="normal" text-decoration="none" transform="matrix(1 0 0 1 1580.53 715)">-</text><text fill="#FFFFFF" fill-opacity="1" font-family="DIN Pro Regular,DIN Pro Regular_MSFontService,sans-serif" font-style="normal" font-variant="normal" font-weight="400" font-stretch="normal" font-size="83" text-anchor="start" direction="ltr" writing-mode="lr-tb" unicode-bidi="normal" text-decoration="none" transform="matrix(1 0 0 1 1247.36 808)">gedächtnis</text><path d="M1778 647.2 1836 647.2 1836 620 1894 688 1836 756 1836 728.8 1778 728.8Z" fill="#B0BCDE" fill-rule="evenodd" fill-opacity="1"/><path d="M1943.5 550.1C1943.5 530.991 1958.99 515.5 1978.1 515.5L2459.9 515.5C2479.01 515.5 2494.5 530.991 2494.5 550.1L2494.5 826.9C2494.5 846.009 2479.01 861.5 2459.9 861.5L1978.1 861.5C1958.99 861.5 1943.5 846.009 1943.5 826.9Z" stroke="#FFFFFF" stroke-width="4.58333" stroke-linecap="butt" stroke-linejoin="miter" stroke-miterlimit="8" stroke-opacity="1" fill="#4472C4" fill-rule="evenodd" fill-opacity="1"/><text fill="#FFFFFF" fill-opacity="1" font-family="DIN Pro Regular,DIN Pro Regular_MSFontService,sans-serif" font-style="normal" font-variant="normal" font-weight="400" font-stretch="normal" font-size="83" text-anchor="start" direction="ltr" writing-mode="lr-tb" unicode-bidi="normal" text-decoration="none" transform="matrix(1 0 0 1 2049.85 669)">Kurzzeit</text><text fill="#FFFFFF" fill-opacity="1" font-family="DIN Pro Regular,DIN Pro Regular_MSFontService,sans-serif" font-style="normal" font-variant="normal" font-weight="400" font-stretch="normal" font-size="83" text-anchor="start" direction="ltr" writing-mode="lr-tb" unicode-bidi="normal" text-decoration="none" transform="matrix(1 0 0 1 2352.19 669)">-</text><text fill="#FFFFFF" fill-opacity="1" font-family="DIN Pro Regular,DIN Pro Regular_MSFontService,sans-serif" font-style="normal" font-variant="normal" font-weight="400" font-stretch="normal" font-size="83" text-anchor="start" direction="ltr" writing-mode="lr-tb" unicode-bidi="normal" text-decoration="none" transform="matrix(1 0 0 1 2019.03 761)">gedächtnis</text><path d="M2549 647.2 2607.5 647.2 2607.5 620 2666 688 2607.5 756 2607.5 728.8 2549 728.8Z" fill="#B0BCDE" fill-rule="evenodd" fill-opacity="1"/><path d="M2715.5 550.1C2715.5 530.991 2730.99 515.5 2750.1 515.5L3231.9 515.5C3251.01 515.5 3266.5 530.991 3266.5 550.1L3266.5 826.9C3266.5 846.009 3251.01 861.5 3231.9 861.5L2750.1 861.5C2730.99 861.5 2715.5 846.009 2715.5 826.9Z" stroke="#FFFFFF" stroke-width="4.58333" stroke-linecap="butt" stroke-linejoin="miter" stroke-miterlimit="8" stroke-opacity="1" fill="#4472C4" fill-rule="evenodd" fill-opacity="1"/><text fill="#FFFFFF" fill-opacity="1" font-family="DIN Pro Regular,DIN Pro Regular_MSFontService,sans-serif" font-style="normal" font-variant="normal" font-weight="400" font-stretch="normal" font-size="83" text-anchor="start" direction="ltr" writing-mode="lr-tb" unicode-bidi="normal" text-decoration="none" transform="matrix(1 0 0 1 2816.89 669)">Langzeit</text><text fill="#FFFFFF" fill-opacity="1" font-family="DIN Pro Regular,DIN Pro Regular_MSFontService,sans-serif" font-style="normal" font-variant="normal" font-weight="400" font-stretch="normal" font-size="83" text-anchor="start" direction="ltr" writing-mode="lr-tb" unicode-bidi="normal" text-decoration="none" transform="matrix(1 0 0 1 3128.48 669)">-</text><text fill="#FFFFFF" fill-opacity="1" font-family="DIN Pro Regular,DIN Pro Regular_MSFontService,sans-serif" font-style="normal" font-variant="normal" font-weight="400" font-stretch="normal" font-size="83" text-anchor="start" direction="ltr" writing-mode="lr-tb" unicode-bidi="normal" text-decoration="none" transform="matrix(1 0 0 1 2790.69 761)">gedächtnis</text><text fill="#000000" fill-opacity="1" font-family="DIN Pro Regular,DIN Pro Regular_MSFontService,sans-serif" font-style="normal" font-variant="normal" font-weight="400" font-stretch="normal" font-size="48" text-anchor="start" direction="ltr" writing-mode="lr-tb" unicode-bidi="normal" text-decoration="none" transform="matrix(1 0 0 1 2494.37 923)">Wiederholung,</text><text fill="#000000" fill-opacity="1" font-family="DIN Pro Regular,DIN Pro Regular_MSFontService,sans-serif" font-style="normal" font-variant="normal" font-weight="400" font-stretch="normal" font-size="48" text-anchor="start" direction="ltr" writing-mode="lr-tb" unicode-bidi="normal" text-decoration="none" transform="matrix(1 0 0 1 2494.37 981)">Wiederholung,</text><text fill="#000000" fill-opacity="1" font-family="DIN Pro Regular,DIN Pro Regular_MSFontService,sans-serif" font-style="normal" font-variant="normal" font-weight="400" font-stretch="normal" font-size="48" text-anchor="start" direction="ltr" writing-mode="lr-tb" unicode-bidi="normal" text-decoration="none" transform="matrix(1 0 0 1 2573.13 1038)">Schock</text><text fill="#000000" fill-opacity="1" font-family="DIN Pro Regular,DIN Pro Regular_MSFontService,sans-serif" font-style="normal" font-variant="normal" font-weight="400" font-stretch="normal" font-size="48" text-anchor="start" direction="ltr" writing-mode="lr-tb" unicode-bidi="normal" text-decoration="none" transform="matrix(1 0 0 1 1686.43 923)">Wiederholung,</text><text fill="#000000" fill-opacity="1" font-family="DIN Pro Regular,DIN Pro Regular_MSFontService,sans-serif" font-style="normal" font-variant="normal" font-weight="400" font-stretch="normal" font-size="48" text-anchor="start" direction="ltr" writing-mode="lr-tb" unicode-bidi="normal" text-decoration="none" transform="matrix(1 0 0 1 1725.96 981)">Belohnung</text><text fill="#000000" fill-opacity="1" font-family="DIN Pro Regular,DIN Pro Regular_MSFontService,sans-serif" font-style="normal" font-variant="normal" font-weight="400" font-stretch="normal" font-size="46" text-anchor="start" direction="ltr" writing-mode="lr-tb" unicode-bidi="normal" text-decoration="none" transform="matrix(1 0 0 1 2115.47 268)">Bullemie</text><text fill="#000000" fill-opacity="1" font-family="DIN Pro Regular,DIN Pro Regular_MSFontService,sans-serif" font-style="normal" font-variant="normal" font-weight="400" font-stretch="normal" font-size="46" text-anchor="start" direction="ltr" writing-mode="lr-tb" unicode-bidi="normal" text-decoration="none" transform="matrix(1 0 0 1 2301.67 268)">-</text><text fill="#000000" fill-opacity="1" font-family="DIN Pro Regular,DIN Pro Regular_MSFontService,sans-serif" font-style="normal" font-variant="normal" font-weight="400" font-stretch="normal" font-size="46" text-anchor="start" direction="ltr" writing-mode="lr-tb" unicode-bidi="normal" text-decoration="none" transform="matrix(1 0 0 1 2150.99 324)">lernen</text><text fill="#385723" fill-opacity="1" font-family="DIN Pro Regular,DIN Pro Regular_MSFontService,sans-serif" font-style="normal" font-variant="normal" font-weight="400" font-stretch="normal" font-size="46" text-anchor="start" direction="ltr" writing-mode="lr-tb" unicode-bidi="normal" text-decoration="none" transform="matrix(1 0 0 1 2843.83 268)">Langfristiges </text><text fill="#385723" fill-opacity="1" font-family="DIN Pro Regular,DIN Pro Regular_MSFontService,sans-serif" font-style="normal" font-variant="normal" font-weight="400" font-stretch="normal" font-size="46" text-anchor="start" direction="ltr" writing-mode="lr-tb" unicode-bidi="normal" text-decoration="none" transform="matrix(1 0 0 1 2910.86 324)">Lernen</text><path d="M2170 450.5 2218.5 402 2267 450.5 2242.75 450.5 2242.75 501 2194.25 501 2194.25 450.5Z" fill="#B0BCDE" fill-rule="evenodd" fill-opacity="1"/><path d="M2936 450.5 2984.5 402 3033 450.5 3008.75 450.5 3008.75 501 2960.25 501 2960.25 450.5Z" fill="#B0BCDE" fill-rule="evenodd" fill-opacity="1"/><path d="M2092 187 2345.37 382.785" stroke="#C00000" stroke-width="10.3125" stroke-linecap="butt" stroke-linejoin="miter" stroke-miterlimit="8" stroke-opacity="1" fill="none" fill-rule="evenodd"/><path d="M0 0 253.375 195.785" stroke="#C00000" stroke-width="10.3125" stroke-linecap="butt" stroke-linejoin="miter" stroke-miterlimit="8" stroke-opacity="1" fill="none" fill-rule="evenodd" transform="matrix(-1 0 0 1 2345.37 187)"/></g></g></svg>