<?xml version="1.0" encoding="UTF-8" standalone="no"?>
<svg
   width="910.0838"
   height="362.08649"
   xml:space="preserve"
   overflow="hidden"
   version="1.1"
   id="svg2"
   sodipodi:docname="kursname_ML_xl.svg"
   inkscape:version="1.3.2 (091e20e, 2023-11-25, custom)"
   xmlns:inkscape="http://www.inkscape.org/namespaces/inkscape"
   xmlns:sodipodi="http://sodipodi.sourceforge.net/DTD/sodipodi-0.dtd"
   xmlns="http://www.w3.org/2000/svg"
   xmlns:svg="http://www.w3.org/2000/svg"><defs
     id="defs2" /><sodipodi:namedview
     id="namedview2"
     pagecolor="#ffffff"
     bordercolor="#000000"
     borderopacity="0.25"
     inkscape:showpageshadow="2"
     inkscape:pageopacity="0.0"
     inkscape:pagecheckerboard="0"
     inkscape:deskcolor="#d1d1d1"
     inkscape:zoom="0.48924818"
     inkscape:cx="2739.9182"
     inkscape:cy="579.46051"
     inkscape:window-width="3840"
     inkscape:window-height="2054"
     inkscape:window-x="3829"
     inkscape:window-y="2132"
     inkscape:window-maximized="1"
     inkscape:current-layer="svg2" /><g
     id="g17"
     transform="scale(2.3651562)"><path
       d="m 50.630002,59.594 h -6.308 V 14.691 L 28.137,50.298 H 22.742 L 6.308,14.691 V 59.594 H 0 V 0.498 H 6.308 L 25.564,42.413 44.322002,0.498 h 6.308 z"
       id="text17"
       style="font-size:83px;font-family:'Protomolecule', 'Protomolecule_MSFontService', sans-serif"
       aria-label="m" /><path
       d="m 115.453,59.594 h -6.64 L 93.209002,9.462 l -15.77,50.132 h -6.64 l 19.422,-59.096 h 5.81 z"
       id="text16"
       style="font-size:83px;font-family:'Protomolecule', 'Protomolecule_MSFontService', sans-serif"
       aria-label="a" /><path
       d="m 176.79001,42.496 q -1.577,8.217 -7.055,12.948 -5.478,4.648 -13.446,4.648 -8.964,0 -14.774,-5.81 -3.901,-3.901 -4.897,-8.549 -0.996,-4.648 -0.996,-15.687 0,-11.039 0.996,-15.687 0.996,-4.648 4.897,-8.549 5.81,-5.81 14.774,-5.81 8.051,0 13.446,4.648 5.478,4.648 7.055,12.948 h -6.474 q -1.162,-5.561 -4.897,-8.715 -3.652,-3.237 -9.13,-3.237 -6.059,0 -10.209,4.15 -2.656,2.739 -3.403,6.723 -0.747,3.901 -0.747,13.529 0,9.628 0.747,13.612 0.747,3.901 3.403,6.64 4.15,4.15 10.209,4.15 5.478,0 9.213,-3.154 3.818,-3.237 4.98,-8.798 z"
       id="text15"
       style="font-size:83px;font-family:'Protomolecule', 'Protomolecule_MSFontService', sans-serif"
       aria-label="c" /><path
       d="m 203.26701,59.594 h -6.308 V 0.498 h 6.308 z m 28.054,-59.096 h 6.308 v 59.096 h -6.308 z"
       id="text14"
       style="font-size:83px;font-family:'Protomolecule', 'Protomolecule_MSFontService', sans-serif"
       aria-label="h" /><path
       d="m 264.10601,59.594 h -6.308 V 0.498 h 6.308 z"
       id="text13"
       style="font-size:83px;font-family:'Protomolecule', 'Protomolecule_MSFontService', sans-serif"
       aria-label="i" /><path
       d="m 327.93303,59.594 h -5.976 l -31.374,-47.393 v 47.393 h -6.308 V 0.498 h 5.976 l 31.374,47.227 V 0.498 h 6.308 z"
       id="text12"
       style="font-size:83px;font-family:'Protomolecule', 'Protomolecule_MSFontService', sans-serif"
       aria-label="n" /><path
       d="m 348.10203,0.498 h 36.686 v 5.644 h -36.686 z m 0,26.477 h 32.204 v 5.644 h -32.204 z m 0,26.975 h 36.686 v 5.644 h -36.686 z"
       id="text11"
       style="font-size:83px;font-family:'Protomolecule', 'Protomolecule_MSFontService', sans-serif"
       aria-label="e" /><path
       d="M 36.52,152.594 H 0 V 93.498 H 6.308 V 146.95 H 36.52 Z"
       id="text10"
       style="font-size:83px;font-family:'Protomolecule', 'Protomolecule_MSFontService', sans-serif"
       aria-label="l" /><path
       d="m 46.728982,93.498 h 36.686 v 5.644 h -36.686 z m 0,26.477 h 32.204 v 5.644 h -32.204 z m 0,26.975 h 36.686 v 5.644 h -36.686 z"
       id="text9"
       style="font-size:83px;font-family:'Protomolecule', 'Protomolecule_MSFontService', sans-serif"
       aria-label="e" /><path
       d="m 135.12401,152.594 h -6.64 l -15.604,-50.132 -15.769998,50.132 h -6.64 L 109.89201,93.498 h 5.81 z"
       id="text8"
       style="font-size:83px;font-family:'Protomolecule', 'Protomolecule_MSFontService', sans-serif"
       aria-label="a" /><path
       d="m 146.16299,120.805 h 22.078 q 5.395,0 8.549,-2.739 3.237,-2.822 3.237,-8.051 0,-5.229 -3.237,-8.051 -3.237,-2.822 -8.549,-2.822 h -22.078 v -5.644 h 22.659 q 7.802,0 12.616,4.482 4.897,4.399 4.897,11.952 0,6.308 -3.486,10.458 -3.486,4.15 -9.379,5.395 l 14.027,26.809 h -7.387 l -13.446,-26.228 h -14.193 v 26.228 h -6.308 z"
       id="text7"
       style="font-size:83px;font-family:'Protomolecule', 'Protomolecule_MSFontService', sans-serif"
       aria-label="r" /><path
       d="m 244.26898,152.594 h -5.976 l -31.374,-47.393 v 47.393 h -6.308 V 93.498 h 5.976 l 31.374,47.227 V 93.498 h 6.308 z"
       id="text6"
       style="font-size:83px;font-family:'Protomolecule', 'Protomolecule_MSFontService', sans-serif"
       aria-label="n" /><path
       d="m 267.67501,152.594 h -6.308 V 93.498 h 6.308 z"
       id="text5"
       style="font-size:83px;font-family:'Protomolecule', 'Protomolecule_MSFontService', sans-serif"
       aria-label="i" /><path
       d="m 328.43099,152.594 h -5.976 l -31.374,-47.393 v 47.393 h -6.308 V 93.498 h 5.976 l 31.374,47.227 V 93.498 h 6.308 z"
       id="text4"
       style="font-size:83px;font-family:'Protomolecule', 'Protomolecule_MSFontService', sans-serif"
       aria-label="n" /><path
       d="m 384.78803,131.097 q 0,5.229 -1.162,8.632 -1.079,3.403 -3.901,6.557 -6.225,6.806 -15.77,6.806 -8.964,0 -14.774,-5.81 -3.901,-3.901 -4.897,-8.549 -0.996,-4.648 -0.996,-15.687 0,-11.039 0.996,-15.687 0.996,-4.648 4.897,-8.549 5.81,-5.81 14.774,-5.81 8.217,0 13.778,4.98 5.644,4.897 6.889,12.699 h -6.308 q -1.245,-5.644 -5.063,-8.798 -3.735,-3.237 -9.296,-3.237 -6.225,0 -10.209,4.15 -2.656,2.739 -3.403,6.723 -0.747,3.901 -0.747,13.529 0,9.628 0.747,13.612 0.747,3.901 3.403,6.64 3.984,4.15 10.209,4.15 7.055,0 11.205,-5.063 3.32,-4.15 3.32,-10.707 v -4.565 h -14.525 v -5.395 h 20.833 z"
       id="text3"
       style="font-size:83px;font-family:'Protomolecule', 'Protomolecule_MSFontService', sans-serif"
       aria-label="g" /></g></svg>
