<svg width="990" height="705" xmlns="http://www.w3.org/2000/svg" xmlns:xlink="http://www.w3.org/1999/xlink" xml:space="preserve" overflow="hidden"><g transform="translate(-1984 -967)"><g><path d="M2027.89 1581.52 2038.97 1531.02 2024.2 1491.61 1998.35 1496.54 2008.19 1465.75 1998.35 1420.18 1997.12 1384.46 1988.5 1359.83 2011.89 1311.8 2013.12 1284.7 2031.58 1262.54 2075.89 1014.98 2083.28 992.816 2109.12 980.5 2090.66 996.511 2085.74 1027.3 2101.74 1061.79 2194.05 1148 2238.37 1168.93 2269.14 1172.63 2286.37 1193.57 2381.15 1237.9 2510.39 1332.74 2589.16 1395.55 2667.94 1466.98 2771.33 1540.88 2848.88 1582.75 2911.65 1596.3 2959.65 1614.77 2969.5 1666.5 2871.03 1636.94 2757.79 1548.27 2645.78 1465.75 2511.62 1349.98 2485.77 1405.4 2455 1410.33 2420.53 1396.78 2297.45 1442.35 2293.76 1475.6 2239.6 1438.65 2186.67 1439.89 2126.36 1409.1 2082.05 1446.04 2139.9 1519.94 2093.12 1529.79 2027.89 1581.52Z" stroke="#C00000" stroke-width="4.58333" stroke-linecap="butt" stroke-linejoin="miter" stroke-miterlimit="8" stroke-opacity="1" fill="none" fill-rule="evenodd"/><path d="M2456.5 1383.5C2456.5 1376.32 2462.32 1370.5 2469.5 1370.5 2476.68 1370.5 2482.5 1376.32 2482.5 1383.5 2482.5 1390.68 2476.68 1396.5 2469.5 1396.5 2462.32 1396.5 2456.5 1390.68 2456.5 1383.5Z" stroke="#FFFFFF" stroke-width="4.58333" stroke-linecap="butt" stroke-linejoin="miter" stroke-miterlimit="8" stroke-opacity="1" fill="#C00000" fill-rule="evenodd" fill-opacity="1"/></g></g></svg>