<svg width="3112" height="705" xmlns="http://www.w3.org/2000/svg" xmlns:xlink="http://www.w3.org/1999/xlink" xml:space="preserve" overflow="hidden"><g transform="translate(-142 -582)"><g><path d="M637.5 857.5 743.3 624.5 1166.5 624.5 1060.7 857.5Z" stroke="#2F528F" stroke-width="4.58333" stroke-linecap="butt" stroke-linejoin="miter" stroke-miterlimit="8" stroke-opacity="1" fill="#BDD7EE" fill-rule="evenodd" fill-opacity="1"/><text fill="#000000" fill-opacity="1" font-family="DIN Pro Regular,DIN Pro Regular_MSFontService,sans-serif" font-style="normal" font-variant="normal" font-weight="400" font-stretch="normal" font-size="50" text-anchor="start" direction="ltr" writing-mode="lr-tb" unicode-bidi="normal" text-decoration="none" transform="matrix(1 0 0 1 844.151 729)">Input</text><text fill="#000000" fill-opacity="1" font-family="DIN Pro Regular,DIN Pro Regular_MSFontService,sans-serif" font-style="normal" font-variant="normal" font-weight="400" font-stretch="normal" font-size="50" text-anchor="start" direction="ltr" writing-mode="lr-tb" unicode-bidi="normal" text-decoration="none" transform="matrix(1 0 0 1 812.343 790)">Polygon</text><path d="M611.5 1282.5 717.5 1048.5 1141.5 1048.5 1035.5 1282.5Z" stroke="#2F528F" stroke-width="4.58333" stroke-linecap="butt" stroke-linejoin="miter" stroke-miterlimit="8" stroke-opacity="1" fill="#BDD7EE" fill-rule="evenodd" fill-opacity="1"/><text fill="#000000" fill-opacity="1" font-family="DIN Pro Regular,DIN Pro Regular_MSFontService,sans-serif" font-style="normal" font-variant="normal" font-weight="400" font-stretch="normal" font-size="50" text-anchor="start" direction="ltr" writing-mode="lr-tb" unicode-bidi="normal" text-decoration="none" transform="matrix(1 0 0 1 818.788 1153)">Input</text><text fill="#000000" fill-opacity="1" font-family="DIN Pro Regular,DIN Pro Regular_MSFontService,sans-serif" font-style="normal" font-variant="normal" font-weight="400" font-stretch="normal" font-size="50" text-anchor="start" direction="ltr" writing-mode="lr-tb" unicode-bidi="normal" text-decoration="none" transform="matrix(1 0 0 1 810.469 1214)">Punkt</text><path d="M206.899 906.5 453.101 906.5C485.354 906.5 511.5 940.302 511.5 982 511.5 1023.7 485.354 1057.5 453.101 1057.5L206.899 1057.5C174.646 1057.5 148.5 1023.7 148.5 982 148.5 940.302 174.646 906.5 206.899 906.5Z" stroke="#2F528F" stroke-width="4.58333" stroke-linecap="butt" stroke-linejoin="miter" stroke-miterlimit="8" stroke-opacity="1" fill="#BDD7EE" fill-rule="evenodd" fill-opacity="1"/><text fill="#000000" fill-opacity="1" font-family="DIN Pro Regular,DIN Pro Regular_MSFontService,sans-serif" font-style="normal" font-variant="normal" font-weight="400" font-stretch="normal" font-size="50" text-anchor="start" direction="ltr" writing-mode="lr-tb" unicode-bidi="normal" text-decoration="none" transform="matrix(1 0 0 1 274.379 1001)">Start</text><path d="M0-1.14583 77.6238-1.14583 77.6238 241.458 76.478 240.312 155.134 240.312 155.134 242.604 75.3321 242.604 75.3321 0 76.478 1.14583 0 1.14583ZM150.551 227.708 178.051 241.458 150.551 255.208Z" fill="#4472C4" fill-rule="nonzero" fill-opacity="1" transform="matrix(1 0 0 -1 511 981.458)"/><path d="M511 980.854 588.49 980.854 588.49 1164.7 587.344 1163.56 640.771 1163.56 640.771 1165.85 586.198 1165.85 586.198 982 587.344 983.146 511 983.146ZM636.188 1150.95 663.688 1164.7 636.188 1178.45Z" fill="#4472C4" fill-rule="nonzero" fill-opacity="1"/><rect x="1262.5" y="1048.5" width="612" height="234" stroke="#2F528F" stroke-width="4.58333" stroke-linecap="butt" stroke-linejoin="miter" stroke-miterlimit="8" stroke-opacity="1" fill="#BDD7EE" fill-opacity="1"/><text fill="#000000" fill-opacity="1" font-family="DIN Pro Regular,DIN Pro Regular_MSFontService,sans-serif" font-style="normal" font-variant="normal" font-weight="400" font-stretch="normal" font-size="50" text-anchor="start" direction="ltr" writing-mode="lr-tb" unicode-bidi="normal" text-decoration="none" transform="matrix(1 0 0 1 1265.76 1153)">Strahl in zufällige Richtung </text><text fill="#000000" fill-opacity="1" font-family="DIN Pro Regular,DIN Pro Regular_MSFontService,sans-serif" font-style="normal" font-variant="normal" font-weight="400" font-stretch="normal" font-size="50" text-anchor="start" direction="ltr" writing-mode="lr-tb" unicode-bidi="normal" text-decoration="none" transform="matrix(1 0 0 1 1423.58 1214)">konstruieren</text><path d="M1088 1163.85 1239.34 1163.85 1239.34 1166.15 1088 1166.15ZM1234.75 1151.25 1262.25 1165 1234.75 1178.75Z" fill="#4472C4" fill-rule="nonzero" fill-opacity="1"/><rect x="1261.5" y="623.5" width="612" height="234" stroke="#2F528F" stroke-width="4.58333" stroke-linecap="butt" stroke-linejoin="miter" stroke-miterlimit="8" stroke-opacity="1" fill="#BDD7EE" fill-opacity="1"/><text fill="#000000" fill-opacity="1" font-family="DIN Pro Regular,DIN Pro Regular_MSFontService,sans-serif" font-style="normal" font-variant="normal" font-weight="400" font-stretch="normal" font-size="50" text-anchor="start" direction="ltr" writing-mode="lr-tb" unicode-bidi="normal" text-decoration="none" transform="matrix(1 0 0 1 1335.88 698)">Schnittpunkte finden</text><text fill="#000000" fill-opacity="1" font-family="DIN Pro Regular,DIN Pro Regular_MSFontService,sans-serif" font-style="normal" font-variant="normal" font-weight="400" font-stretch="normal" font-size="50" text-anchor="start" direction="ltr" writing-mode="lr-tb" unicode-bidi="normal" text-decoration="none" transform="matrix(1 0 0 1 1448.45 759)">Alle Linien </text><text fill="#000000" fill-opacity="1" font-family="DIN Pro Regular,DIN Pro Regular_MSFontService,sans-serif" font-style="normal" font-variant="normal" font-weight="400" font-stretch="normal" font-size="50" text-anchor="start" direction="ltr" writing-mode="lr-tb" unicode-bidi="normal" text-decoration="none" transform="matrix(1 0 0 1 1498.59 819)">Strahl</text><path d="M0.00200928-1.14583 125.06-0.926536 125.056 1.36513-0.00200928 1.14583ZM120.499-13.5387 147.975 0.259482 120.45 13.9612Z" fill="#4472C4" fill-rule="nonzero" fill-opacity="1" transform="matrix(1 0 0 -1 1113 740.26)"/><path d="M1566.77 1047.54 1565.96 879.922 1568.26 879.911 1569.06 1047.53ZM1553.38 884.566 1567 857 1580.88 884.433Z" fill="#4472C4" fill-rule="nonzero" fill-opacity="1"/><path d="M1967.5 740.5 2273 586.5 2578.5 740.5 2273 894.5Z" stroke="#2F528F" stroke-width="4.58333" stroke-linecap="butt" stroke-linejoin="miter" stroke-miterlimit="8" stroke-opacity="1" fill="#BDD7EE" fill-rule="evenodd" fill-opacity="1"/><text fill="#000000" fill-opacity="1" font-family="DIN Pro Regular,DIN Pro Regular_MSFontService,sans-serif" font-style="normal" font-variant="normal" font-weight="400" font-stretch="normal" font-size="50" text-anchor="start" direction="ltr" writing-mode="lr-tb" unicode-bidi="normal" text-decoration="none" transform="matrix(1 0 0 1 2197.05 728)">Anzahl</text><text fill="#000000" fill-opacity="1" font-family="DIN Pro Regular,DIN Pro Regular_MSFontService,sans-serif" font-style="normal" font-variant="normal" font-weight="400" font-stretch="normal" font-size="50" text-anchor="start" direction="ltr" writing-mode="lr-tb" unicode-bidi="normal" text-decoration="none" transform="matrix(1 0 0 1 2153.81 789)">ungerade?</text><path d="M0.00650777-1.14581 71.3228-0.740767 71.3098 1.55086-0.00650777 1.14581ZM66.8111-13.3708 94.2326 0.535203 66.655 14.1288Z" fill="#4472C4" fill-rule="nonzero" fill-opacity="1" transform="matrix(1 0 0 -1 1873 740.535)"/><path d="M1.14583-2.69243e-06 1.14614 130.67-1.14553 130.67-1.14583 2.69243e-06ZM13.7503 126.087 0.000360892 153.587-13.7497 126.087Z" fill="#4472C4" fill-rule="nonzero" fill-opacity="1" transform="matrix(-1 0 0 1 2273 894)"/><path d="M2578.02 738.854 2697.76 741.066 2697.72 743.358 2577.98 741.146ZM2693.41 728.38 2720.65 742.635 2692.9 755.875Z" fill="#4472C4" fill-rule="nonzero" fill-opacity="1"/><path d="M2861.06 1089.5 3107.94 1089.5C3140.28 1089.5 3166.5 1123.3 3166.5 1165 3166.5 1206.7 3140.28 1240.5 3107.94 1240.5L2861.06 1240.5C2828.72 1240.5 2802.5 1206.7 2802.5 1165 2802.5 1123.3 2828.72 1089.5 2861.06 1089.5Z" stroke="#2F528F" stroke-width="4.58333" stroke-linecap="butt" stroke-linejoin="miter" stroke-miterlimit="8" stroke-opacity="1" fill="#BDD7EE" fill-rule="evenodd" fill-opacity="1"/><text fill="#000000" fill-opacity="1" font-family="DIN Pro Regular,DIN Pro Regular_MSFontService,sans-serif" font-style="normal" font-variant="normal" font-weight="400" font-stretch="normal" font-size="50" text-anchor="start" direction="ltr" writing-mode="lr-tb" unicode-bidi="normal" text-decoration="none" transform="matrix(1 0 0 1 2927.54 1183)">Ende</text><path d="M0.00237931-1.14583 296.18-0.530819 296.175 1.76084-0.00237931 1.14583ZM291.623-13.1445 319.095 0.662598 291.566 14.3555Z" fill="#4472C4" fill-rule="nonzero" fill-opacity="1" transform="matrix(1 0 0 -1 2483 1164.66)"/><path d="M2985.15 850 2985.15 1065.78 2982.85 1065.78 2982.85 850ZM2997.75 1061.2 2984 1088.7 2970.25 1061.2Z" fill="#4472C4" fill-rule="nonzero" fill-opacity="1"/><rect x="2719.5" y="616.5" width="530" height="234" stroke="#2F528F" stroke-width="4.58333" stroke-linecap="butt" stroke-linejoin="miter" stroke-miterlimit="8" stroke-opacity="1" fill="#BDD7EE" fill-opacity="1"/><text fill="#000000" fill-opacity="1" font-family="DIN Pro Regular,DIN Pro Regular_MSFontService,sans-serif" font-style="normal" font-variant="normal" font-weight="400" font-stretch="normal" font-size="50" text-anchor="start" direction="ltr" writing-mode="lr-tb" unicode-bidi="normal" text-decoration="none" transform="matrix(1 0 0 1 2788.32 752)">Punkt im Polygon</text><text fill="#000000" fill-opacity="1" font-family="DIN Pro Regular,DIN Pro Regular_MSFontService,sans-serif" font-style="normal" font-variant="normal" font-weight="400" font-stretch="normal" font-size="50" text-anchor="start" direction="ltr" writing-mode="lr-tb" unicode-bidi="normal" text-decoration="none" transform="matrix(1 0 0 1 2615.96 715)">Ja</text><text fill="#000000" fill-opacity="1" font-family="DIN Pro Regular,DIN Pro Regular_MSFontService,sans-serif" font-style="normal" font-variant="normal" font-weight="400" font-stretch="normal" font-size="50" text-anchor="start" direction="ltr" writing-mode="lr-tb" unicode-bidi="normal" text-decoration="none" transform="matrix(1 0 0 1 2306.5 964)">Nein</text><rect x="2008.5" y="1047.5" width="530" height="234" stroke="#2F528F" stroke-width="4.58333" stroke-linecap="butt" stroke-linejoin="miter" stroke-miterlimit="8" stroke-opacity="1" fill="#BDD7EE" fill-opacity="1"/><text fill="#000000" fill-opacity="1" font-family="DIN Pro Regular,DIN Pro Regular_MSFontService,sans-serif" font-style="normal" font-variant="normal" font-weight="400" font-stretch="normal" font-size="50" text-anchor="start" direction="ltr" writing-mode="lr-tb" unicode-bidi="normal" text-decoration="none" transform="matrix(1 0 0 1 2015.74 1183)">Punkt nicht im Polygon</text></g></g></svg>