<svg width="1966" height="935" xmlns="http://www.w3.org/2000/svg" xmlns:xlink="http://www.w3.org/1999/xlink" xml:space="preserve" overflow="hidden"><g transform="translate(-687 -417)"><g><rect x="711" y="421" width="916" height="332" fill="#000000" fill-opacity="1"/><text fill="#FFFFFF" fill-opacity="1" font-family="DIN Pro Regular,DIN Pro Regular_MSFontService,sans-serif" font-style="normal" font-variant="normal" font-weight="400" font-stretch="normal" font-size="50" text-anchor="start" direction="ltr" writing-mode="lr-tb" unicode-bidi="normal" text-decoration="none" transform="matrix(1 0 0 1 935.247 575)">CPU </text><text fill="#FFFFFF" fill-opacity="1" font-family="DIN Pro Regular,DIN Pro Regular_MSFontService,sans-serif" font-style="normal" font-variant="normal" font-weight="400" font-stretch="normal" font-size="50" text-anchor="start" direction="ltr" writing-mode="lr-tb" unicode-bidi="normal" text-decoration="none" transform="matrix(1 0 0 1 1045.64 575)">–</text><text fill="#FFFFFF" fill-opacity="1" font-family="DIN Pro Regular,DIN Pro Regular_MSFontService,sans-serif" font-style="normal" font-variant="normal" font-weight="400" font-stretch="normal" font-size="50" text-anchor="start" direction="ltr" writing-mode="lr-tb" unicode-bidi="normal" text-decoration="none" transform="matrix(1 0 0 1 1084.5 575)">Recheneinheit</text><text fill="#FFFFFF" fill-opacity="1" font-family="DIN Pro Regular,DIN Pro Regular_MSFontService,sans-serif" font-style="normal" font-variant="normal" font-weight="400" font-stretch="normal" font-size="50" text-anchor="start" direction="ltr" writing-mode="lr-tb" unicode-bidi="normal" text-decoration="none" transform="matrix(1 0 0 1 874.105 636)">(Ultra</text><text fill="#FFFFFF" fill-opacity="1" font-family="DIN Pro Regular,DIN Pro Regular_MSFontService,sans-serif" font-style="normal" font-variant="normal" font-weight="400" font-stretch="normal" font-size="50" text-anchor="start" direction="ltr" writing-mode="lr-tb" unicode-bidi="normal" text-decoration="none" transform="matrix(1 0 0 1 1002.16 636)">-</text><text fill="#FFFFFF" fill-opacity="1" font-family="DIN Pro Regular,DIN Pro Regular_MSFontService,sans-serif" font-style="normal" font-variant="normal" font-weight="400" font-stretch="normal" font-size="50" text-anchor="start" direction="ltr" writing-mode="lr-tb" unicode-bidi="normal" text-decoration="none" transform="matrix(1 0 0 1 1023.32 636)">Kurzzeitgedächtnis)</text><rect x="711" y="1019" width="916" height="331" fill="#000000" fill-opacity="1"/><text fill="#FFFFFF" fill-opacity="1" font-family="DIN Pro Regular,DIN Pro Regular_MSFontService,sans-serif" font-style="normal" font-variant="normal" font-weight="400" font-stretch="normal" font-size="50" text-anchor="start" direction="ltr" writing-mode="lr-tb" unicode-bidi="normal" text-decoration="none" transform="matrix(1 0 0 1 1116.78 1173)">RAM</text><text fill="#FFFFFF" fill-opacity="1" font-family="DIN Pro Regular,DIN Pro Regular_MSFontService,sans-serif" font-style="normal" font-variant="normal" font-weight="400" font-stretch="normal" font-size="50" text-anchor="start" direction="ltr" writing-mode="lr-tb" unicode-bidi="normal" text-decoration="none" transform="matrix(1 0 0 1 941.286 1234)">(Kurzzeitgedächtnis)</text><rect x="1673" y="1019" width="916" height="331" fill="#000000" fill-opacity="1"/><text fill="#FFFFFF" fill-opacity="1" font-family="DIN Pro Regular,DIN Pro Regular_MSFontService,sans-serif" font-style="normal" font-variant="normal" font-weight="400" font-stretch="normal" font-size="50" text-anchor="start" direction="ltr" writing-mode="lr-tb" unicode-bidi="normal" text-decoration="none" transform="matrix(1 0 0 1 2024.03 1173)">HDD/SSD</text><text fill="#FFFFFF" fill-opacity="1" font-family="DIN Pro Regular,DIN Pro Regular_MSFontService,sans-serif" font-style="normal" font-variant="normal" font-weight="400" font-stretch="normal" font-size="50" text-anchor="start" direction="ltr" writing-mode="lr-tb" unicode-bidi="normal" text-decoration="none" transform="matrix(1 0 0 1 1899.71 1234)">(Langzeitgedächtnis)</text><rect x="1673" y="421" width="916" height="332" fill="#000000" fill-opacity="1"/><text fill="#FFFFFF" fill-opacity="1" font-family="DIN Pro Regular,DIN Pro Regular_MSFontService,sans-serif" font-style="normal" font-variant="normal" font-weight="400" font-stretch="normal" font-size="50" text-anchor="start" direction="ltr" writing-mode="lr-tb" unicode-bidi="normal" text-decoration="none" transform="matrix(1 0 0 1 1929.14 575)">GPU </text><text fill="#FFFFFF" fill-opacity="1" font-family="DIN Pro Regular,DIN Pro Regular_MSFontService,sans-serif" font-style="normal" font-variant="normal" font-weight="400" font-stretch="normal" font-size="50" text-anchor="start" direction="ltr" writing-mode="lr-tb" unicode-bidi="normal" text-decoration="none" transform="matrix(1 0 0 1 2040.11 575)">–</text><text fill="#FFFFFF" fill-opacity="1" font-family="DIN Pro Regular,DIN Pro Regular_MSFontService,sans-serif" font-style="normal" font-variant="normal" font-weight="400" font-stretch="normal" font-size="50" text-anchor="start" direction="ltr" writing-mode="lr-tb" unicode-bidi="normal" text-decoration="none" transform="matrix(1 0 0 1 2078.97 575)">Grafikkarte</text><text fill="#FFFFFF" fill-opacity="1" font-family="DIN Pro Regular,DIN Pro Regular_MSFontService,sans-serif" font-style="normal" font-variant="normal" font-weight="400" font-stretch="normal" font-size="50" text-anchor="start" direction="ltr" writing-mode="lr-tb" unicode-bidi="normal" text-decoration="none" transform="matrix(1 0 0 1 1835.39 636)">(Ultra</text><text fill="#FFFFFF" fill-opacity="1" font-family="DIN Pro Regular,DIN Pro Regular_MSFontService,sans-serif" font-style="normal" font-variant="normal" font-weight="400" font-stretch="normal" font-size="50" text-anchor="start" direction="ltr" writing-mode="lr-tb" unicode-bidi="normal" text-decoration="none" transform="matrix(1 0 0 1 1963.45 636)">-</text><text fill="#FFFFFF" fill-opacity="1" font-family="DIN Pro Regular,DIN Pro Regular_MSFontService,sans-serif" font-style="normal" font-variant="normal" font-weight="400" font-stretch="normal" font-size="50" text-anchor="start" direction="ltr" writing-mode="lr-tb" unicode-bidi="normal" text-decoration="none" transform="matrix(1 0 0 1 1984.6 636)">Kurzzeitgedächtnis)</text><text fill="#000000" fill-opacity="1" font-family="DIN Pro Regular,DIN Pro Regular_MSFontService,sans-serif" font-style="normal" font-variant="normal" font-weight="400" font-stretch="normal" font-size="48" text-anchor="start" direction="ltr" writing-mode="lr-tb" unicode-bidi="normal" text-decoration="none" transform="matrix(1 0 0 1 2168.52 835)">Kommunikationsbus </text><text fill="#000000" fill-opacity="1" font-family="DIN Pro Regular,DIN Pro Regular_MSFontService,sans-serif" font-style="normal" font-variant="normal" font-weight="400" font-stretch="normal" font-size="48" text-anchor="start" direction="ltr" writing-mode="lr-tb" unicode-bidi="normal" text-decoration="none" transform="matrix(1 0 0 1 2168.52 950)">(Motherboard)</text><path d="M1149.5 748C1149.5 736.678 1158.68 727.5 1170 727.5 1181.32 727.5 1190.5 736.678 1190.5 748 1190.5 759.322 1181.32 768.5 1170 768.5 1158.68 768.5 1149.5 759.322 1149.5 748Z" stroke="#FFFFFF" stroke-width="4.58333" stroke-linecap="butt" stroke-linejoin="miter" stroke-miterlimit="8" stroke-opacity="1" fill="#000000" fill-rule="evenodd" fill-opacity="1"/><path d="M1149.5 1018C1149.5 1006.68 1158.68 997.5 1170 997.5 1181.32 997.5 1190.5 1006.68 1190.5 1018 1190.5 1029.32 1181.32 1038.5 1170 1038.5 1158.68 1038.5 1149.5 1029.32 1149.5 1018Z" stroke="#FFFFFF" stroke-width="4.58333" stroke-linecap="butt" stroke-linejoin="miter" stroke-miterlimit="8" stroke-opacity="1" fill="#000000" fill-rule="evenodd" fill-opacity="1"/><path d="M2110.5 749C2110.5 737.678 2119.68 728.5 2131 728.5 2142.32 728.5 2151.5 737.678 2151.5 749 2151.5 760.322 2142.32 769.5 2131 769.5 2119.68 769.5 2110.5 760.322 2110.5 749Z" stroke="#FFFFFF" stroke-width="4.58333" stroke-linecap="butt" stroke-linejoin="miter" stroke-miterlimit="8" stroke-opacity="1" fill="#000000" fill-rule="evenodd" fill-opacity="1"/><path d="M2110.5 1018C2110.5 1006.68 2119.68 997.5 2131 997.5 2142.32 997.5 2151.5 1006.68 2151.5 1018 2151.5 1029.32 2142.32 1038.5 2131 1038.5 2119.68 1038.5 2110.5 1029.32 2110.5 1018Z" stroke="#FFFFFF" stroke-width="4.58333" stroke-linecap="butt" stroke-linejoin="miter" stroke-miterlimit="8" stroke-opacity="1" fill="#000000" fill-rule="evenodd" fill-opacity="1"/><path d="M2132 741 2145 754 2145 1013 2132 1026 2119 1013 2119 754Z" fill="#000000" fill-rule="evenodd" fill-opacity="1"/><path d="M1169 742 1182 755 1182 1015 1169 1028 1156 1015 1156 755Z" fill="#000000" fill-rule="evenodd" fill-opacity="1"/><path d="M693.5 884C693.5 872.678 702.678 863.5 714 863.5 725.322 863.5 734.5 872.678 734.5 884 734.5 895.322 725.322 904.5 714 904.5 702.678 904.5 693.5 895.322 693.5 884Z" stroke="#FFFFFF" stroke-width="4.58333" stroke-linecap="butt" stroke-linejoin="miter" stroke-miterlimit="8" stroke-opacity="1" fill="#000000" fill-rule="evenodd" fill-opacity="1"/><path d="M2569.5 884C2569.5 872.678 2578.9 863.5 2590.5 863.5 2602.1 863.5 2611.5 872.678 2611.5 884 2611.5 895.322 2602.1 904.5 2590.5 904.5 2578.9 904.5 2569.5 895.322 2569.5 884Z" stroke="#FFFFFF" stroke-width="4.58333" stroke-linecap="butt" stroke-linejoin="miter" stroke-miterlimit="8" stroke-opacity="1" fill="#000000" fill-rule="evenodd" fill-opacity="1"/><path d="M711 884.001 724.001 871 2579 871 2592 884.001 2579 897 724.001 897Z" fill="#000000" fill-rule="evenodd" fill-opacity="1"/></g></g></svg>