<svg width="1567" height="1526" xmlns="http://www.w3.org/2000/svg" xmlns:xlink="http://www.w3.org/1999/xlink" xml:space="preserve" overflow="hidden"><g transform="translate(-1361 -119)"><g><path d="M1377 644 1377 903.871" stroke="#70AD47" stroke-width="2.29167" stroke-linecap="butt" stroke-linejoin="miter" stroke-miterlimit="8" stroke-opacity="1" fill="none" fill-rule="evenodd"/><path d="M1429 405 1559 145 1689 405Z" stroke="#70AD47" stroke-width="2.29167" stroke-linecap="butt" stroke-linejoin="miter" stroke-miterlimit="8" stroke-opacity="1" fill="none" fill-rule="evenodd"/><rect x="2017" y="858" width="325" height="266" stroke="#70AD47" stroke-width="2.29167" stroke-linecap="butt" stroke-linejoin="miter" stroke-miterlimit="8" stroke-opacity="1" fill="none"/><path d="M1621 858 1686 598 1907 598 1842 858Z" stroke="#70AD47" stroke-width="2.29167" stroke-linecap="butt" stroke-linejoin="miter" stroke-miterlimit="8" stroke-opacity="1" fill="none" fill-rule="evenodd"/><path d="M2576 1402 2717 1238 2858 1402 2717 1566Z" stroke="#70AD47" stroke-width="2.29167" stroke-linecap="butt" stroke-linejoin="miter" stroke-miterlimit="8" stroke-opacity="1" fill="none" fill-rule="evenodd"/><path d="M1923 1458.21 2092 1344 2261 1458.21 2196.45 1643 1987.55 1643Z" stroke="#70AD47" stroke-width="2.29167" stroke-linecap="butt" stroke-linejoin="miter" stroke-miterlimit="8" stroke-opacity="1" fill="none" fill-rule="evenodd"/><path d="M1364 1295.5 1437.25 1149 1602.75 1149 1676 1295.5 1602.75 1442 1437.25 1442Z" stroke="#70AD47" stroke-width="2.29167" stroke-linecap="butt" stroke-linejoin="miter" stroke-miterlimit="8" stroke-opacity="1" fill="none" fill-rule="evenodd"/><path d="M2638 350.311 2746.86 350.312 2780.5 251 2814.14 350.312 2923 350.311 2834.93 411.688 2868.57 511 2780.5 449.621 2692.43 511 2726.07 411.688Z" stroke="#70AD47" stroke-width="2.29167" stroke-linecap="butt" stroke-linejoin="miter" stroke-miterlimit="8" stroke-opacity="1" fill="none" fill-rule="evenodd"/><path d="M2599 783 2694 782.998 2741.5 700 2789 782.998 2884 783 2836.5 866 2884 949 2789 949.001 2741.5 1032 2694 949.001 2599 949 2646.5 866Z" stroke="#70AD47" stroke-width="2.29167" stroke-linecap="butt" stroke-linejoin="miter" stroke-miterlimit="8" stroke-opacity="1" fill="none" fill-rule="evenodd"/><path d="M2027 373.169 2087.06 296.122 2065.62 200.047 2161.94 200.047 2222 123 2282.06 200.047 2378.38 200.047 2356.94 296.122 2417 373.169 2330.22 415.926 2308.78 512.002 2222 469.244 2135.22 512.002 2113.78 415.926Z" stroke="#70AD47" stroke-width="2.29167" stroke-linecap="butt" stroke-linejoin="miter" stroke-miterlimit="8" stroke-opacity="1" fill="none" fill-rule="evenodd"/></g></g></svg>