<svg width="1425" height="1049" xmlns="http://www.w3.org/2000/svg" xmlns:xlink="http://www.w3.org/1999/xlink" xml:space="preserve" overflow="hidden"><g transform="translate(-1650 -458)"><g><path d="M2115 754 2285.5 460 2456 754Z" fill="#92D050" fill-rule="evenodd" fill-opacity="1"/><path d="M1966 1003 2103.16 786 2468.84 786 2606 1003Z" fill="#92D050" fill-rule="evenodd" fill-opacity="1"/><path d="M1809 1253 1946.8 1035 2627.2 1035 2765 1253Z" fill="#70AD47" fill-rule="evenodd" fill-opacity="1"/><path d="M1650 1506 1787.16 1289 2787.84 1289 2925 1506Z" fill="#70AD47" fill-rule="evenodd" fill-opacity="1"/><text fill="#000000" fill-opacity="1" font-family="DIN Pro Regular,DIN Pro Regular_MSFontService,sans-serif" font-style="normal" font-variant="normal" font-weight="400" font-stretch="normal" font-size="64" text-anchor="start" direction="ltr" writing-mode="lr-tb" unicode-bidi="normal" text-decoration="none" transform="matrix(1 0 0 1 2183.64 714)">Wissen</text><text fill="#000000" fill-opacity="1" font-family="DIN Pro Regular,DIN Pro Regular_MSFontService,sans-serif" font-style="normal" font-variant="normal" font-weight="400" font-stretch="normal" font-size="64" text-anchor="start" direction="ltr" writing-mode="lr-tb" unicode-bidi="normal" text-decoration="none" transform="matrix(1 0 0 1 2084.13 934)">Informationen</text><text fill="#000000" fill-opacity="1" font-family="DIN Pro Regular,DIN Pro Regular_MSFontService,sans-serif" font-style="normal" font-variant="normal" font-weight="400" font-stretch="normal" font-size="64" text-anchor="start" direction="ltr" writing-mode="lr-tb" unicode-bidi="normal" text-decoration="none" transform="matrix(1 0 0 1 2202.44 1165)">Daten</text><text fill="#000000" fill-opacity="1" font-family="DIN Pro Regular,DIN Pro Regular_MSFontService,sans-serif" font-style="normal" font-variant="normal" font-weight="400" font-stretch="normal" font-size="64" text-anchor="start" direction="ltr" writing-mode="lr-tb" unicode-bidi="normal" text-decoration="none" transform="matrix(1 0 0 1 2174.67 1409)">Zeichen</text><text fill="#000000" fill-opacity="1" font-family="DIN Pro Regular,DIN Pro Regular_MSFontService,sans-serif" font-style="normal" font-variant="normal" font-weight="400" font-stretch="normal" font-size="64" text-anchor="start" direction="ltr" writing-mode="lr-tb" unicode-bidi="normal" text-decoration="none" transform="matrix(1 0 0 1 2662.19 749)">Verarbeitung</text><path d="M0 178 0 69.4486C-1.13309e-14 31.0932 31.0932 0 69.4487-1.13309e-14L77.0918 0C115.447-1.13309e-14 146.54 31.0932 146.54 69.4486L146.54 125.936 174 125.936 130.5 178 87.0001 125.936 114.46 125.936 114.46 69.4486C114.46 48.8107 97.7296 32.0803 77.0916 32.0803L69.4487 32.0803C48.8107 32.0803 32.0803 48.8107 32.0803 69.4486L32.0803 178Z" fill="#92D050" fill-rule="evenodd" fill-opacity="1" transform="matrix(-6.12323e-17 -1 -1 6.12323e-17 2627 819)"/></g></g></svg>