<svg width="1553" height="1049" xmlns="http://www.w3.org/2000/svg" xmlns:xlink="http://www.w3.org/1999/xlink" xml:space="preserve" overflow="hidden"><g transform="translate(-1650 -458)"><g><path d="M2115 754 2285.5 460 2456 754Z" fill="#70AD47" fill-rule="evenodd" fill-opacity="1"/><path d="M1966 1003 2103.16 786 2468.84 786 2606 1003Z" fill="#70AD47" fill-rule="evenodd" fill-opacity="1"/><path d="M1809 1253 1946.8 1035 2627.2 1035 2765 1253Z" fill="#92D050" fill-rule="evenodd" fill-opacity="1"/><path d="M1650 1506 1787.16 1289 2787.84 1289 2925 1506Z" fill="#92D050" fill-rule="evenodd" fill-opacity="1"/><text fill="#000000" fill-opacity="1" font-family="DIN Pro Regular,DIN Pro Regular_MSFontService,sans-serif" font-style="normal" font-variant="normal" font-weight="400" font-stretch="normal" font-size="64" text-anchor="start" direction="ltr" writing-mode="lr-tb" unicode-bidi="normal" text-decoration="none" transform="matrix(1 0 0 1 2183.64 714)">Wissen</text><text fill="#000000" fill-opacity="1" font-family="DIN Pro Regular,DIN Pro Regular_MSFontService,sans-serif" font-style="normal" font-variant="normal" font-weight="400" font-stretch="normal" font-size="64" text-anchor="start" direction="ltr" writing-mode="lr-tb" unicode-bidi="normal" text-decoration="none" transform="matrix(1 0 0 1 2084.13 934)">Informationen</text><text fill="#000000" fill-opacity="1" font-family="DIN Pro Regular,DIN Pro Regular_MSFontService,sans-serif" font-style="normal" font-variant="normal" font-weight="400" font-stretch="normal" font-size="64" text-anchor="start" direction="ltr" writing-mode="lr-tb" unicode-bidi="normal" text-decoration="none" transform="matrix(1 0 0 1 2202.44 1165)">Daten</text><text fill="#000000" fill-opacity="1" font-family="DIN Pro Regular,DIN Pro Regular_MSFontService,sans-serif" font-style="normal" font-variant="normal" font-weight="400" font-stretch="normal" font-size="64" text-anchor="start" direction="ltr" writing-mode="lr-tb" unicode-bidi="normal" text-decoration="none" transform="matrix(1 0 0 1 2174.67 1409)">Zeichen</text><path d="M0 179 0 69.8476C0 31.2718 31.2719-1.13946e-14 69.8477-1.13946e-14L77.5347 0C116.11-1.13946e-14 147.382 31.2718 147.382 69.8476L147.382 126.637 175 126.637 131.25 179 87.5001 126.637 115.118 126.637 115.118 69.8476C115.118 49.0911 98.2912 32.2647 77.5347 32.2647L69.8477 32.2647C49.0912 32.2647 32.2647 49.0911 32.2647 69.8476L32.2647 179Z" fill="#92D050" fill-rule="evenodd" fill-opacity="1" transform="matrix(-6.12323e-17 -1 -1 6.12323e-17 2936 1324)"/><text fill="#000000" fill-opacity="1" font-family="DIN Pro Regular,DIN Pro Regular_MSFontService,sans-serif" font-style="normal" font-variant="normal" font-weight="400" font-stretch="normal" font-size="64" text-anchor="start" direction="ltr" writing-mode="lr-tb" unicode-bidi="normal" text-decoration="none" transform="matrix(1 0 0 1 2975.96 1249)">Syntax</text></g></g></svg>