<svg width="1884" height="1137" xmlns="http://www.w3.org/2000/svg" xmlns:xlink="http://www.w3.org/1999/xlink" xml:space="preserve" overflow="hidden"><g transform="translate(-1191 -178)"><g><g><g><g><path d="M150.892 128.592C154.916 124.356 154.743 117.66 150.507 113.636 148.545 111.773 145.944 110.733 143.239 110.728L142.987 110.728 141.05 110.728 141.282 110.728C146.891 109.091 150.11 103.217 148.473 97.6089 146.91 92.2537 141.457 89.0328 136.012 90.2487L109.101 97.1462C112.084 94.3369 114.564 91.6825 116.231 89.8419L143.53 80.1544C147.013 78.9184 148.835 75.093 147.599 71.61 146.363 68.1269 142.537 66.3053 139.054 67.5412L113.499 76.5894 143.511 55.7031C146.594 53.6542 147.433 49.4932 145.384 46.4095 143.335 43.3258 139.174 42.487 136.091 44.5359 136.012 44.5883 135.934 44.6423 135.857 44.6981L109.701 62.93 131.75 37.6844C134.033 34.7698 133.521 30.5561 130.607 28.273 127.905 26.1568 124.042 26.4223 121.656 28.8881L98.0569 56.0131 114.099 25.9237C115.679 22.5752 114.245 18.5802 110.896 17.0007 107.776 15.5292 104.049 16.6653 102.281 19.6269L82.9056 55.7806C79.6491 58.9446 76.0784 61.7687 72.2494 64.2087L72.2494 63.7631C73.5669 53.4362 71.92 41.7725 66.7662 34.2356 64.808 31.3732 60.9003 30.6402 58.0378 32.5984 55.1753 34.5567 54.4424 38.4644 56.4006 41.3269 58.8612 44.9112 57.9119 52.3706 56.885 60.2562 55.7612 69.9631 54.25 81.5881 58.125 92.6706L45.7831 106.814 36.0956 106.814C33.9555 106.814 32.2206 108.549 32.2206 110.689L32.2206 139.752C32.2206 141.892 33.9555 143.627 36.0956 143.627L53.6687 143.627C61.9806 154.554 84.6687 155.659 93.3294 155.659L93.5231 155.659 118.187 168.795C119.709 169.602 121.406 170.021 123.128 170.016 128.971 170.014 133.705 165.276 133.704 159.434 133.703 156.034 132.067 152.841 129.309 150.854L137.059 152.636C142.752 153.889 148.391 150.317 149.691 144.634 150.956 138.939 147.379 133.292 141.689 132.002L141.302 132.002 143.239 132.002C146.15 131.965 148.918 130.731 150.892 128.592ZM109.817 124.911C107.677 124.702 105.773 126.268 105.565 128.408 105.356 130.548 106.922 132.452 109.062 132.661L140.159 139.5C141.677 139.847 142.634 141.349 142.309 142.871 142.137 143.596 141.693 144.227 141.069 144.634 140.439 145.043 139.669 145.176 138.938 145.002L103.249 137.039C101.165 136.555 99.0824 137.853 98.5984 139.938 98.1995 141.657 99.0122 143.428 100.576 144.247L124.542 156.937C125.971 157.571 126.615 159.242 125.982 160.67 125.348 162.098 123.677 162.743 122.249 162.109 122.124 162.054 122.004 161.99 121.888 161.917L96.2937 148.354C95.7322 148.059 95.1068 147.906 94.4725 147.909 79.7669 148.102 63.0656 145.061 59.2294 137.911 58.553 136.658 57.2434 135.877 55.8194 135.877L39.9512 135.877 39.9512 114.564 53.165 114.564C54.5933 114.56 55.9036 113.771 56.575 112.511 61.535 103.269 70.2344 97.1269 77.8875 91.7406L78.585 91.2369C86.0056 86.0056 92.4187 81.5494 93.7362 75.7369 94.0427 74.4486 95.3341 73.6513 96.6231 73.9544 97.2474 74.0859 97.7881 74.4723 98.115 75.02 98.457 75.5615 98.5686 76.2172 98.425 76.8412 96.72 84.1456 90.2294 92.6512 81.8981 98.5219L81.7625 98.8125 81.5881 98.9287C79.8198 100.134 79.3633 102.545 80.5688 104.313 81.0995 105.092 81.8958 105.65 82.8087 105.884 87.4634 107.138 92.236 107.905 97.0494 108.171 97.4274 108.18 97.805 108.141 98.1731 108.054L137.853 97.8437C138.574 97.6541 139.341 97.7587 139.984 98.1344 140.632 98.51 141.101 99.1322 141.282 99.8587 141.693 101.345 140.828 102.885 139.345 103.307L106.407 111.794C104.332 112.314 103.071 114.419 103.591 116.494 104.023 118.221 105.577 119.431 107.357 119.427L107.454 119.427 143.317 118.575C144.874 118.704 146.031 120.071 145.902 121.628 145.788 123.006 144.694 124.099 143.317 124.213Z" fill="#8FAADC" fill-rule="nonzero" fill-opacity="1" transform="matrix(1 0 0 1.00538 2040 181)"/></g></g></g><g><g><g><path d="M1580.02 1242.05C1596.03 1226.66 1596.85 1201.21 1581.67 1184.8 1597.88 1193.21 1611.22 1206.14 1619.01 1214.76 1610.81 1222.76 1596.85 1234.66 1580.02 1242.05ZM1499.38 1199.78C1506.15 1194.03 1513.33 1189.11 1521.13 1185 1506.15 1201.42 1506.97 1226.66 1522.98 1242.05 1506.15 1234.66 1491.99 1222.76 1483.99 1214.76 1488.71 1209.42 1493.84 1204.5 1499.38 1199.78ZM1551.5 1245.33C1533.44 1245.33 1518.67 1230.56 1518.67 1212.5 1518.67 1194.44 1533.44 1179.67 1551.5 1179.67 1569.56 1179.67 1584.33 1194.44 1584.33 1212.5 1584.33 1230.56 1569.56 1245.33 1551.5 1245.33ZM1631.33 1209.01C1619.42 1195.06 1588.23 1163.25 1551.5 1163.25 1514.77 1163.25 1483.58 1195.06 1471.67 1209.01 1468.6 1212.71 1468.8 1217.84 1472.08 1221.32 1484.19 1234.05 1515.18 1261.75 1551.5 1261.75 1587.82 1261.75 1618.81 1234.05 1631.12 1221.32 1634.2 1218.04 1634.4 1212.71 1631.33 1209.01Z" fill="#8FAADC" fill-rule="nonzero" fill-opacity="1"/><path d="M1572.02 1212.5C1572.02 1223.83 1562.83 1233.02 1551.5 1233.02 1540.17 1233.02 1530.98 1223.83 1530.98 1212.5 1530.98 1201.17 1540.17 1191.98 1551.5 1191.98 1562.83 1191.98 1572.02 1201.17 1572.02 1212.5Z" fill="#8FAADC" fill-rule="nonzero" fill-opacity="1"/></g></g></g><g><g><g><path d="M115.211 106.732C122.087 98.8593 133.594 85.6959 133.594 71.2499 133.609 44.6885 112.089 23.1439 85.5274 23.1288 61.8059 23.1151 41.6174 40.3996 37.9762 63.8399 36.195 75.8812 40.9687 87.4415 44.7984 96.704 46.1863 99.7535 47.324 102.911 48.2006 106.145 48.5925 108.104 49.0021 110.865 49.4475 113.804 51.7631 129.23 53.7046 139.614 59.2978 143.266 65.051 147.292 71.8709 149.518 78.8915 149.66L80.459 149.66C112.628 147.879 112.112 123.173 111.916 113.857 111.916 112.824 111.916 111.471 111.916 110.74 112.504 109.85 114 108.14 115.211 106.732ZM62.8603 68.2931C69.5184 60.4917 80.0295 57.149 89.9708 59.6718 103.867 63.4887 112.062 77.8229 108.3 91.7343 106.216 99.358 98.3962 104.559 93.7115 107.766 92.999 108.229 92.1618 108.799 91.6809 109.137 91.6809 109.511 91.4493 110.046 91.3424 110.455 90.2559 114.819 87.5662 125.542 75.2043 125.542 73.2709 125.501 71.3479 125.25 69.4687 124.794 66.3861 123.993 63.7931 121.913 62.3437 119.076 60.568 115.784 60.3207 111.879 61.6668 108.389 62.25 106.51 64.2461 105.459 66.1251 106.043 68.0043 106.626 69.0547 108.622 68.4717 110.501 68.4313 110.631 68.3836 110.758 68.3287 110.883 67.6862 112.464 67.7909 114.25 68.6137 115.746 69.0909 116.744 69.9322 117.521 70.9649 117.919 80.7618 120.038 82.7924 115.247 84.4134 108.745 84.628 107.263 85.203 105.857 86.0877 104.648 87.1558 103.573 88.3522 102.634 89.6502 101.852 93.4977 99.2868 99.9458 95.0118 101.317 89.9708 104.068 79.8498 98.108 69.412 87.9937 66.6365 80.7082 64.862 73.0438 67.334 68.1684 73.0312 65.6011 75.8169 63.6739 79.1302 62.5218 82.739 63.4121 84.6444 64.5241 86.4381 65.8349 88.0827 67.0636 89.6176 66.8166 91.8579 65.2828 93.088 64.6511 93.5948 63.8659 93.8711 63.0562 93.8718 61.9689 93.8766 60.9392 93.3846 60.2596 92.5359 48.6226 78.0222 50.9544 56.8231 65.468 45.186 79.9814 33.5487 101.181 35.8806 112.818 50.3942 115.858 54.1858 118.042 58.5904 119.219 63.3056 119.711 65.214 118.562 67.16 116.654 67.6518 114.746 68.1436 112.8 66.9952 112.308 65.0868 108.785 50.8482 94.3869 42.1613 80.1483 45.6839 68.082 48.6692 59.7001 59.6243 59.9746 72.0515 60.8578 70.7401 61.8214 69.4849 62.8603 68.2931Z" fill="#8FAADC" fill-rule="nonzero" fill-opacity="1" transform="matrix(1 0 0 1 2609 1096)"/></g></g></g><path d="M1650.5 1185.5 2131.5 356.5 2612.5 1185.5Z" stroke="#2F528F" stroke-width="4.58333" stroke-linecap="butt" stroke-linejoin="miter" stroke-miterlimit="8" stroke-opacity="1" fill="none" fill-rule="evenodd"/><text fill="#000000" fill-opacity="1" font-family="DIN Pro Regular,DIN Pro Regular_MSFontService,sans-serif" font-style="normal" font-variant="normal" font-weight="400" font-stretch="normal" font-size="73" text-anchor="start" direction="ltr" writing-mode="lr-tb" unicode-bidi="normal" text-decoration="none" transform="matrix(1 0 0 1 2241.72 302)">Taktil</text><text fill="#000000" fill-opacity="1" font-family="DIN Pro Regular,DIN Pro Regular_MSFontService,sans-serif" font-style="normal" font-variant="normal" font-weight="400" font-stretch="normal" font-size="73" text-anchor="start" direction="ltr" writing-mode="lr-tb" unicode-bidi="normal" text-decoration="none" transform="matrix(1 0 0 1 1236.01 1240)">Visuell</text><text fill="#000000" fill-opacity="1" font-family="DIN Pro Regular,DIN Pro Regular_MSFontService,sans-serif" font-style="normal" font-variant="normal" font-weight="400" font-stretch="normal" font-size="73" text-anchor="start" direction="ltr" writing-mode="lr-tb" unicode-bidi="normal" text-decoration="none" transform="matrix(1 0 0 1 2776.87 1198)">Auditiv</text><path d="M1832 1070C1832 1055.64 1843.64 1044 1858 1044 1872.36 1044 1884 1055.64 1884 1070 1884 1084.36 1872.36 1096 1858 1096 1843.64 1096 1832 1084.36 1832 1070Z" fill="#4472C4" fill-rule="evenodd" fill-opacity="1"/></g></g></svg>