<svg width="1549" height="1049" xmlns="http://www.w3.org/2000/svg" xmlns:xlink="http://www.w3.org/1999/xlink" xml:space="preserve" overflow="hidden"><g transform="translate(-1650 -458)"><g><text fill="#000000" fill-opacity="1" font-family="DIN Pro Regular,DIN Pro Regular_MSFontService,sans-serif" font-style="normal" font-variant="normal" font-weight="400" font-stretch="normal" font-size="64" text-anchor="start" direction="ltr" writing-mode="lr-tb" unicode-bidi="normal" text-decoration="none" transform="matrix(1 0 0 1 2804.36 998)">Semantik</text><text fill="#000000" fill-opacity="1" font-family="DIN Pro Regular,DIN Pro Regular_MSFontService,sans-serif" font-style="normal" font-variant="normal" font-weight="400" font-stretch="normal" font-size="64" text-anchor="start" direction="ltr" writing-mode="lr-tb" unicode-bidi="normal" text-decoration="none" transform="matrix(1 0 0 1 2662.19 749)">Verarbeitung</text><path d="M2115 754 2285.5 460 2456 754Z" fill="#70AD47" fill-rule="evenodd" fill-opacity="1"/><path d="M1966 1003 2103.16 786 2468.84 786 2606 1003Z" fill="#70AD47" fill-rule="evenodd" fill-opacity="1"/><path d="M1809 1253 1946.8 1035 2627.2 1035 2765 1253Z" fill="#70AD47" fill-rule="evenodd" fill-opacity="1"/><path d="M1650 1506 1787.16 1289 2787.84 1289 2925 1506Z" fill="#70AD47" fill-rule="evenodd" fill-opacity="1"/><text fill="#000000" fill-opacity="1" font-family="DIN Pro Regular,DIN Pro Regular_MSFontService,sans-serif" font-style="normal" font-variant="normal" font-weight="400" font-stretch="normal" font-size="64" text-anchor="start" direction="ltr" writing-mode="lr-tb" unicode-bidi="normal" text-decoration="none" transform="matrix(1 0 0 1 2183.64 714)">Wissen</text><text fill="#000000" fill-opacity="1" font-family="DIN Pro Regular,DIN Pro Regular_MSFontService,sans-serif" font-style="normal" font-variant="normal" font-weight="400" font-stretch="normal" font-size="64" text-anchor="start" direction="ltr" writing-mode="lr-tb" unicode-bidi="normal" text-decoration="none" transform="matrix(1 0 0 1 2084.13 934)">Informationen</text><text fill="#000000" fill-opacity="1" font-family="DIN Pro Regular,DIN Pro Regular_MSFontService,sans-serif" font-style="normal" font-variant="normal" font-weight="400" font-stretch="normal" font-size="64" text-anchor="start" direction="ltr" writing-mode="lr-tb" unicode-bidi="normal" text-decoration="none" transform="matrix(1 0 0 1 2202.44 1165)">Daten</text><text fill="#000000" fill-opacity="1" font-family="DIN Pro Regular,DIN Pro Regular_MSFontService,sans-serif" font-style="normal" font-variant="normal" font-weight="400" font-stretch="normal" font-size="64" text-anchor="start" direction="ltr" writing-mode="lr-tb" unicode-bidi="normal" text-decoration="none" transform="matrix(1 0 0 1 2174.67 1409)">Zeichen</text><path d="M0 179 0 69.8449C-1.13946e-14 31.2706 31.2706 0 69.8449-1.13946e-14L77.5315 0C116.106-1.13946e-14 147.376 31.2706 147.376 69.8449L147.376 126.639 174.993 126.639 131.245 179 87.4966 126.639 115.113 126.639 115.113 69.8449C115.113 49.0892 98.2874 32.2635 77.5317 32.2635L69.8449 32.2635C49.0893 32.2635 32.2635 49.0892 32.2635 69.8449L32.2635 179Z" fill="#70AD47" fill-rule="evenodd" fill-opacity="1" transform="matrix(-6.12323e-17 -1 -1 6.12323e-17 2936 1324)"/><text fill="#000000" fill-opacity="1" font-family="DIN Pro Regular,DIN Pro Regular_MSFontService,sans-serif" font-style="normal" font-variant="normal" font-weight="400" font-stretch="normal" font-size="64" text-anchor="start" direction="ltr" writing-mode="lr-tb" unicode-bidi="normal" text-decoration="none" transform="matrix(1 0 0 1 2969.36 1249)">Syntax</text><path d="M0 179 0 69.8449C-1.13946e-14 31.2706 31.2706 0 69.8449-1.13946e-14L77.5315 0C116.106-1.13946e-14 147.376 31.2706 147.376 69.8449L147.376 126.639 174.993 126.639 131.245 179 87.4966 126.639 115.113 126.639 115.113 69.8449C115.113 49.0892 98.2874 32.2635 77.5317 32.2635L69.8449 32.2635C49.0893 32.2635 32.2635 49.0892 32.2635 69.8449L32.2635 179Z" fill="#70AD47" fill-rule="evenodd" fill-opacity="1" transform="matrix(-6.12323e-17 -1 -1 6.12323e-17 2771 1069)"/><path d="M0 178 0 69.8479C-1.13309e-14 31.272 31.272 0 69.8479-1.13309e-14L77.5348 0C116.111-1.13309e-14 147.383 31.272 147.383 69.8479L147.383 125.636 175 125.636 131.25 178 87.5002 125.636 115.118 125.636 115.118 69.8479C115.118 49.0914 98.2913 32.2648 77.5348 32.2648L69.8479 32.2648C49.0914 32.2648 32.2649 49.0914 32.2649 69.8479L32.2649 178Z" fill="#70AD47" fill-rule="evenodd" fill-opacity="1" transform="matrix(-6.12323e-17 -1 -1 6.12323e-17 2627 819)"/></g></g></svg>