<?xml version="1.0" encoding="UTF-8" standalone="no"?>
<!DOCTYPE svg PUBLIC "-//W3C//DTD SVG 1.1//EN" "http://www.w3.org/Graphics/SVG/1.1/DTD/svg11.dtd">
<svg width="100%" height="100%" viewBox="0 0 2113 400" version="1.1" xmlns="http://www.w3.org/2000/svg" xmlns:xlink="http://www.w3.org/1999/xlink" xml:space="preserve" xmlns:serif="http://www.serif.com/" style="fill-rule:evenodd;clip-rule:evenodd;stroke-miterlimit:8;">
    <g transform="matrix(1,0,0,1,-1159,-587.828)">
        <g>
            <path d="M1171.5,612.6C1171.5,602.052 1180.05,593.5 1190.6,593.5L1469.4,593.5C1479.95,593.5 1488.5,602.052 1488.5,612.6L1488.5,765.4C1488.5,775.949 1479.95,784.5 1469.4,784.5L1190.6,784.5C1180.05,784.5 1171.5,775.949 1171.5,765.4L1171.5,612.6Z" style="fill:rgb(68,114,196);stroke:white;stroke-width:4.58px;"/>
            <g transform="matrix(1,0,0,1,1220.17,680)">
                <text x="0px" y="0px" style="font-family:'Helvetica';font-size:41px;fill:white;">Stichpunkte</text>
            </g>
            <g transform="matrix(1,0,0,1,1223.86,726)">
                <text x="0px" y="0px" style="font-family:'Helvetica';font-size:41px;fill:white;">Aufnehmen</text>
            </g>
            <path d="M1520,664.8L1553.5,664.8L1553.5,649L1587,688.5L1553.5,728L1553.5,712.2L1520,712.2L1520,664.8Z" style="fill:rgb(176,188,222);"/>
            <path d="M1615.5,612.6C1615.5,602.051 1624.05,593.5 1634.6,593.5L1914.4,593.5C1924.95,593.5 1933.5,602.051 1933.5,612.6L1933.5,765.4C1933.5,775.949 1924.95,784.5 1914.4,784.5L1634.6,784.5C1624.05,784.5 1615.5,775.949 1615.5,765.4L1615.5,612.6Z" style="fill:rgb(68,114,196);stroke:white;stroke-width:4.58px;"/>
            <g transform="matrix(1,0,0,1,1708.75,680)">
                <text x="0px" y="0px" style="font-family:'Helvetica';font-size:41px;fill:white;">Fragen</text>
            </g>
            <g transform="matrix(1,0,0,1,1652.76,726)">
                <text x="0px" y="0px" style="font-family:'Helvetica';font-size:41px;fill:white;">Aufschreiben</text>
            </g>
            <path d="M1965,664.8L1998.5,664.8L1998.5,649L2032,688.5L1998.5,728L1998.5,712.2L1965,712.2L1965,664.8Z" style="fill:rgb(176,188,222);"/>
            <path d="M2060.5,612.6C2060.5,602.052 2069.05,593.5 2079.6,593.5L2358.4,593.5C2368.95,593.5 2377.5,602.052 2377.5,612.6L2377.5,765.4C2377.5,775.949 2368.95,784.5 2358.4,784.5L2079.6,784.5C2069.05,784.5 2060.5,775.949 2060.5,765.4L2060.5,612.6Z" style="fill:rgb(68,114,196);stroke:white;stroke-width:4.58px;"/>
            <g transform="matrix(1,0,0,1,2086.71,703)">
                <text x="0px" y="0px" style="font-family:'Helvetica';font-size:41px;fill:white;">Fragen Klären</text>
            </g>
            <path d="M2409,664.8L2442.5,664.8L2442.5,649L2476,688.5L2442.5,728L2442.5,712.2L2409,712.2L2409,664.8Z" style="fill:rgb(176,188,222);"/>
            <path d="M2504.5,612.6C2504.5,602.051 2513.05,593.5 2523.6,593.5L2803.4,593.5C2813.95,593.5 2822.5,602.051 2822.5,612.6L2822.5,765.4C2822.5,775.949 2813.95,784.5 2803.4,784.5L2523.6,784.5C2513.05,784.5 2504.5,775.949 2504.5,765.4L2504.5,612.6Z" style="fill:rgb(68,114,196);stroke:white;stroke-width:4.58px;"/>
            <g transform="matrix(1,0,0,1,2538.44,703)">
                <text x="0px" y="0px" style="font-family:'Helvetica';font-size:41px;fill:white;">Strukturieren</text>
            </g>
            <path d="M2854,664.8L2887.5,664.8L2887.5,649L2921,688.5L2887.5,728L2887.5,712.2L2854,712.2L2854,664.8Z" style="fill:rgb(176,188,222);"/>
            <path d="M2949.5,612.6C2949.5,602.051 2958.05,593.5 2968.6,593.5L3248.4,593.5C3258.95,593.5 3267.5,602.051 3267.5,612.6L3267.5,765.4C3267.5,775.949 3258.95,784.5 3248.4,784.5L2968.6,784.5C2958.05,784.5 2949.5,775.949 2949.5,765.4L2949.5,612.6Z" style="fill:rgb(68,114,196);stroke:white;stroke-width:4.58px;"/>
            <g transform="matrix(1,0,0,1,2997.15,703)">
                <text x="0px" y="0px" style="font-family:'Helvetica';font-size:41px;fill:white;">Ausarbeiten</text>
            </g>
            <path d="M1983,830C1983,844.084 1981.1,855.5 1978.75,855.5L1577.75,855.5C1575.4,855.5 1573.5,866.917 1573.5,881C1573.5,866.917 1571.6,855.5 1569.25,855.5L1168.25,855.5C1165.9,855.5 1164,844.084 1164,830" style="fill:none;stroke:rgb(68,114,196);stroke-width:2.29px;"/>
            <path d="M3268,830C3268,844.083 3266.1,855.5 3263.75,855.5L2645.25,855.5C2642.9,855.5 2641,866.917 2641,881C2641,866.917 2639.1,855.5 2636.75,855.5L2018.25,855.5C2015.9,855.5 2014,844.083 2014,830" style="fill:none;stroke:rgb(68,114,196);stroke-width:2.29px;"/>
            <g transform="matrix(1,0,0,1,1436.12,968)">
                <text x="0px" y="0px" style="font-family:'Helvetica';font-size:64px;">V<tspan x="39.188px 74.781px " y="0px 0px ">or</tspan>lesung</text>
            </g>
            <g transform="matrix(1,0,0,1,2481.35,968)">
                <text x="0px" y="0px" style="font-family:'Helvetica';font-size:64px;">Nacharbeit</text>
            </g>
        </g>
    </g>
</svg>
