<svg width="1228" height="195.8" overflow="hidden" version="1.1" xmlns="http://www.w3.org/2000/svg"><defs><clipPath id="clip0"><rect x="864" y="639" width="1584" height="578"/></clipPath></defs><g transform="translate(-1005.3 -740.59)" clip-path="url(#clip0)"><g fill="#898989" aria-label="sustainableai4construction"><path d="m1464.3 805.32q0 11.532-8.308 18.352-8.308 6.696-22.196 6.696-9.92 0-16.988-2.728t-13.144-8.928l6.324-6.324q5.332 5.332 10.788 7.44 5.58 2.108 13.268 2.108 9.796 0 15.376-4.216 5.58-4.34 5.58-12.152 0-7.192-4.34-11.036-3.348-3.1-11.532-4.34l-10.292-1.488q-10.416-1.612-16.12-6.696-6.82-6.076-6.82-16.616 0-11.284 7.564-17.98 7.688-6.82 20.708-6.82 8.308 0 14.384 2.356 6.2 2.232 11.904 7.316l-6.076 6.076q-8.06-7.688-20.584-7.688-8.804 0-13.764 4.464t-4.96 12.028q0 6.82 3.968 10.292 3.844 3.348 11.532 4.588l10.292 1.612q6.2 0.992 9.548 2.356 3.472 1.24 6.448 3.968 7.44 6.448 7.44 17.36zm84.504-4.836q0 13.144-8.804 21.576-8.68 8.308-22.072 8.308t-22.072-8.308q-8.68-8.432-8.68-21.576v-59.148h9.424v58.404q0 10.044 5.828 16.12t15.5 6.076 15.5-6.076q5.952-6.076 5.952-16.12v-58.404h9.424zm81.9 4.836q0 11.532-8.308 18.352-8.308 6.696-22.196 6.696-9.92 0-16.988-2.728t-13.144-8.928l6.324-6.324q5.332 5.332 10.788 7.44 5.58 2.108 13.268 2.108 9.796 0 15.376-4.216 5.58-4.34 5.58-12.152 0-7.192-4.34-11.036-3.348-3.1-11.532-4.34l-10.292-1.488q-10.416-1.612-16.12-6.696-6.82-6.076-6.82-16.616 0-11.284 7.564-17.98 7.688-6.82 20.708-6.82 8.308 0 14.384 2.356 6.2 2.232 11.904 7.316l-6.076 6.076q-8.06-7.688-20.584-7.688-8.804 0-13.764 4.464t-4.96 12.028q0 6.82 3.968 10.292 3.844 3.348 11.532 4.588l10.292 1.612q6.2 0.992 9.548 2.356 3.472 1.24 6.448 3.968 7.44 6.448 7.44 17.36zm74.336-55.552h-25.544v79.856h-9.424v-79.856h-25.544v-8.432h60.512zm77.932 79.856h-9.92l-23.312-74.896-23.56 74.896h-9.92l29.016-88.288h8.68zm30.316 0h-9.424v-88.288h9.424zm95.168 0h-8.928l-46.872-70.804v70.804h-9.424v-88.288h8.928l46.872 70.556v-70.556h9.424zm87.604 0h-9.92l-23.312-74.896-23.56 74.896h-9.92l29.016-88.288h8.68zm20.892-8.432h33.48q6.324 0 12.028-4.588 5.704-4.712 5.704-11.656 0-7.44-4.836-11.78-4.712-4.34-12.896-4.34h-33.48v-8.432h32.488q7.688 0 12.524-3.844 4.836-3.968 4.836-11.532t-4.836-11.408q-4.712-3.844-12.524-3.844h-32.488v-8.432h33.232q11.656 0 18.848 6.324t7.192 17.236q0 6.82-3.72 12.028-3.596 5.208-9.3 7.316 6.572 2.356 10.416 7.812 3.968 5.456 3.968 13.144 0 11.78-7.192 18.104-7.068 6.324-19.096 6.324h-34.348zm141.79 8.432h-54.56v-88.288h9.424v79.856h45.136zm19.652-88.288h54.808v8.432h-54.808zm0 39.556h48.112v8.432h-48.112zm0 40.3h54.808v8.432h-54.808z"/><path d="m1153.3 936.39h-22l-51.7-166.1-52.25 166.1h-22l64.35-195.8h19.25zm57.475 0h-20.9v-195.8h20.9zm160.87-31.075h-23.925v31.075h-19.525v-31.075h-78.1v-17.875l70.675-146.85h21.175l-70.675 146.85h56.925v-55.55h19.525v55.55h23.925z"/><path d="m1463.6 910.1q-2.356 12.276-10.54 19.344-8.184 6.944-20.088 6.944-13.392 0-22.072-8.68-5.828-5.828-7.316-12.772t-1.488-23.436 1.488-23.436 7.316-12.772q8.68-8.68 22.072-8.68 12.028 0 20.088 6.944 8.184 6.944 10.54 19.344h-9.672q-1.736-8.308-7.316-13.02-5.456-4.836-13.64-4.836-9.052 0-15.252 6.2-3.968 4.092-5.084 10.044-1.116 5.828-1.116 20.212t1.116 20.336q1.116 5.828 5.084 9.92 6.2 6.2 15.252 6.2 8.184 0 13.764-4.712 5.704-4.836 7.44-13.144zm70.888-41.912q1.488 6.944 1.488 23.312t-1.488 23.312-7.44 12.896q-8.68 8.68-21.948 8.68-13.392 0-22.072-8.68-5.828-5.828-7.316-12.772t-1.488-23.436 1.488-23.436 7.316-12.772q8.68-8.68 22.072-8.68 13.268 0 21.948 8.68 5.952 5.952 7.44 12.896zm-9.052 43.648q1.116-5.952 1.116-20.336t-1.116-20.212q-1.116-5.952-5.084-10.044-6.2-6.2-15.252-6.2t-15.252 6.2q-3.968 4.092-5.084 10.044-1.116 5.828-1.116 20.212t1.116 20.336q1.116 5.828 5.084 9.92 6.2 6.2 15.252 6.2t15.252-6.2q3.968-4.092 5.084-9.92zm92.96 23.808h-8.928l-46.872-70.804v70.804h-9.424v-88.288h8.928l46.872 70.556v-70.556h9.424zm73.74-24.304q0 11.532-8.308 18.352-8.308 6.696-22.196 6.696-9.92 0-16.988-2.728t-13.144-8.928l6.324-6.324q5.332 5.332 10.788 7.44 5.58 2.108 13.268 2.108 9.796 0 15.376-4.216 5.58-4.34 5.58-12.152 0-7.192-4.34-11.036-3.348-3.1-11.532-4.34l-10.292-1.488q-10.416-1.612-16.12-6.696-6.82-6.076-6.82-16.616 0-11.284 7.564-17.98 7.688-6.82 20.708-6.82 8.308 0 14.384 2.356 6.2 2.232 11.904 7.316l-6.076 6.076q-8.06-7.688-20.584-7.688-8.804 0-13.764 4.464t-4.96 12.028q0 6.82 3.968 10.292 3.844 3.348 11.532 4.588l10.292 1.612q6.2 0.992 9.548 2.356 3.472 1.24 6.448 3.968 7.44 6.448 7.44 17.36zm64.936-55.552h-25.544v79.856h-9.424v-79.856h-25.544v-8.432h60.512zm11.492 32.364h32.984q8.06 0 12.772-4.092 4.836-4.216 4.836-12.028t-4.836-12.028-12.772-4.216h-32.984v-8.432h33.852q11.656 0 18.848 6.696 7.316 6.572 7.316 17.856 0 9.424-5.208 15.624t-14.012 8.06l20.956 40.052h-11.036l-20.088-39.184h-21.204v39.184h-9.424zm136.73 18.352q0 13.144-8.804 21.576-8.68 8.308-22.072 8.308t-22.072-8.308q-8.68-8.432-8.68-21.576v-59.148h9.424v58.404q0 10.044 5.828 16.12t15.5 6.076 15.5-6.076q5.952-6.076 5.952-16.12v-58.404h9.424zm77.46 3.596q-2.356 12.276-10.54 19.344-8.184 6.944-20.088 6.944-13.392 0-22.072-8.68-5.828-5.828-7.316-12.772t-1.488-23.436 1.488-23.436 7.316-12.772q8.68-8.68 22.072-8.68 12.028 0 20.088 6.944 8.184 6.944 10.54 19.344h-9.672q-1.736-8.308-7.316-13.02-5.456-4.836-13.64-4.836-9.052 0-15.252 6.2-3.968 4.092-5.084 10.044-1.116 5.828-1.116 20.212t1.116 20.336q1.116 5.828 5.084 9.92 6.2 6.2 15.252 6.2 8.184 0 13.764-4.712 5.704-4.836 7.44-13.144zm67.292-54.312h-25.544v79.856h-9.424v-79.856h-25.544v-8.432h60.512zm20.916 79.856h-9.424v-88.288h9.424zm77.46-67.456q1.488 6.944 1.488 23.312t-1.488 23.312-7.44 12.896q-8.68 8.68-21.948 8.68-13.392 0-22.072-8.68-5.828-5.828-7.316-12.772t-1.488-23.436 1.488-23.436 7.316-12.772q8.68-8.68 22.072-8.68 13.268 0 21.948 8.68 5.952 5.952 7.44 12.896zm-9.052 43.648q1.116-5.952 1.116-20.336t-1.116-20.212q-1.116-5.952-5.084-10.044-6.2-6.2-15.252-6.2t-15.252 6.2q-3.968 4.092-5.084 10.044-1.116 5.828-1.116 20.212t1.116 20.336q1.116 5.828 5.084 9.92 6.2 6.2 15.252 6.2t15.252-6.2q3.968-4.092 5.084-9.92zm93.96 23.808h-8.928l-46.872-70.804v70.804h-9.424v-88.288h8.928l46.872 70.556v-70.556h9.424z"/></g></g></svg>
